<?xml version="1.0" encoding="utf-8" standalone="no"?>
<!DOCTYPE svg PUBLIC "-//W3C//DTD SVG 1.1//EN"
  "http://www.w3.org/Graphics/SVG/1.1/DTD/svg11.dtd">
<svg xmlns:xlink="http://www.w3.org/1999/xlink" width="513.359266pt" height="387.172105pt" viewBox="0 0 513.359266 387.172105" xmlns="http://www.w3.org/2000/svg" version="1.1">
 <metadata>
  <rdf:RDF xmlns:dc="http://purl.org/dc/elements/1.1/" xmlns:cc="http://creativecommons.org/ns#" xmlns:rdf="http://www.w3.org/1999/02/22-rdf-syntax-ns#">
   <cc:Work>
    <dc:type rdf:resource="http://purl.org/dc/dcmitype/StillImage"/>
    <dc:date>2026-05-17T23:58:33.886145</dc:date>
    <dc:format>image/svg+xml</dc:format>
    <dc:creator>
     <cc:Agent>
      <dc:title>Matplotlib v3.10.8, https://matplotlib.org/</dc:title>
     </cc:Agent>
    </dc:creator>
   </cc:Work>
  </rdf:RDF>
 </metadata>
 <defs>
  <style type="text/css">*{stroke-linejoin: round; stroke-linecap: butt}</style>
 </defs>
 <g id="figure_1">
  <g id="patch_1">
   <path d="M 0 387.172105 
L 513.359266 387.172105 
L 513.359266 0 
L 0 0 
L 0 387.172105 
z
" style="fill: none"/>
  </g>
  <g id="axes_1">
   <g id="patch_2">
    <path d="M 47.501438 152.73 
L 258.668104 152.73 
L 258.668104 25.072105 
L 47.501438 25.072105 
L 47.501438 152.73 
z
" style="fill: none"/>
   </g>
   <g id="FillBetweenPolyCollection_1">
    <defs>
     <path id="mae229672f8" d="M 49.976047 -290.34223 
L 49.976047 -266.367598 
L 70.597792 -358.526057 
L 91.219536 -342.76319 
L 111.841281 -341.095489 
L 132.463026 -337.032517 
L 153.084771 -336.444834 
L 173.706516 -336.670779 
L 194.32826 -334.634115 
L 214.950005 -332.377774 
L 235.57175 -328.718254 
L 256.193495 -334.138501 
L 256.193495 -354.479777 
L 256.193495 -354.479777 
L 235.57175 -354.346375 
L 214.950005 -355.154872 
L 194.32826 -355.77713 
L 173.706516 -355.755666 
L 153.084771 -356.229177 
L 132.463026 -356.793233 
L 111.841281 -357.841838 
L 91.219536 -358.554778 
L 70.597792 -358.939086 
L 49.976047 -290.34223 
z
"/>
    </defs>
    <g clip-path="url(#p82fb321716)">
     <use xlink:href="#mae229672f8" x="0" y="387.172105" style="fill: #d97706; fill-opacity: 0.13"/>
    </g>
   </g>
   <g id="FillBetweenPolyCollection_2">
    <defs>
     <path id="m582a0077d0" d="M 49.976047 -246.083744 
L 49.976047 -241.659198 
L 70.597792 -320.947206 
L 91.219536 -340.042383 
L 111.841281 -331.432558 
L 132.463026 -328.685555 
L 153.084771 -327.593602 
L 173.706516 -325.703858 
L 194.32826 -325.78707 
L 214.950005 -324.714677 
L 235.57175 -324.670132 
L 256.193495 -325.748508 
L 256.193495 -337.885949 
L 256.193495 -337.885949 
L 235.57175 -337.820018 
L 214.950005 -339.052519 
L 194.32826 -339.67407 
L 173.706516 -340.768784 
L 153.084771 -341.114942 
L 132.463026 -342.774529 
L 111.841281 -346.043662 
L 91.219536 -352.162722 
L 70.597792 -329.231256 
L 49.976047 -246.083744 
z
"/>
    </defs>
    <g clip-path="url(#p82fb321716)">
     <use xlink:href="#m582a0077d0" x="0" y="387.172105" style="fill: #7c3aed; fill-opacity: 0.13"/>
    </g>
   </g>
   <g id="FillBetweenPolyCollection_3">
    <defs>
     <path id="m22e1a9a8e6" d="M 49.976047 -247.001781 
L 49.976047 -245.125745 
L 70.597792 -307.227463 
L 91.219536 -340.764995 
L 111.841281 -333.565116 
L 132.463026 -333.119904 
L 153.084771 -329.162114 
L 173.706516 -327.518368 
L 194.32826 -327.647314 
L 214.950005 -326.148054 
L 235.57175 -324.438211 
L 256.193495 -325.255147 
L 256.193495 -342.059533 
L 256.193495 -342.059533 
L 235.57175 -342.295577 
L 214.950005 -343.421455 
L 194.32826 -344.479631 
L 173.706516 -345.431511 
L 153.084771 -346.76624 
L 132.463026 -347.044018 
L 111.841281 -347.673908 
L 91.219536 -348.88859 
L 70.597792 -319.924753 
L 49.976047 -247.001781 
z
"/>
    </defs>
    <g clip-path="url(#p82fb321716)">
     <use xlink:href="#m22e1a9a8e6" x="0" y="387.172105" style="fill: #db2777; fill-opacity: 0.13"/>
    </g>
   </g>
   <g id="FillBetweenPolyCollection_4">
    <defs>
     <path id="m6e5850ac3c" d="M 49.976047 -245.987722 
L 49.976047 -241.26331 
L 70.597792 -245.89169 
L 91.219536 -242.505398 
L 111.841281 -242.100935 
L 132.463026 -243.730228 
L 153.084771 -241.132181 
L 173.706516 -242.100935 
L 194.32826 -244.37805 
L 214.950005 -241.132181 
L 235.57175 -242.917668 
L 256.193495 -244.659636 
L 256.193495 -247.195368 
L 256.193495 -247.195368 
L 235.57175 -247.075098 
L 214.950005 -246.624076 
L 194.32826 -247.195368 
L 173.706516 -243.74449 
L 153.084771 -246.463712 
L 132.463026 -249.571472 
L 111.841281 -246.429127 
L 91.219536 -247.195368 
L 70.597792 -247.19535 
L 49.976047 -245.987722 
z
"/>
    </defs>
    <g clip-path="url(#p82fb321716)">
     <use xlink:href="#m6e5850ac3c" x="0" y="387.172105" style="fill: #2f6bff; fill-opacity: 0.025"/>
    </g>
   </g>
   <g id="FillBetweenPolyCollection_5">
    <defs>
     <path id="m5dd97a11ee" d="M 49.976047 -249.395909 
L 49.976047 -243.616889 
L 70.597792 -248.835078 
L 91.219536 -240.911795 
L 111.841281 -247.232828 
L 132.463026 -247.022592 
L 153.084771 -247.813825 
L 173.706516 -248.639924 
L 194.32826 -248.192848 
L 214.950005 -247.671982 
L 235.57175 -247.989141 
L 256.193495 -247.764074 
L 256.193495 -250.567588 
L 256.193495 -250.567588 
L 235.57175 -250.040618 
L 214.950005 -249.965401 
L 194.32826 -249.437542 
L 173.706516 -249.681694 
L 153.084771 -249.738322 
L 132.463026 -249.206465 
L 111.841281 -247.678513 
L 91.219536 -246.77695 
L 70.597792 -249.598812 
L 49.976047 -249.395909 
z
"/>
    </defs>
    <g clip-path="url(#p82fb321716)">
     <use xlink:href="#m5dd97a11ee" x="0" y="387.172105" style="fill: #169b62; fill-opacity: 0.025"/>
    </g>
   </g>
   <g id="matplotlib.axis_1">
    <g id="xtick_1">
     <g id="line2d_1">
      <defs>
       <path id="mde7925be5e" d="M 0 0 
L 0 3.5 
" style="stroke: #1f2937; stroke-width: 0.8"/>
      </defs>
      <g>
       <use xlink:href="#mde7925be5e" x="49.976047" y="152.73" style="fill: #1f2937; stroke: #1f2937; stroke-width: 0.8"/>
      </g>
     </g>
    </g>
    <g id="xtick_2">
     <g id="line2d_2">
      <g>
       <use xlink:href="#mde7925be5e" x="70.597792" y="152.73" style="fill: #1f2937; stroke: #1f2937; stroke-width: 0.8"/>
      </g>
     </g>
    </g>
    <g id="xtick_3">
     <g id="line2d_3">
      <g>
       <use xlink:href="#mde7925be5e" x="91.219536" y="152.73" style="fill: #1f2937; stroke: #1f2937; stroke-width: 0.8"/>
      </g>
     </g>
    </g>
    <g id="xtick_4">
     <g id="line2d_4">
      <g>
       <use xlink:href="#mde7925be5e" x="111.841281" y="152.73" style="fill: #1f2937; stroke: #1f2937; stroke-width: 0.8"/>
      </g>
     </g>
    </g>
    <g id="xtick_5">
     <g id="line2d_5">
      <g>
       <use xlink:href="#mde7925be5e" x="132.463026" y="152.73" style="fill: #1f2937; stroke: #1f2937; stroke-width: 0.8"/>
      </g>
     </g>
    </g>
    <g id="xtick_6">
     <g id="line2d_6">
      <g>
       <use xlink:href="#mde7925be5e" x="153.084771" y="152.73" style="fill: #1f2937; stroke: #1f2937; stroke-width: 0.8"/>
      </g>
     </g>
    </g>
    <g id="xtick_7">
     <g id="line2d_7">
      <g>
       <use xlink:href="#mde7925be5e" x="173.706516" y="152.73" style="fill: #1f2937; stroke: #1f2937; stroke-width: 0.8"/>
      </g>
     </g>
    </g>
    <g id="xtick_8">
     <g id="line2d_8">
      <g>
       <use xlink:href="#mde7925be5e" x="194.32826" y="152.73" style="fill: #1f2937; stroke: #1f2937; stroke-width: 0.8"/>
      </g>
     </g>
    </g>
    <g id="xtick_9">
     <g id="line2d_9">
      <g>
       <use xlink:href="#mde7925be5e" x="214.950005" y="152.73" style="fill: #1f2937; stroke: #1f2937; stroke-width: 0.8"/>
      </g>
     </g>
    </g>
    <g id="xtick_10">
     <g id="line2d_10">
      <g>
       <use xlink:href="#mde7925be5e" x="235.57175" y="152.73" style="fill: #1f2937; stroke: #1f2937; stroke-width: 0.8"/>
      </g>
     </g>
    </g>
    <g id="xtick_11">
     <g id="line2d_11">
      <g>
       <use xlink:href="#mde7925be5e" x="256.193495" y="152.73" style="fill: #1f2937; stroke: #1f2937; stroke-width: 0.8"/>
      </g>
     </g>
    </g>
   </g>
   <g id="matplotlib.axis_2">
    <g id="ytick_1">
     <g id="line2d_12">
      <path d="M 47.501438 152.73 
L 258.668104 152.73 
" clip-path="url(#p82fb321716)" style="fill: none; stroke: #d1d5db; stroke-opacity: 0.55; stroke-width: 0.7; stroke-linecap: square"/>
     </g>
     <g id="line2d_13">
      <defs>
       <path id="m2152fbca68" d="M 0 0 
L -3.5 0 
" style="stroke: #1f2937; stroke-width: 0.8"/>
      </defs>
      <g>
       <use xlink:href="#m2152fbca68" x="47.501438" y="152.73" style="fill: #1f2937; stroke: #1f2937; stroke-width: 0.8"/>
      </g>
     </g>
     <g id="text_1">
      <!-- −0.2 -->
      <g style="fill: #1f2937" transform="translate(20.103875 155.921344) scale(0.084 -0.084)">
       <defs>
        <path id="DejaVuSans-2212" d="M 678 2272 
L 4684 2272 
L 4684 1741 
L 678 1741 
L 678 2272 
z
" transform="scale(0.015625)"/>
        <path id="DejaVuSans-30" d="M 2034 4250 
Q 1547 4250 1301 3770 
Q 1056 3291 1056 2328 
Q 1056 1369 1301 889 
Q 1547 409 2034 409 
Q 2525 409 2770 889 
Q 3016 1369 3016 2328 
Q 3016 3291 2770 3770 
Q 2525 4250 2034 4250 
z
M 2034 4750 
Q 2819 4750 3233 4129 
Q 3647 3509 3647 2328 
Q 3647 1150 3233 529 
Q 2819 -91 2034 -91 
Q 1250 -91 836 529 
Q 422 1150 422 2328 
Q 422 3509 836 4129 
Q 1250 4750 2034 4750 
z
" transform="scale(0.015625)"/>
        <path id="DejaVuSans-2e" d="M 684 794 
L 1344 794 
L 1344 0 
L 684 0 
L 684 794 
z
" transform="scale(0.015625)"/>
        <path id="DejaVuSans-32" d="M 1228 531 
L 3431 531 
L 3431 0 
L 469 0 
L 469 531 
Q 828 903 1448 1529 
Q 2069 2156 2228 2338 
Q 2531 2678 2651 2914 
Q 2772 3150 2772 3378 
Q 2772 3750 2511 3984 
Q 2250 4219 1831 4219 
Q 1534 4219 1204 4116 
Q 875 4013 500 3803 
L 500 4441 
Q 881 4594 1212 4672 
Q 1544 4750 1819 4750 
Q 2544 4750 2975 4387 
Q 3406 4025 3406 3419 
Q 3406 3131 3298 2873 
Q 3191 2616 2906 2266 
Q 2828 2175 2409 1742 
Q 1991 1309 1228 531 
z
" transform="scale(0.015625)"/>
       </defs>
       <use xlink:href="#DejaVuSans-2212"/>
       <use xlink:href="#DejaVuSans-30" transform="translate(83.789062 0)"/>
       <use xlink:href="#DejaVuSans-2e" transform="translate(147.412109 0)"/>
       <use xlink:href="#DejaVuSans-32" transform="translate(179.199219 0)"/>
      </g>
     </g>
    </g>
    <g id="ytick_2">
     <g id="line2d_14">
      <path d="M 47.501438 131.972619 
L 258.668104 131.972619 
" clip-path="url(#p82fb321716)" style="fill: none; stroke: #d1d5db; stroke-opacity: 0.55; stroke-width: 0.7; stroke-linecap: square"/>
     </g>
     <g id="line2d_15">
      <g>
       <use xlink:href="#m2152fbca68" x="47.501438" y="131.972619" style="fill: #1f2937; stroke: #1f2937; stroke-width: 0.8"/>
      </g>
     </g>
     <g id="text_2">
      <!-- 0.0 -->
      <g style="fill: #1f2937" transform="translate(27.142813 135.163962) scale(0.084 -0.084)">
       <use xlink:href="#DejaVuSans-30"/>
       <use xlink:href="#DejaVuSans-2e" transform="translate(63.623047 0)"/>
       <use xlink:href="#DejaVuSans-30" transform="translate(95.410156 0)"/>
      </g>
     </g>
    </g>
    <g id="ytick_3">
     <g id="line2d_16">
      <path d="M 47.501438 111.215237 
L 258.668104 111.215237 
" clip-path="url(#p82fb321716)" style="fill: none; stroke: #d1d5db; stroke-opacity: 0.55; stroke-width: 0.7; stroke-linecap: square"/>
     </g>
     <g id="line2d_17">
      <g>
       <use xlink:href="#m2152fbca68" x="47.501438" y="111.215237" style="fill: #1f2937; stroke: #1f2937; stroke-width: 0.8"/>
      </g>
     </g>
     <g id="text_3">
      <!-- 0.2 -->
      <g style="fill: #1f2937" transform="translate(27.142813 114.406581) scale(0.084 -0.084)">
       <use xlink:href="#DejaVuSans-30"/>
       <use xlink:href="#DejaVuSans-2e" transform="translate(63.623047 0)"/>
       <use xlink:href="#DejaVuSans-32" transform="translate(95.410156 0)"/>
      </g>
     </g>
    </g>
    <g id="ytick_4">
     <g id="line2d_18">
      <path d="M 47.501438 90.457856 
L 258.668104 90.457856 
" clip-path="url(#p82fb321716)" style="fill: none; stroke: #d1d5db; stroke-opacity: 0.55; stroke-width: 0.7; stroke-linecap: square"/>
     </g>
     <g id="line2d_19">
      <g>
       <use xlink:href="#m2152fbca68" x="47.501438" y="90.457856" style="fill: #1f2937; stroke: #1f2937; stroke-width: 0.8"/>
      </g>
     </g>
     <g id="text_4">
      <!-- 0.4 -->
      <g style="fill: #1f2937" transform="translate(27.142813 93.6492) scale(0.084 -0.084)">
       <defs>
        <path id="DejaVuSans-34" d="M 2419 4116 
L 825 1625 
L 2419 1625 
L 2419 4116 
z
M 2253 4666 
L 3047 4666 
L 3047 1625 
L 3713 1625 
L 3713 1100 
L 3047 1100 
L 3047 0 
L 2419 0 
L 2419 1100 
L 313 1100 
L 313 1709 
L 2253 4666 
z
" transform="scale(0.015625)"/>
       </defs>
       <use xlink:href="#DejaVuSans-30"/>
       <use xlink:href="#DejaVuSans-2e" transform="translate(63.623047 0)"/>
       <use xlink:href="#DejaVuSans-34" transform="translate(95.410156 0)"/>
      </g>
     </g>
    </g>
    <g id="ytick_5">
     <g id="line2d_20">
      <path d="M 47.501438 69.700475 
L 258.668104 69.700475 
" clip-path="url(#p82fb321716)" style="fill: none; stroke: #d1d5db; stroke-opacity: 0.55; stroke-width: 0.7; stroke-linecap: square"/>
     </g>
     <g id="line2d_21">
      <g>
       <use xlink:href="#m2152fbca68" x="47.501438" y="69.700475" style="fill: #1f2937; stroke: #1f2937; stroke-width: 0.8"/>
      </g>
     </g>
     <g id="text_5">
      <!-- 0.6 -->
      <g style="fill: #1f2937" transform="translate(27.142813 72.891819) scale(0.084 -0.084)">
       <defs>
        <path id="DejaVuSans-36" d="M 2113 2584 
Q 1688 2584 1439 2293 
Q 1191 2003 1191 1497 
Q 1191 994 1439 701 
Q 1688 409 2113 409 
Q 2538 409 2786 701 
Q 3034 994 3034 1497 
Q 3034 2003 2786 2293 
Q 2538 2584 2113 2584 
z
M 3366 4563 
L 3366 3988 
Q 3128 4100 2886 4159 
Q 2644 4219 2406 4219 
Q 1781 4219 1451 3797 
Q 1122 3375 1075 2522 
Q 1259 2794 1537 2939 
Q 1816 3084 2150 3084 
Q 2853 3084 3261 2657 
Q 3669 2231 3669 1497 
Q 3669 778 3244 343 
Q 2819 -91 2113 -91 
Q 1303 -91 875 529 
Q 447 1150 447 2328 
Q 447 3434 972 4092 
Q 1497 4750 2381 4750 
Q 2619 4750 2861 4703 
Q 3103 4656 3366 4563 
z
" transform="scale(0.015625)"/>
       </defs>
       <use xlink:href="#DejaVuSans-30"/>
       <use xlink:href="#DejaVuSans-2e" transform="translate(63.623047 0)"/>
       <use xlink:href="#DejaVuSans-36" transform="translate(95.410156 0)"/>
      </g>
     </g>
    </g>
    <g id="ytick_6">
     <g id="line2d_22">
      <path d="M 47.501438 48.943094 
L 258.668104 48.943094 
" clip-path="url(#p82fb321716)" style="fill: none; stroke: #d1d5db; stroke-opacity: 0.55; stroke-width: 0.7; stroke-linecap: square"/>
     </g>
     <g id="line2d_23">
      <g>
       <use xlink:href="#m2152fbca68" x="47.501438" y="48.943094" style="fill: #1f2937; stroke: #1f2937; stroke-width: 0.8"/>
      </g>
     </g>
     <g id="text_6">
      <!-- 0.8 -->
      <g style="fill: #1f2937" transform="translate(27.142813 52.134437) scale(0.084 -0.084)">
       <defs>
        <path id="DejaVuSans-38" d="M 2034 2216 
Q 1584 2216 1326 1975 
Q 1069 1734 1069 1313 
Q 1069 891 1326 650 
Q 1584 409 2034 409 
Q 2484 409 2743 651 
Q 3003 894 3003 1313 
Q 3003 1734 2745 1975 
Q 2488 2216 2034 2216 
z
M 1403 2484 
Q 997 2584 770 2862 
Q 544 3141 544 3541 
Q 544 4100 942 4425 
Q 1341 4750 2034 4750 
Q 2731 4750 3128 4425 
Q 3525 4100 3525 3541 
Q 3525 3141 3298 2862 
Q 3072 2584 2669 2484 
Q 3125 2378 3379 2068 
Q 3634 1759 3634 1313 
Q 3634 634 3220 271 
Q 2806 -91 2034 -91 
Q 1263 -91 848 271 
Q 434 634 434 1313 
Q 434 1759 690 2068 
Q 947 2378 1403 2484 
z
M 1172 3481 
Q 1172 3119 1398 2916 
Q 1625 2713 2034 2713 
Q 2441 2713 2670 2916 
Q 2900 3119 2900 3481 
Q 2900 3844 2670 4047 
Q 2441 4250 2034 4250 
Q 1625 4250 1398 4047 
Q 1172 3844 1172 3481 
z
" transform="scale(0.015625)"/>
       </defs>
       <use xlink:href="#DejaVuSans-30"/>
       <use xlink:href="#DejaVuSans-2e" transform="translate(63.623047 0)"/>
       <use xlink:href="#DejaVuSans-38" transform="translate(95.410156 0)"/>
      </g>
     </g>
    </g>
    <g id="ytick_7">
     <g id="line2d_24">
      <path d="M 47.501438 28.185712 
L 258.668104 28.185712 
" clip-path="url(#p82fb321716)" style="fill: none; stroke: #d1d5db; stroke-opacity: 0.55; stroke-width: 0.7; stroke-linecap: square"/>
     </g>
     <g id="line2d_25">
      <g>
       <use xlink:href="#m2152fbca68" x="47.501438" y="28.185712" style="fill: #1f2937; stroke: #1f2937; stroke-width: 0.8"/>
      </g>
     </g>
     <g id="text_7">
      <!-- 1.0 -->
      <g style="fill: #1f2937" transform="translate(27.142813 31.377056) scale(0.084 -0.084)">
       <defs>
        <path id="DejaVuSans-31" d="M 794 531 
L 1825 531 
L 1825 4091 
L 703 3866 
L 703 4441 
L 1819 4666 
L 2450 4666 
L 2450 531 
L 3481 531 
L 3481 0 
L 794 0 
L 794 531 
z
" transform="scale(0.015625)"/>
       </defs>
       <use xlink:href="#DejaVuSans-31"/>
       <use xlink:href="#DejaVuSans-2e" transform="translate(63.623047 0)"/>
       <use xlink:href="#DejaVuSans-30" transform="translate(95.410156 0)"/>
      </g>
     </g>
    </g>
    <g id="text_8">
     <!-- 5-fold CV $R^2$ -->
     <g style="fill: #1f2937" transform="translate(14.190562 117.099053) rotate(-90) scale(0.092 -0.092)">
      <defs>
       <path id="DejaVuSans-35" d="M 691 4666 
L 3169 4666 
L 3169 4134 
L 1269 4134 
L 1269 2991 
Q 1406 3038 1543 3061 
Q 1681 3084 1819 3084 
Q 2600 3084 3056 2656 
Q 3513 2228 3513 1497 
Q 3513 744 3044 326 
Q 2575 -91 1722 -91 
Q 1428 -91 1123 -41 
Q 819 9 494 109 
L 494 744 
Q 775 591 1075 516 
Q 1375 441 1709 441 
Q 2250 441 2565 725 
Q 2881 1009 2881 1497 
Q 2881 1984 2565 2268 
Q 2250 2553 1709 2553 
Q 1456 2553 1204 2497 
Q 953 2441 691 2322 
L 691 4666 
z
" transform="scale(0.015625)"/>
       <path id="DejaVuSans-2d" d="M 313 2009 
L 1997 2009 
L 1997 1497 
L 313 1497 
L 313 2009 
z
" transform="scale(0.015625)"/>
       <path id="DejaVuSans-66" d="M 2375 4863 
L 2375 4384 
L 1825 4384 
Q 1516 4384 1395 4259 
Q 1275 4134 1275 3809 
L 1275 3500 
L 2222 3500 
L 2222 3053 
L 1275 3053 
L 1275 0 
L 697 0 
L 697 3053 
L 147 3053 
L 147 3500 
L 697 3500 
L 697 3744 
Q 697 4328 969 4595 
Q 1241 4863 1831 4863 
L 2375 4863 
z
" transform="scale(0.015625)"/>
       <path id="DejaVuSans-6f" d="M 1959 3097 
Q 1497 3097 1228 2736 
Q 959 2375 959 1747 
Q 959 1119 1226 758 
Q 1494 397 1959 397 
Q 2419 397 2687 759 
Q 2956 1122 2956 1747 
Q 2956 2369 2687 2733 
Q 2419 3097 1959 3097 
z
M 1959 3584 
Q 2709 3584 3137 3096 
Q 3566 2609 3566 1747 
Q 3566 888 3137 398 
Q 2709 -91 1959 -91 
Q 1206 -91 779 398 
Q 353 888 353 1747 
Q 353 2609 779 3096 
Q 1206 3584 1959 3584 
z
" transform="scale(0.015625)"/>
       <path id="DejaVuSans-6c" d="M 603 4863 
L 1178 4863 
L 1178 0 
L 603 0 
L 603 4863 
z
" transform="scale(0.015625)"/>
       <path id="DejaVuSans-64" d="M 2906 2969 
L 2906 4863 
L 3481 4863 
L 3481 0 
L 2906 0 
L 2906 525 
Q 2725 213 2448 61 
Q 2172 -91 1784 -91 
Q 1150 -91 751 415 
Q 353 922 353 1747 
Q 353 2572 751 3078 
Q 1150 3584 1784 3584 
Q 2172 3584 2448 3432 
Q 2725 3281 2906 2969 
z
M 947 1747 
Q 947 1113 1208 752 
Q 1469 391 1925 391 
Q 2381 391 2643 752 
Q 2906 1113 2906 1747 
Q 2906 2381 2643 2742 
Q 2381 3103 1925 3103 
Q 1469 3103 1208 2742 
Q 947 2381 947 1747 
z
" transform="scale(0.015625)"/>
       <path id="DejaVuSans-20" transform="scale(0.015625)"/>
       <path id="DejaVuSans-43" d="M 4122 4306 
L 4122 3641 
Q 3803 3938 3442 4084 
Q 3081 4231 2675 4231 
Q 1875 4231 1450 3742 
Q 1025 3253 1025 2328 
Q 1025 1406 1450 917 
Q 1875 428 2675 428 
Q 3081 428 3442 575 
Q 3803 722 4122 1019 
L 4122 359 
Q 3791 134 3420 21 
Q 3050 -91 2638 -91 
Q 1578 -91 968 557 
Q 359 1206 359 2328 
Q 359 3453 968 4101 
Q 1578 4750 2638 4750 
Q 3056 4750 3426 4639 
Q 3797 4528 4122 4306 
z
" transform="scale(0.015625)"/>
       <path id="DejaVuSans-56" d="M 1831 0 
L 50 4666 
L 709 4666 
L 2188 738 
L 3669 4666 
L 4325 4666 
L 2547 0 
L 1831 0 
z
" transform="scale(0.015625)"/>
       <path id="DejaVuSans-Oblique-52" d="M 1613 4147 
L 1294 2491 
L 2106 2491 
Q 2584 2491 2879 2755 
Q 3175 3019 3175 3444 
Q 3175 3784 2976 3965 
Q 2778 4147 2406 4147 
L 1613 4147 
z
M 2772 2241 
Q 2972 2194 3105 2009 
Q 3238 1825 3413 1275 
L 3809 0 
L 3144 0 
L 2778 1197 
Q 2638 1659 2453 1815 
Q 2269 1972 1888 1972 
L 1191 1972 
L 806 0 
L 172 0 
L 1081 4666 
L 2503 4666 
Q 3150 4666 3495 4373 
Q 3841 4081 3841 3531 
Q 3841 3044 3547 2687 
Q 3253 2331 2772 2241 
z
" transform="scale(0.015625)"/>
      </defs>
      <use xlink:href="#DejaVuSans-35" transform="translate(0 0.765625)"/>
      <use xlink:href="#DejaVuSans-2d" transform="translate(63.623047 0.765625)"/>
      <use xlink:href="#DejaVuSans-66" transform="translate(99.707031 0.765625)"/>
      <use xlink:href="#DejaVuSans-6f" transform="translate(134.912109 0.765625)"/>
      <use xlink:href="#DejaVuSans-6c" transform="translate(196.09375 0.765625)"/>
      <use xlink:href="#DejaVuSans-64" transform="translate(223.876953 0.765625)"/>
      <use xlink:href="#DejaVuSans-20" transform="translate(287.353516 0.765625)"/>
      <use xlink:href="#DejaVuSans-43" transform="translate(319.140625 0.765625)"/>
      <use xlink:href="#DejaVuSans-56" transform="translate(388.964844 0.765625)"/>
      <use xlink:href="#DejaVuSans-20" transform="translate(457.373047 0.765625)"/>
      <use xlink:href="#DejaVuSans-Oblique-52" transform="translate(489.160156 0.765625)"/>
      <use xlink:href="#DejaVuSans-32" transform="translate(565.659349 39.046875) scale(0.7)"/>
     </g>
    </g>
   </g>
   <g id="line2d_26">
    <path d="M 49.976047 110.374311 
L 70.597792 28.385625 
L 91.219536 34.692751 
L 111.841281 36.104966 
L 132.463026 38.560925 
L 153.084771 39.384851 
L 173.706516 39.382245 
L 194.32826 40.44181 
L 214.950005 41.808069 
L 235.57175 43.655179 
L 256.193495 41.422402 
" clip-path="url(#p82fb321716)" style="fill: none; stroke: #d97706; stroke-width: 2.5; stroke-linecap: square"/>
   </g>
   <g id="line2d_27">
    <path d="M 49.976047 142.924119 
L 70.597792 60.989018 
L 91.219536 41.004528 
L 111.841281 46.619256 
L 132.463026 50.011294 
L 153.084771 52.458902 
L 173.706516 53.783501 
L 194.32826 54.288663 
L 214.950005 55.279901 
L 235.57175 56.01437 
L 256.193495 56.111697 
" clip-path="url(#p82fb321716)" style="fill: none; stroke: #7c3aed; stroke-width: 2.2; stroke-linecap: square"/>
   </g>
   <g id="line2d_28">
    <path d="M 49.976047 140.820067 
L 70.597792 72.774183 
L 91.219536 42.954663 
L 111.841281 46.339924 
L 132.463026 47.245955 
L 153.084771 50.173241 
L 173.706516 51.480903 
L 194.32826 50.948992 
L 214.950005 52.198525 
L 235.57175 53.531248 
L 256.193495 53.764403 
" clip-path="url(#p82fb321716)" style="fill: none; stroke: #db2777; stroke-width: 2.2; stroke-linecap: square"/>
   </g>
   <g id="line2d_29">
    <path d="M 49.976047 143.343569 
L 70.597792 140.655187 
L 91.219536 142.622743 
L 111.841281 142.678998 
L 132.463026 141.395558 
L 153.084771 143.257065 
L 173.706516 144.380367 
L 194.32826 141.030436 
L 214.950005 143.270913 
L 235.57175 142.48498 
L 256.193495 141.373242 
" clip-path="url(#p82fb321716)" style="fill: none; stroke: #2f6bff; stroke-opacity: 0.28; stroke-width: 1.35; stroke-linecap: square"/>
   </g>
   <g id="line2d_30">
    <path d="M 49.976047 140.249037 
L 70.597792 137.837342 
L 91.219536 142.670725 
L 111.841281 139.695271 
L 132.463026 138.748529 
L 153.084771 138.171943 
L 173.706516 137.986806 
L 194.32826 138.204656 
L 214.950005 138.273258 
L 235.57175 138.208403 
L 256.193495 138.171752 
" clip-path="url(#p82fb321716)" style="fill: none; stroke: #169b62; stroke-opacity: 0.28; stroke-width: 1.35; stroke-linecap: square"/>
   </g>
   <g id="line2d_31">
    <path d="M 47.501438 131.972619 
L 258.668104 131.972619 
" clip-path="url(#p82fb321716)" style="fill: none; stroke-dasharray: 2.96,1.28; stroke-dashoffset: 0; stroke: #6b7280; stroke-opacity: 0.65; stroke-width: 0.8"/>
   </g>
   <g id="patch_3">
    <path d="M 47.501438 152.73 
L 47.501438 25.072105 
" style="fill: none; stroke: #1f2937; stroke-width: 0.8; stroke-linejoin: miter; stroke-linecap: square"/>
   </g>
   <g id="patch_4">
    <path d="M 47.501438 152.73 
L 258.668104 152.73 
" style="fill: none; stroke: #1f2937; stroke-width: 0.8; stroke-linejoin: miter; stroke-linecap: square"/>
   </g>
   <g id="text_9">
    <!-- A -->
    <g style="fill: #1f2937" transform="translate(20.049771 17.077969) scale(0.13 -0.13)">
     <defs>
      <path id="DejaVuSans-Bold-41" d="M 3419 850 
L 1538 850 
L 1241 0 
L 31 0 
L 1759 4666 
L 3194 4666 
L 4922 0 
L 3713 0 
L 3419 850 
z
M 1838 1716 
L 3116 1716 
L 2478 3572 
L 1838 1716 
z
" transform="scale(0.015625)"/>
     </defs>
     <use xlink:href="#DejaVuSans-Bold-41"/>
    </g>
   </g>
   <g id="text_10">
    <!-- $B^D$ -->
    <g style="fill: #1f2937" transform="translate(146.301771 20.072105) scale(0.102 -0.102)">
     <defs>
      <path id="DejaVuSans-Oblique-42" d="M 1081 4666 
L 2694 4666 
Q 3350 4666 3675 4422 
Q 4000 4178 4000 3688 
Q 4000 3238 3720 2911 
Q 3441 2584 2988 2516 
Q 3375 2428 3569 2181 
Q 3763 1934 3763 1522 
Q 3763 819 3242 409 
Q 2722 0 1819 0 
L 172 0 
L 1081 4666 
z
M 1234 2228 
L 903 519 
L 1919 519 
Q 2491 519 2800 781 
Q 3109 1044 3109 1522 
Q 3109 1891 2904 2059 
Q 2700 2228 2247 2228 
L 1234 2228 
z
M 1606 4147 
L 1331 2741 
L 2272 2741 
Q 2775 2741 3058 2959 
Q 3341 3178 3341 3566 
Q 3341 3869 3150 4008 
Q 2959 4147 2541 4147 
L 1606 4147 
z
" transform="scale(0.015625)"/>
      <path id="DejaVuSans-Oblique-44" d="M 1081 4666 
L 2438 4666 
Q 3519 4666 4070 4208 
Q 4622 3750 4622 2847 
Q 4622 2250 4412 1698 
Q 4203 1147 3834 769 
Q 3463 381 2891 190 
Q 2319 0 1538 0 
L 172 0 
L 1081 4666 
z
M 1613 4147 
L 909 519 
L 1734 519 
Q 2794 519 3375 1128 
Q 3956 1738 3956 2847 
Q 3956 3519 3581 3833 
Q 3206 4147 2406 4147 
L 1613 4147 
z
" transform="scale(0.015625)"/>
     </defs>
     <use xlink:href="#DejaVuSans-Oblique-42" transform="translate(0 0.684375)"/>
     <use xlink:href="#DejaVuSans-Oblique-44" transform="translate(75.620286 38.965625) scale(0.7)"/>
    </g>
   </g>
  </g>
  <g id="axes_2">
   <g id="patch_5">
    <path d="M 292.454771 152.73 
L 503.621438 152.73 
L 503.621438 25.072105 
L 292.454771 25.072105 
L 292.454771 152.73 
z
" style="fill: none"/>
   </g>
   <g id="FillBetweenPolyCollection_6">
    <defs>
     <path id="mf9ce0effbf" d="M 294.92938 -295.423584 
L 294.92938 -291.469605 
L 315.551125 -348.335427 
L 336.17287 -336.695695 
L 356.794615 -354.31586 
L 377.416359 -353.888226 
L 398.038104 -353.922045 
L 418.659849 -353.174546 
L 439.281594 -353.608719 
L 459.903339 -353.881896 
L 480.525083 -353.082601 
L 501.146828 -351.706217 
L 501.146828 -354.767667 
L 501.146828 -354.767667 
L 480.525083 -355.535038 
L 459.903339 -356.223482 
L 439.281594 -356.635862 
L 418.659849 -355.83553 
L 398.038104 -356.421424 
L 377.416359 -356.230395 
L 356.794615 -355.66799 
L 336.17287 -354.550917 
L 315.551125 -357.59195 
L 294.92938 -295.423584 
z
"/>
    </defs>
    <g clip-path="url(#p7caca5cba3)">
     <use xlink:href="#mf9ce0effbf" x="0" y="387.172105" style="fill: #d97706; fill-opacity: 0.13"/>
    </g>
   </g>
   <g id="FillBetweenPolyCollection_7">
    <defs>
     <path id="m492663b668" d="M 294.92938 -224.780575 
L 294.92938 -223.486914 
L 315.551125 -344.78741 
L 336.17287 -345.616442 
L 356.794615 -345.046797 
L 377.416359 -343.605344 
L 398.038104 -343.100591 
L 418.659849 -341.547832 
L 439.281594 -340.497302 
L 459.903339 -338.91445 
L 480.525083 -338.276203 
L 501.146828 -337.218423 
L 501.146828 -344.066451 
L 501.146828 -344.066451 
L 480.525083 -345.406226 
L 459.903339 -346.826155 
L 439.281594 -348.025579 
L 418.659849 -349.445549 
L 398.038104 -350.893727 
L 377.416359 -351.845176 
L 356.794615 -353.724646 
L 336.17287 -351.73192 
L 315.551125 -351.703774 
L 294.92938 -224.780575 
z
"/>
    </defs>
    <g clip-path="url(#p7caca5cba3)">
     <use xlink:href="#m492663b668" x="0" y="387.172105" style="fill: #7c3aed; fill-opacity: 0.13"/>
    </g>
   </g>
   <g id="FillBetweenPolyCollection_8">
    <defs>
     <path id="mfbe795584e" d="M 294.92938 -231.972124 
L 294.92938 -228.402847 
L 315.551125 -336.395942 
L 336.17287 -347.061739 
L 356.794615 -343.670941 
L 377.416359 -340.709807 
L 398.038104 -339.468821 
L 418.659849 -337.977506 
L 439.281594 -337.29223 
L 459.903339 -336.146409 
L 480.525083 -334.477649 
L 501.146828 -332.924544 
L 501.146828 -337.188058 
L 501.146828 -337.188058 
L 480.525083 -339.144516 
L 459.903339 -340.303403 
L 439.281594 -342.228002 
L 418.659849 -343.606654 
L 398.038104 -345.119576 
L 377.416359 -346.144996 
L 356.794615 -349.243776 
L 336.17287 -350.319009 
L 315.551125 -347.713578 
L 294.92938 -231.972124 
z
"/>
    </defs>
    <g clip-path="url(#p7caca5cba3)">
     <use xlink:href="#mfbe795584e" x="0" y="387.172105" style="fill: #db2777; fill-opacity: 0.13"/>
    </g>
   </g>
   <g id="FillBetweenPolyCollection_9">
    <defs>
     <path id="m70a2229ece" d="M 294.92938 -224.560816 
L 294.92938 -222.724488 
L 315.551125 -238.287877 
L 336.17287 -231.8739 
L 356.794615 -225.23667 
L 377.416359 -231.474343 
L 398.038104 -226.149058 
L 418.659849 -225.23667 
L 439.281594 -231.890824 
L 459.903339 -226.149058 
L 480.525083 -232.023421 
L 501.146828 -237.871408 
L 501.146828 -239.605112 
L 501.146828 -239.605112 
L 480.525083 -238.903528 
L 459.903339 -244.043769 
L 439.281594 -245.072042 
L 418.659849 -233.300416 
L 398.038104 -244.847721 
L 377.416359 -245.123853 
L 356.794615 -239.839054 
L 336.17287 -239.605112 
L 315.551125 -244.84772 
L 294.92938 -224.560816 
z
"/>
    </defs>
    <g clip-path="url(#p7caca5cba3)">
     <use xlink:href="#m70a2229ece" x="0" y="387.172105" style="fill: #2f6bff; fill-opacity: 0.025"/>
    </g>
   </g>
   <g id="FillBetweenPolyCollection_10">
    <defs>
     <path id="mf32727bd50" d="M 294.92938 -224.513028 
L 294.92938 -223.468241 
L 315.551125 -236.225815 
L 336.17287 -234.811532 
L 356.794615 -237.214831 
L 377.416359 -237.718433 
L 398.038104 -237.102313 
L 418.659849 -236.775147 
L 439.281594 -235.622469 
L 459.903339 -236.76214 
L 480.525083 -236.702105 
L 501.146828 -236.770403 
L 501.146828 -240.135806 
L 501.146828 -240.135806 
L 480.525083 -240.975401 
L 459.903339 -240.901046 
L 439.281594 -240.835696 
L 418.659849 -240.423828 
L 398.038104 -240.366532 
L 377.416359 -240.797728 
L 356.794615 -241.168902 
L 336.17287 -239.641343 
L 315.551125 -240.227684 
L 294.92938 -224.513028 
z
"/>
    </defs>
    <g clip-path="url(#p7caca5cba3)">
     <use xlink:href="#mf32727bd50" x="0" y="387.172105" style="fill: #169b62; fill-opacity: 0.025"/>
    </g>
   </g>
   <g id="matplotlib.axis_3">
    <g id="xtick_12">
     <g id="line2d_32">
      <g>
       <use xlink:href="#mde7925be5e" x="294.92938" y="152.73" style="fill: #1f2937; stroke: #1f2937; stroke-width: 0.8"/>
      </g>
     </g>
    </g>
    <g id="xtick_13">
     <g id="line2d_33">
      <g>
       <use xlink:href="#mde7925be5e" x="315.551125" y="152.73" style="fill: #1f2937; stroke: #1f2937; stroke-width: 0.8"/>
      </g>
     </g>
    </g>
    <g id="xtick_14">
     <g id="line2d_34">
      <g>
       <use xlink:href="#mde7925be5e" x="336.17287" y="152.73" style="fill: #1f2937; stroke: #1f2937; stroke-width: 0.8"/>
      </g>
     </g>
    </g>
    <g id="xtick_15">
     <g id="line2d_35">
      <g>
       <use xlink:href="#mde7925be5e" x="356.794615" y="152.73" style="fill: #1f2937; stroke: #1f2937; stroke-width: 0.8"/>
      </g>
     </g>
    </g>
    <g id="xtick_16">
     <g id="line2d_36">
      <g>
       <use xlink:href="#mde7925be5e" x="377.416359" y="152.73" style="fill: #1f2937; stroke: #1f2937; stroke-width: 0.8"/>
      </g>
     </g>
    </g>
    <g id="xtick_17">
     <g id="line2d_37">
      <g>
       <use xlink:href="#mde7925be5e" x="398.038104" y="152.73" style="fill: #1f2937; stroke: #1f2937; stroke-width: 0.8"/>
      </g>
     </g>
    </g>
    <g id="xtick_18">
     <g id="line2d_38">
      <g>
       <use xlink:href="#mde7925be5e" x="418.659849" y="152.73" style="fill: #1f2937; stroke: #1f2937; stroke-width: 0.8"/>
      </g>
     </g>
    </g>
    <g id="xtick_19">
     <g id="line2d_39">
      <g>
       <use xlink:href="#mde7925be5e" x="439.281594" y="152.73" style="fill: #1f2937; stroke: #1f2937; stroke-width: 0.8"/>
      </g>
     </g>
    </g>
    <g id="xtick_20">
     <g id="line2d_40">
      <g>
       <use xlink:href="#mde7925be5e" x="459.903339" y="152.73" style="fill: #1f2937; stroke: #1f2937; stroke-width: 0.8"/>
      </g>
     </g>
    </g>
    <g id="xtick_21">
     <g id="line2d_41">
      <g>
       <use xlink:href="#mde7925be5e" x="480.525083" y="152.73" style="fill: #1f2937; stroke: #1f2937; stroke-width: 0.8"/>
      </g>
     </g>
    </g>
    <g id="xtick_22">
     <g id="line2d_42">
      <g>
       <use xlink:href="#mde7925be5e" x="501.146828" y="152.73" style="fill: #1f2937; stroke: #1f2937; stroke-width: 0.8"/>
      </g>
     </g>
    </g>
   </g>
   <g id="matplotlib.axis_4">
    <g id="ytick_8">
     <g id="line2d_43">
      <path d="M 292.454771 152.73 
L 503.621438 152.73 
" clip-path="url(#p7caca5cba3)" style="fill: none; stroke: #d1d5db; stroke-opacity: 0.55; stroke-width: 0.7; stroke-linecap: square"/>
     </g>
     <g id="line2d_44">
      <g>
       <use xlink:href="#m2152fbca68" x="292.454771" y="152.73" style="fill: #1f2937; stroke: #1f2937; stroke-width: 0.8"/>
      </g>
     </g>
    </g>
    <g id="ytick_9">
     <g id="line2d_45">
      <path d="M 292.454771 131.972619 
L 503.621438 131.972619 
" clip-path="url(#p7caca5cba3)" style="fill: none; stroke: #d1d5db; stroke-opacity: 0.55; stroke-width: 0.7; stroke-linecap: square"/>
     </g>
     <g id="line2d_46">
      <g>
       <use xlink:href="#m2152fbca68" x="292.454771" y="131.972619" style="fill: #1f2937; stroke: #1f2937; stroke-width: 0.8"/>
      </g>
     </g>
    </g>
    <g id="ytick_10">
     <g id="line2d_47">
      <path d="M 292.454771 111.215237 
L 503.621438 111.215237 
" clip-path="url(#p7caca5cba3)" style="fill: none; stroke: #d1d5db; stroke-opacity: 0.55; stroke-width: 0.7; stroke-linecap: square"/>
     </g>
     <g id="line2d_48">
      <g>
       <use xlink:href="#m2152fbca68" x="292.454771" y="111.215237" style="fill: #1f2937; stroke: #1f2937; stroke-width: 0.8"/>
      </g>
     </g>
    </g>
    <g id="ytick_11">
     <g id="line2d_49">
      <path d="M 292.454771 90.457856 
L 503.621438 90.457856 
" clip-path="url(#p7caca5cba3)" style="fill: none; stroke: #d1d5db; stroke-opacity: 0.55; stroke-width: 0.7; stroke-linecap: square"/>
     </g>
     <g id="line2d_50">
      <g>
       <use xlink:href="#m2152fbca68" x="292.454771" y="90.457856" style="fill: #1f2937; stroke: #1f2937; stroke-width: 0.8"/>
      </g>
     </g>
    </g>
    <g id="ytick_12">
     <g id="line2d_51">
      <path d="M 292.454771 69.700475 
L 503.621438 69.700475 
" clip-path="url(#p7caca5cba3)" style="fill: none; stroke: #d1d5db; stroke-opacity: 0.55; stroke-width: 0.7; stroke-linecap: square"/>
     </g>
     <g id="line2d_52">
      <g>
       <use xlink:href="#m2152fbca68" x="292.454771" y="69.700475" style="fill: #1f2937; stroke: #1f2937; stroke-width: 0.8"/>
      </g>
     </g>
    </g>
    <g id="ytick_13">
     <g id="line2d_53">
      <path d="M 292.454771 48.943094 
L 503.621438 48.943094 
" clip-path="url(#p7caca5cba3)" style="fill: none; stroke: #d1d5db; stroke-opacity: 0.55; stroke-width: 0.7; stroke-linecap: square"/>
     </g>
     <g id="line2d_54">
      <g>
       <use xlink:href="#m2152fbca68" x="292.454771" y="48.943094" style="fill: #1f2937; stroke: #1f2937; stroke-width: 0.8"/>
      </g>
     </g>
    </g>
    <g id="ytick_14">
     <g id="line2d_55">
      <path d="M 292.454771 28.185712 
L 503.621438 28.185712 
" clip-path="url(#p7caca5cba3)" style="fill: none; stroke: #d1d5db; stroke-opacity: 0.55; stroke-width: 0.7; stroke-linecap: square"/>
     </g>
     <g id="line2d_56">
      <g>
       <use xlink:href="#m2152fbca68" x="292.454771" y="28.185712" style="fill: #1f2937; stroke: #1f2937; stroke-width: 0.8"/>
      </g>
     </g>
    </g>
   </g>
   <g id="line2d_57">
    <path d="M 294.92938 93.765974 
L 315.551125 33.619928 
L 336.17287 41.427359 
L 356.794615 32.333183 
L 377.416359 32.441067 
L 398.038104 32.362313 
L 418.659849 32.971988 
L 439.281594 32.356572 
L 459.903339 32.493786 
L 480.525083 33.102387 
L 501.146828 33.985531 
" clip-path="url(#p7caca5cba3)" style="fill: none; stroke: #d97706; stroke-width: 2.5; stroke-linecap: square"/>
   </g>
   <g id="line2d_58">
    <path d="M 294.92938 163.074514 
L 315.551125 38.675042 
L 336.17287 37.551022 
L 356.794615 37.491834 
L 377.416359 38.866094 
L 398.038104 39.59174 
L 418.659849 40.819072 
L 439.281594 42.379431 
L 459.903339 43.979792 
L 480.525083 45.385172 
L 501.146828 46.744364 
" clip-path="url(#p7caca5cba3)" style="fill: none; stroke: #7c3aed; stroke-width: 2.2; stroke-linecap: square"/>
   </g>
   <g id="line2d_59">
    <path d="M 294.92938 157.272114 
L 315.551125 44.417988 
L 336.17287 38.159634 
L 356.794615 40.302601 
L 377.416359 43.226342 
L 398.038104 44.658536 
L 418.659849 46.246957 
L 439.281594 47.609177 
L 459.903339 49.229979 
L 480.525083 50.856615 
L 501.146828 52.562114 
" clip-path="url(#p7caca5cba3)" style="fill: none; stroke: #db2777; stroke-width: 2.2; stroke-linecap: square"/>
   </g>
   <g id="line2d_60">
    <path d="M 294.92938 163.423901 
L 315.551125 146.258534 
L 336.17287 152.52212 
L 356.794615 152.504271 
L 377.416359 148.827791 
L 398.038104 152.935089 
L 418.659849 157.060043 
L 439.281594 148.316113 
L 459.903339 153.149863 
L 480.525083 152.825179 
L 501.146828 148.356053 
" clip-path="url(#p7caca5cba3)" style="fill: none; stroke: #2f6bff; stroke-opacity: 0.28; stroke-width: 1.35; stroke-linecap: square"/>
   </g>
   <g id="line2d_61">
    <path d="M 294.92938 163.125418 
L 315.551125 149.157333 
L 336.17287 150.217664 
L 356.794615 148.546221 
L 377.416359 148.349461 
L 398.038104 148.610085 
L 418.659849 148.731432 
L 439.281594 148.94985 
L 459.903339 148.635888 
L 480.525083 148.541486 
L 501.146828 148.776518 
" clip-path="url(#p7caca5cba3)" style="fill: none; stroke: #169b62; stroke-opacity: 0.28; stroke-width: 1.35; stroke-linecap: square"/>
   </g>
   <g id="line2d_62">
    <path d="M 292.454771 131.972619 
L 503.621438 131.972619 
" clip-path="url(#p7caca5cba3)" style="fill: none; stroke-dasharray: 2.96,1.28; stroke-dashoffset: 0; stroke: #6b7280; stroke-opacity: 0.65; stroke-width: 0.8"/>
   </g>
   <g id="patch_6">
    <path d="M 292.454771 152.73 
L 292.454771 25.072105 
" style="fill: none; stroke: #1f2937; stroke-width: 0.8; stroke-linejoin: miter; stroke-linecap: square"/>
   </g>
   <g id="patch_7">
    <path d="M 292.454771 152.73 
L 503.621438 152.73 
" style="fill: none; stroke: #1f2937; stroke-width: 0.8; stroke-linejoin: miter; stroke-linecap: square"/>
   </g>
   <g id="text_11">
    <!-- B -->
    <g style="fill: #1f2937" transform="translate(265.003104 17.077969) scale(0.13 -0.13)">
     <defs>
      <path id="DejaVuSans-Bold-42" d="M 2456 2859 
Q 2741 2859 2887 2984 
Q 3034 3109 3034 3353 
Q 3034 3594 2887 3720 
Q 2741 3847 2456 3847 
L 1791 3847 
L 1791 2859 
L 2456 2859 
z
M 2497 819 
Q 2859 819 3042 972 
Q 3225 1125 3225 1434 
Q 3225 1738 3044 1889 
Q 2863 2041 2497 2041 
L 1791 2041 
L 1791 819 
L 2497 819 
z
M 3616 2497 
Q 4003 2384 4215 2081 
Q 4428 1778 4428 1338 
Q 4428 663 3972 331 
Q 3516 0 2584 0 
L 588 0 
L 588 4666 
L 2394 4666 
Q 3366 4666 3802 4372 
Q 4238 4078 4238 3431 
Q 4238 3091 4078 2852 
Q 3919 2613 3616 2497 
z
" transform="scale(0.015625)"/>
     </defs>
     <use xlink:href="#DejaVuSans-Bold-42"/>
    </g>
   </g>
   <g id="text_12">
    <!-- $N / B^D$ -->
    <g style="fill: #1f2937" transform="translate(385.747104 20.072105) scale(0.102 -0.102)">
     <defs>
      <path id="DejaVuSans-Oblique-4e" d="M 1081 4666 
L 1931 4666 
L 3219 666 
L 4000 4666 
L 4616 4666 
L 3706 0 
L 2853 0 
L 1569 4025 
L 788 0 
L 172 0 
L 1081 4666 
z
" transform="scale(0.015625)"/>
      <path id="DejaVuSans-2f" d="M 1625 4666 
L 2156 4666 
L 531 -594 
L 0 -594 
L 1625 4666 
z
" transform="scale(0.015625)"/>
     </defs>
     <use xlink:href="#DejaVuSans-Oblique-4e" transform="translate(0 0.684375)"/>
     <use xlink:href="#DejaVuSans-2f" transform="translate(74.804688 0.684375)"/>
     <use xlink:href="#DejaVuSans-Oblique-42" transform="translate(108.496094 0.684375)"/>
     <use xlink:href="#DejaVuSans-Oblique-44" transform="translate(184.11638 38.965625) scale(0.7)"/>
    </g>
   </g>
  </g>
  <g id="axes_3">
   <g id="patch_8">
    <path d="M 47.501438 316.132105 
L 258.668104 316.132105 
L 258.668104 188.474211 
L 47.501438 188.474211 
L 47.501438 316.132105 
z
" style="fill: none"/>
   </g>
   <g id="FillBetweenPolyCollection_11">
    <defs>
     <path id="m923726230a" d="M 49.976047 -132.252974 
L 49.976047 -128.271113 
L 70.597792 -184.945097 
L 91.219536 -173.317523 
L 111.841281 -190.918315 
L 132.463026 -190.490965 
L 153.084771 -190.525303 
L 173.706516 -189.777306 
L 194.32826 -190.212283 
L 214.950005 -190.484156 
L 235.57175 -189.686561 
L 256.193495 -188.311729 
L 256.193495 -191.369679 
L 256.193495 -191.369679 
L 235.57175 -192.136294 
L 214.950005 -192.824131 
L 194.32826 -193.235684 
L 173.706516 -192.437533 
L 153.084771 -193.022202 
L 132.463026 -192.831246 
L 111.841281 -192.269469 
L 91.219536 -191.152973 
L 70.597792 -194.190652 
L 49.976047 -132.252974 
z
"/>
    </defs>
    <g clip-path="url(#p17f45b6f05)">
     <use xlink:href="#m923726230a" x="0" y="387.172105" style="fill: #d97706; fill-opacity: 0.13"/>
    </g>
   </g>
   <g id="FillBetweenPolyCollection_12">
    <defs>
     <path id="m05b0c847d5" d="M 49.976047 -61.541085 
L 49.976047 -60.266076 
L 70.597792 -181.397239 
L 91.219536 -182.227658 
L 111.841281 -181.660236 
L 132.463026 -180.218086 
L 153.084771 -179.71382 
L 173.706516 -178.163119 
L 194.32826 -177.114961 
L 214.950005 -175.533825 
L 235.57175 -174.894556 
L 256.193495 -173.838047 
L 256.193495 -180.676751 
L 256.193495 -180.676751 
L 235.57175 -182.016805 
L 214.950005 -183.43455 
L 194.32826 -184.631778 
L 173.706516 -186.050572 
L 153.084771 -187.497083 
L 132.463026 -188.446936 
L 111.841281 -190.325957 
L 91.219536 -188.338524 
L 70.597792 -188.306605 
L 49.976047 -61.541085 
z
"/>
    </defs>
    <g clip-path="url(#p17f45b6f05)">
     <use xlink:href="#m05b0c847d5" x="0" y="387.172105" style="fill: #7c3aed; fill-opacity: 0.13"/>
    </g>
   </g>
   <g id="FillBetweenPolyCollection_13">
    <defs>
     <path id="mbaf913e120" d="M 49.976047 -68.732052 
L 49.976047 -65.183431 
L 70.597792 -173.009929 
L 91.219536 -183.673778 
L 111.841281 -180.285296 
L 132.463026 -177.326998 
L 153.084771 -176.087305 
L 173.706516 -174.597582 
L 194.32826 -173.912897 
L 214.950005 -172.768871 
L 235.57175 -171.097852 
L 256.193495 -169.545147 
L 256.193495 -173.805801 
L 256.193495 -173.805801 
L 235.57175 -175.761356 
L 214.950005 -176.921512 
L 194.32826 -178.843927 
L 173.706516 -180.219991 
L 153.084771 -181.730403 
L 132.463026 -182.752754 
L 111.841281 -185.849766 
L 91.219536 -186.925204 
L 70.597792 -184.319674 
L 49.976047 -68.732052 
z
"/>
    </defs>
    <g clip-path="url(#p17f45b6f05)">
     <use xlink:href="#mbaf913e120" x="0" y="387.172105" style="fill: #db2777; fill-opacity: 0.13"/>
    </g>
   </g>
   <g id="FillBetweenPolyCollection_14">
    <defs>
     <path id="maed0692f07" d="M 49.976047 -61.320972 
L 49.976047 -59.503297 
L 70.597792 -74.954486 
L 91.219536 -68.577523 
L 111.841281 -61.982393 
L 132.463026 -68.181366 
L 153.084771 -62.868442 
L 173.706516 -61.982393 
L 194.32826 -68.596227 
L 214.950005 -62.868442 
L 235.57175 -68.712664 
L 256.193495 -74.539637 
L 256.193495 -76.255943 
L 256.193495 -76.255943 
L 235.57175 -75.558492 
L 214.950005 -80.662213 
L 194.32826 -81.688343 
L 173.706516 -69.983459 
L 153.084771 -81.466493 
L 132.463026 -81.743679 
L 111.841281 -76.48787 
L 91.219536 -76.255943 
L 70.597792 -81.466491 
L 49.976047 -61.320972 
z
"/>
    </defs>
    <g clip-path="url(#p17f45b6f05)">
     <use xlink:href="#maed0692f07" x="0" y="387.172105" style="fill: #2f6bff; fill-opacity: 0.025"/>
    </g>
   </g>
   <g id="FillBetweenPolyCollection_15">
    <defs>
     <path id="ma8c06ce2be" d="M 49.976047 -61.274098 
L 49.976047 -60.247875 
L 70.597792 -72.804769 
L 91.219536 -71.391527 
L 111.841281 -73.79395 
L 132.463026 -74.299404 
L 153.084771 -73.683744 
L 173.706516 -73.355667 
L 194.32826 -72.202613 
L 214.950005 -73.341967 
L 235.57175 -73.282852 
L 256.193495 -73.351332 
L 256.193495 -76.725879 
L 256.193495 -76.725879 
L 235.57175 -77.565663 
L 214.950005 -77.490518 
L 194.32826 -77.425292 
L 173.706516 -77.013201 
L 153.084771 -76.955622 
L 132.463026 -77.38725 
L 111.841281 -77.758995 
L 91.219536 -76.231589 
L 70.597792 -76.81592 
L 49.976047 -61.274098 
z
"/>
    </defs>
    <g clip-path="url(#p17f45b6f05)">
     <use xlink:href="#ma8c06ce2be" x="0" y="387.172105" style="fill: #169b62; fill-opacity: 0.025"/>
    </g>
   </g>
   <g id="matplotlib.axis_5">
    <g id="xtick_23">
     <g id="line2d_63">
      <g>
       <use xlink:href="#mde7925be5e" x="49.976047" y="316.132105" style="fill: #1f2937; stroke: #1f2937; stroke-width: 0.8"/>
      </g>
     </g>
     <g id="text_13">
      <!-- input -->
      <g style="fill: #1f2937" transform="translate(39.172859 329.514793) scale(0.084 -0.084)">
       <defs>
        <path id="DejaVuSans-69" d="M 603 3500 
L 1178 3500 
L 1178 0 
L 603 0 
L 603 3500 
z
M 603 4863 
L 1178 4863 
L 1178 4134 
L 603 4134 
L 603 4863 
z
" transform="scale(0.015625)"/>
        <path id="DejaVuSans-6e" d="M 3513 2113 
L 3513 0 
L 2938 0 
L 2938 2094 
Q 2938 2591 2744 2837 
Q 2550 3084 2163 3084 
Q 1697 3084 1428 2787 
Q 1159 2491 1159 1978 
L 1159 0 
L 581 0 
L 581 3500 
L 1159 3500 
L 1159 2956 
Q 1366 3272 1645 3428 
Q 1925 3584 2291 3584 
Q 2894 3584 3203 3211 
Q 3513 2838 3513 2113 
z
" transform="scale(0.015625)"/>
        <path id="DejaVuSans-70" d="M 1159 525 
L 1159 -1331 
L 581 -1331 
L 581 3500 
L 1159 3500 
L 1159 2969 
Q 1341 3281 1617 3432 
Q 1894 3584 2278 3584 
Q 2916 3584 3314 3078 
Q 3713 2572 3713 1747 
Q 3713 922 3314 415 
Q 2916 -91 2278 -91 
Q 1894 -91 1617 61 
Q 1341 213 1159 525 
z
M 3116 1747 
Q 3116 2381 2855 2742 
Q 2594 3103 2138 3103 
Q 1681 3103 1420 2742 
Q 1159 2381 1159 1747 
Q 1159 1113 1420 752 
Q 1681 391 2138 391 
Q 2594 391 2855 752 
Q 3116 1113 3116 1747 
z
" transform="scale(0.015625)"/>
        <path id="DejaVuSans-75" d="M 544 1381 
L 544 3500 
L 1119 3500 
L 1119 1403 
Q 1119 906 1312 657 
Q 1506 409 1894 409 
Q 2359 409 2629 706 
Q 2900 1003 2900 1516 
L 2900 3500 
L 3475 3500 
L 3475 0 
L 2900 0 
L 2900 538 
Q 2691 219 2414 64 
Q 2138 -91 1772 -91 
Q 1169 -91 856 284 
Q 544 659 544 1381 
z
M 1991 3584 
L 1991 3584 
z
" transform="scale(0.015625)"/>
        <path id="DejaVuSans-74" d="M 1172 4494 
L 1172 3500 
L 2356 3500 
L 2356 3053 
L 1172 3053 
L 1172 1153 
Q 1172 725 1289 603 
Q 1406 481 1766 481 
L 2356 481 
L 2356 0 
L 1766 0 
Q 1100 0 847 248 
Q 594 497 594 1153 
L 594 3053 
L 172 3053 
L 172 3500 
L 594 3500 
L 594 4494 
L 1172 4494 
z
" transform="scale(0.015625)"/>
       </defs>
       <use xlink:href="#DejaVuSans-69"/>
       <use xlink:href="#DejaVuSans-6e" transform="translate(27.783203 0)"/>
       <use xlink:href="#DejaVuSans-70" transform="translate(91.162109 0)"/>
       <use xlink:href="#DejaVuSans-75" transform="translate(154.638672 0)"/>
       <use xlink:href="#DejaVuSans-74" transform="translate(218.017578 0)"/>
      </g>
     </g>
    </g>
    <g id="xtick_24">
     <g id="line2d_64">
      <g>
       <use xlink:href="#mde7925be5e" x="70.597792" y="316.132105" style="fill: #1f2937; stroke: #1f2937; stroke-width: 0.8"/>
      </g>
     </g>
     <g id="text_14">
      <!-- L0 -->
      <g style="fill: #1f2937" transform="translate(65.585354 329.514793) scale(0.084 -0.084)">
       <defs>
        <path id="DejaVuSans-4c" d="M 628 4666 
L 1259 4666 
L 1259 531 
L 3531 531 
L 3531 0 
L 628 0 
L 628 4666 
z
" transform="scale(0.015625)"/>
       </defs>
       <use xlink:href="#DejaVuSans-4c"/>
       <use xlink:href="#DejaVuSans-30" transform="translate(55.712891 0)"/>
      </g>
     </g>
    </g>
    <g id="xtick_25">
     <g id="line2d_65">
      <g>
       <use xlink:href="#mde7925be5e" x="91.219536" y="316.132105" style="fill: #1f2937; stroke: #1f2937; stroke-width: 0.8"/>
      </g>
     </g>
     <g id="text_15">
      <!-- L1 -->
      <g style="fill: #1f2937" transform="translate(86.207099 329.514793) scale(0.084 -0.084)">
       <use xlink:href="#DejaVuSans-4c"/>
       <use xlink:href="#DejaVuSans-31" transform="translate(55.712891 0)"/>
      </g>
     </g>
    </g>
    <g id="xtick_26">
     <g id="line2d_66">
      <g>
       <use xlink:href="#mde7925be5e" x="111.841281" y="316.132105" style="fill: #1f2937; stroke: #1f2937; stroke-width: 0.8"/>
      </g>
     </g>
     <g id="text_16">
      <!-- L2 -->
      <g style="fill: #1f2937" transform="translate(106.828844 329.514793) scale(0.084 -0.084)">
       <use xlink:href="#DejaVuSans-4c"/>
       <use xlink:href="#DejaVuSans-32" transform="translate(55.712891 0)"/>
      </g>
     </g>
    </g>
    <g id="xtick_27">
     <g id="line2d_67">
      <g>
       <use xlink:href="#mde7925be5e" x="132.463026" y="316.132105" style="fill: #1f2937; stroke: #1f2937; stroke-width: 0.8"/>
      </g>
     </g>
     <g id="text_17">
      <!-- L3 -->
      <g style="fill: #1f2937" transform="translate(127.450589 329.514793) scale(0.084 -0.084)">
       <defs>
        <path id="DejaVuSans-33" d="M 2597 2516 
Q 3050 2419 3304 2112 
Q 3559 1806 3559 1356 
Q 3559 666 3084 287 
Q 2609 -91 1734 -91 
Q 1441 -91 1130 -33 
Q 819 25 488 141 
L 488 750 
Q 750 597 1062 519 
Q 1375 441 1716 441 
Q 2309 441 2620 675 
Q 2931 909 2931 1356 
Q 2931 1769 2642 2001 
Q 2353 2234 1838 2234 
L 1294 2234 
L 1294 2753 
L 1863 2753 
Q 2328 2753 2575 2939 
Q 2822 3125 2822 3475 
Q 2822 3834 2567 4026 
Q 2313 4219 1838 4219 
Q 1578 4219 1281 4162 
Q 984 4106 628 3988 
L 628 4550 
Q 988 4650 1302 4700 
Q 1616 4750 1894 4750 
Q 2613 4750 3031 4423 
Q 3450 4097 3450 3541 
Q 3450 3153 3228 2886 
Q 3006 2619 2597 2516 
z
" transform="scale(0.015625)"/>
       </defs>
       <use xlink:href="#DejaVuSans-4c"/>
       <use xlink:href="#DejaVuSans-33" transform="translate(55.712891 0)"/>
      </g>
     </g>
    </g>
    <g id="xtick_28">
     <g id="line2d_68">
      <g>
       <use xlink:href="#mde7925be5e" x="153.084771" y="316.132105" style="fill: #1f2937; stroke: #1f2937; stroke-width: 0.8"/>
      </g>
     </g>
     <g id="text_18">
      <!-- L4 -->
      <g style="fill: #1f2937" transform="translate(148.072333 329.514793) scale(0.084 -0.084)">
       <use xlink:href="#DejaVuSans-4c"/>
       <use xlink:href="#DejaVuSans-34" transform="translate(55.712891 0)"/>
      </g>
     </g>
    </g>
    <g id="xtick_29">
     <g id="line2d_69">
      <g>
       <use xlink:href="#mde7925be5e" x="173.706516" y="316.132105" style="fill: #1f2937; stroke: #1f2937; stroke-width: 0.8"/>
      </g>
     </g>
     <g id="text_19">
      <!-- L5 -->
      <g style="fill: #1f2937" transform="translate(168.694078 329.514793) scale(0.084 -0.084)">
       <use xlink:href="#DejaVuSans-4c"/>
       <use xlink:href="#DejaVuSans-35" transform="translate(55.712891 0)"/>
      </g>
     </g>
    </g>
    <g id="xtick_30">
     <g id="line2d_70">
      <g>
       <use xlink:href="#mde7925be5e" x="194.32826" y="316.132105" style="fill: #1f2937; stroke: #1f2937; stroke-width: 0.8"/>
      </g>
     </g>
     <g id="text_20">
      <!-- L6 -->
      <g style="fill: #1f2937" transform="translate(189.315823 329.514793) scale(0.084 -0.084)">
       <use xlink:href="#DejaVuSans-4c"/>
       <use xlink:href="#DejaVuSans-36" transform="translate(55.712891 0)"/>
      </g>
     </g>
    </g>
    <g id="xtick_31">
     <g id="line2d_71">
      <g>
       <use xlink:href="#mde7925be5e" x="214.950005" y="316.132105" style="fill: #1f2937; stroke: #1f2937; stroke-width: 0.8"/>
      </g>
     </g>
     <g id="text_21">
      <!-- L7 -->
      <g style="fill: #1f2937" transform="translate(209.937568 329.514793) scale(0.084 -0.084)">
       <defs>
        <path id="DejaVuSans-37" d="M 525 4666 
L 3525 4666 
L 3525 4397 
L 1831 0 
L 1172 0 
L 2766 4134 
L 525 4134 
L 525 4666 
z
" transform="scale(0.015625)"/>
       </defs>
       <use xlink:href="#DejaVuSans-4c"/>
       <use xlink:href="#DejaVuSans-37" transform="translate(55.712891 0)"/>
      </g>
     </g>
    </g>
    <g id="xtick_32">
     <g id="line2d_72">
      <g>
       <use xlink:href="#mde7925be5e" x="235.57175" y="316.132105" style="fill: #1f2937; stroke: #1f2937; stroke-width: 0.8"/>
      </g>
     </g>
     <g id="text_22">
      <!-- L8 -->
      <g style="fill: #1f2937" transform="translate(230.559312 329.514793) scale(0.084 -0.084)">
       <use xlink:href="#DejaVuSans-4c"/>
       <use xlink:href="#DejaVuSans-38" transform="translate(55.712891 0)"/>
      </g>
     </g>
    </g>
    <g id="xtick_33">
     <g id="line2d_73">
      <g>
       <use xlink:href="#mde7925be5e" x="256.193495" y="316.132105" style="fill: #1f2937; stroke: #1f2937; stroke-width: 0.8"/>
      </g>
     </g>
     <g id="text_23">
      <!-- L9 -->
      <g style="fill: #1f2937" transform="translate(251.181057 329.514793) scale(0.084 -0.084)">
       <defs>
        <path id="DejaVuSans-39" d="M 703 97 
L 703 672 
Q 941 559 1184 500 
Q 1428 441 1663 441 
Q 2288 441 2617 861 
Q 2947 1281 2994 2138 
Q 2813 1869 2534 1725 
Q 2256 1581 1919 1581 
Q 1219 1581 811 2004 
Q 403 2428 403 3163 
Q 403 3881 828 4315 
Q 1253 4750 1959 4750 
Q 2769 4750 3195 4129 
Q 3622 3509 3622 2328 
Q 3622 1225 3098 567 
Q 2575 -91 1691 -91 
Q 1453 -91 1209 -44 
Q 966 3 703 97 
z
M 1959 2075 
Q 2384 2075 2632 2365 
Q 2881 2656 2881 3163 
Q 2881 3666 2632 3958 
Q 2384 4250 1959 4250 
Q 1534 4250 1286 3958 
Q 1038 3666 1038 3163 
Q 1038 2656 1286 2365 
Q 1534 2075 1959 2075 
z
" transform="scale(0.015625)"/>
       </defs>
       <use xlink:href="#DejaVuSans-4c"/>
       <use xlink:href="#DejaVuSans-39" transform="translate(55.712891 0)"/>
      </g>
     </g>
    </g>
    <g id="text_24">
     <!-- Representation -->
     <g style="fill: #1f2937" transform="translate(118.151365 342.252293) scale(0.092 -0.092)">
      <defs>
       <path id="DejaVuSans-52" d="M 2841 2188 
Q 3044 2119 3236 1894 
Q 3428 1669 3622 1275 
L 4263 0 
L 3584 0 
L 2988 1197 
Q 2756 1666 2539 1819 
Q 2322 1972 1947 1972 
L 1259 1972 
L 1259 0 
L 628 0 
L 628 4666 
L 2053 4666 
Q 2853 4666 3247 4331 
Q 3641 3997 3641 3322 
Q 3641 2881 3436 2590 
Q 3231 2300 2841 2188 
z
M 1259 4147 
L 1259 2491 
L 2053 2491 
Q 2509 2491 2742 2702 
Q 2975 2913 2975 3322 
Q 2975 3731 2742 3939 
Q 2509 4147 2053 4147 
L 1259 4147 
z
" transform="scale(0.015625)"/>
       <path id="DejaVuSans-65" d="M 3597 1894 
L 3597 1613 
L 953 1613 
Q 991 1019 1311 708 
Q 1631 397 2203 397 
Q 2534 397 2845 478 
Q 3156 559 3463 722 
L 3463 178 
Q 3153 47 2828 -22 
Q 2503 -91 2169 -91 
Q 1331 -91 842 396 
Q 353 884 353 1716 
Q 353 2575 817 3079 
Q 1281 3584 2069 3584 
Q 2775 3584 3186 3129 
Q 3597 2675 3597 1894 
z
M 3022 2063 
Q 3016 2534 2758 2815 
Q 2500 3097 2075 3097 
Q 1594 3097 1305 2825 
Q 1016 2553 972 2059 
L 3022 2063 
z
" transform="scale(0.015625)"/>
       <path id="DejaVuSans-72" d="M 2631 2963 
Q 2534 3019 2420 3045 
Q 2306 3072 2169 3072 
Q 1681 3072 1420 2755 
Q 1159 2438 1159 1844 
L 1159 0 
L 581 0 
L 581 3500 
L 1159 3500 
L 1159 2956 
Q 1341 3275 1631 3429 
Q 1922 3584 2338 3584 
Q 2397 3584 2469 3576 
Q 2541 3569 2628 3553 
L 2631 2963 
z
" transform="scale(0.015625)"/>
       <path id="DejaVuSans-73" d="M 2834 3397 
L 2834 2853 
Q 2591 2978 2328 3040 
Q 2066 3103 1784 3103 
Q 1356 3103 1142 2972 
Q 928 2841 928 2578 
Q 928 2378 1081 2264 
Q 1234 2150 1697 2047 
L 1894 2003 
Q 2506 1872 2764 1633 
Q 3022 1394 3022 966 
Q 3022 478 2636 193 
Q 2250 -91 1575 -91 
Q 1294 -91 989 -36 
Q 684 19 347 128 
L 347 722 
Q 666 556 975 473 
Q 1284 391 1588 391 
Q 1994 391 2212 530 
Q 2431 669 2431 922 
Q 2431 1156 2273 1281 
Q 2116 1406 1581 1522 
L 1381 1569 
Q 847 1681 609 1914 
Q 372 2147 372 2553 
Q 372 3047 722 3315 
Q 1072 3584 1716 3584 
Q 2034 3584 2315 3537 
Q 2597 3491 2834 3397 
z
" transform="scale(0.015625)"/>
       <path id="DejaVuSans-61" d="M 2194 1759 
Q 1497 1759 1228 1600 
Q 959 1441 959 1056 
Q 959 750 1161 570 
Q 1363 391 1709 391 
Q 2188 391 2477 730 
Q 2766 1069 2766 1631 
L 2766 1759 
L 2194 1759 
z
M 3341 1997 
L 3341 0 
L 2766 0 
L 2766 531 
Q 2569 213 2275 61 
Q 1981 -91 1556 -91 
Q 1019 -91 701 211 
Q 384 513 384 1019 
Q 384 1609 779 1909 
Q 1175 2209 1959 2209 
L 2766 2209 
L 2766 2266 
Q 2766 2663 2505 2880 
Q 2244 3097 1772 3097 
Q 1472 3097 1187 3025 
Q 903 2953 641 2809 
L 641 3341 
Q 956 3463 1253 3523 
Q 1550 3584 1831 3584 
Q 2591 3584 2966 3190 
Q 3341 2797 3341 1997 
z
" transform="scale(0.015625)"/>
      </defs>
      <use xlink:href="#DejaVuSans-52"/>
      <use xlink:href="#DejaVuSans-65" transform="translate(64.982422 0)"/>
      <use xlink:href="#DejaVuSans-70" transform="translate(126.505859 0)"/>
      <use xlink:href="#DejaVuSans-72" transform="translate(189.982422 0)"/>
      <use xlink:href="#DejaVuSans-65" transform="translate(228.845703 0)"/>
      <use xlink:href="#DejaVuSans-73" transform="translate(290.369141 0)"/>
      <use xlink:href="#DejaVuSans-65" transform="translate(342.46875 0)"/>
      <use xlink:href="#DejaVuSans-6e" transform="translate(403.992188 0)"/>
      <use xlink:href="#DejaVuSans-74" transform="translate(467.371094 0)"/>
      <use xlink:href="#DejaVuSans-61" transform="translate(506.580078 0)"/>
      <use xlink:href="#DejaVuSans-74" transform="translate(567.859375 0)"/>
      <use xlink:href="#DejaVuSans-69" transform="translate(607.068359 0)"/>
      <use xlink:href="#DejaVuSans-6f" transform="translate(634.851562 0)"/>
      <use xlink:href="#DejaVuSans-6e" transform="translate(696.033203 0)"/>
     </g>
    </g>
   </g>
   <g id="matplotlib.axis_6">
    <g id="ytick_15">
     <g id="line2d_74">
      <path d="M 47.501438 316.132105 
L 258.668104 316.132105 
" clip-path="url(#p17f45b6f05)" style="fill: none; stroke: #d1d5db; stroke-opacity: 0.55; stroke-width: 0.7; stroke-linecap: square"/>
     </g>
     <g id="line2d_75">
      <g>
       <use xlink:href="#m2152fbca68" x="47.501438" y="316.132105" style="fill: #1f2937; stroke: #1f2937; stroke-width: 0.8"/>
      </g>
     </g>
     <g id="text_25">
      <!-- −0.2 -->
      <g style="fill: #1f2937" transform="translate(20.103875 319.323449) scale(0.084 -0.084)">
       <use xlink:href="#DejaVuSans-2212"/>
       <use xlink:href="#DejaVuSans-30" transform="translate(83.789062 0)"/>
       <use xlink:href="#DejaVuSans-2e" transform="translate(147.412109 0)"/>
       <use xlink:href="#DejaVuSans-32" transform="translate(179.199219 0)"/>
      </g>
     </g>
    </g>
    <g id="ytick_16">
     <g id="line2d_76">
      <path d="M 47.501438 295.374724 
L 258.668104 295.374724 
" clip-path="url(#p17f45b6f05)" style="fill: none; stroke: #d1d5db; stroke-opacity: 0.55; stroke-width: 0.7; stroke-linecap: square"/>
     </g>
     <g id="line2d_77">
      <g>
       <use xlink:href="#m2152fbca68" x="47.501438" y="295.374724" style="fill: #1f2937; stroke: #1f2937; stroke-width: 0.8"/>
      </g>
     </g>
     <g id="text_26">
      <!-- 0.0 -->
      <g style="fill: #1f2937" transform="translate(27.142813 298.566068) scale(0.084 -0.084)">
       <use xlink:href="#DejaVuSans-30"/>
       <use xlink:href="#DejaVuSans-2e" transform="translate(63.623047 0)"/>
       <use xlink:href="#DejaVuSans-30" transform="translate(95.410156 0)"/>
      </g>
     </g>
    </g>
    <g id="ytick_17">
     <g id="line2d_78">
      <path d="M 47.501438 274.617343 
L 258.668104 274.617343 
" clip-path="url(#p17f45b6f05)" style="fill: none; stroke: #d1d5db; stroke-opacity: 0.55; stroke-width: 0.7; stroke-linecap: square"/>
     </g>
     <g id="line2d_79">
      <g>
       <use xlink:href="#m2152fbca68" x="47.501438" y="274.617343" style="fill: #1f2937; stroke: #1f2937; stroke-width: 0.8"/>
      </g>
     </g>
     <g id="text_27">
      <!-- 0.2 -->
      <g style="fill: #1f2937" transform="translate(27.142813 277.808686) scale(0.084 -0.084)">
       <use xlink:href="#DejaVuSans-30"/>
       <use xlink:href="#DejaVuSans-2e" transform="translate(63.623047 0)"/>
       <use xlink:href="#DejaVuSans-32" transform="translate(95.410156 0)"/>
      </g>
     </g>
    </g>
    <g id="ytick_18">
     <g id="line2d_80">
      <path d="M 47.501438 253.859961 
L 258.668104 253.859961 
" clip-path="url(#p17f45b6f05)" style="fill: none; stroke: #d1d5db; stroke-opacity: 0.55; stroke-width: 0.7; stroke-linecap: square"/>
     </g>
     <g id="line2d_81">
      <g>
       <use xlink:href="#m2152fbca68" x="47.501438" y="253.859961" style="fill: #1f2937; stroke: #1f2937; stroke-width: 0.8"/>
      </g>
     </g>
     <g id="text_28">
      <!-- 0.4 -->
      <g style="fill: #1f2937" transform="translate(27.142813 257.051305) scale(0.084 -0.084)">
       <use xlink:href="#DejaVuSans-30"/>
       <use xlink:href="#DejaVuSans-2e" transform="translate(63.623047 0)"/>
       <use xlink:href="#DejaVuSans-34" transform="translate(95.410156 0)"/>
      </g>
     </g>
    </g>
    <g id="ytick_19">
     <g id="line2d_82">
      <path d="M 47.501438 233.10258 
L 258.668104 233.10258 
" clip-path="url(#p17f45b6f05)" style="fill: none; stroke: #d1d5db; stroke-opacity: 0.55; stroke-width: 0.7; stroke-linecap: square"/>
     </g>
     <g id="line2d_83">
      <g>
       <use xlink:href="#m2152fbca68" x="47.501438" y="233.10258" style="fill: #1f2937; stroke: #1f2937; stroke-width: 0.8"/>
      </g>
     </g>
     <g id="text_29">
      <!-- 0.6 -->
      <g style="fill: #1f2937" transform="translate(27.142813 236.293924) scale(0.084 -0.084)">
       <use xlink:href="#DejaVuSans-30"/>
       <use xlink:href="#DejaVuSans-2e" transform="translate(63.623047 0)"/>
       <use xlink:href="#DejaVuSans-36" transform="translate(95.410156 0)"/>
      </g>
     </g>
    </g>
    <g id="ytick_20">
     <g id="line2d_84">
      <path d="M 47.501438 212.345199 
L 258.668104 212.345199 
" clip-path="url(#p17f45b6f05)" style="fill: none; stroke: #d1d5db; stroke-opacity: 0.55; stroke-width: 0.7; stroke-linecap: square"/>
     </g>
     <g id="line2d_85">
      <g>
       <use xlink:href="#m2152fbca68" x="47.501438" y="212.345199" style="fill: #1f2937; stroke: #1f2937; stroke-width: 0.8"/>
      </g>
     </g>
     <g id="text_30">
      <!-- 0.8 -->
      <g style="fill: #1f2937" transform="translate(27.142813 215.536543) scale(0.084 -0.084)">
       <use xlink:href="#DejaVuSans-30"/>
       <use xlink:href="#DejaVuSans-2e" transform="translate(63.623047 0)"/>
       <use xlink:href="#DejaVuSans-38" transform="translate(95.410156 0)"/>
      </g>
     </g>
    </g>
    <g id="ytick_21">
     <g id="line2d_86">
      <path d="M 47.501438 191.587818 
L 258.668104 191.587818 
" clip-path="url(#p17f45b6f05)" style="fill: none; stroke: #d1d5db; stroke-opacity: 0.55; stroke-width: 0.7; stroke-linecap: square"/>
     </g>
     <g id="line2d_87">
      <g>
       <use xlink:href="#m2152fbca68" x="47.501438" y="191.587818" style="fill: #1f2937; stroke: #1f2937; stroke-width: 0.8"/>
      </g>
     </g>
     <g id="text_31">
      <!-- 1.0 -->
      <g style="fill: #1f2937" transform="translate(27.142813 194.779161) scale(0.084 -0.084)">
       <use xlink:href="#DejaVuSans-31"/>
       <use xlink:href="#DejaVuSans-2e" transform="translate(63.623047 0)"/>
       <use xlink:href="#DejaVuSans-30" transform="translate(95.410156 0)"/>
      </g>
     </g>
    </g>
    <g id="text_32">
     <!-- 5-fold CV $R^2$ -->
     <g style="fill: #1f2937" transform="translate(14.190562 280.501158) rotate(-90) scale(0.092 -0.092)">
      <use xlink:href="#DejaVuSans-35" transform="translate(0 0.765625)"/>
      <use xlink:href="#DejaVuSans-2d" transform="translate(63.623047 0.765625)"/>
      <use xlink:href="#DejaVuSans-66" transform="translate(99.707031 0.765625)"/>
      <use xlink:href="#DejaVuSans-6f" transform="translate(134.912109 0.765625)"/>
      <use xlink:href="#DejaVuSans-6c" transform="translate(196.09375 0.765625)"/>
      <use xlink:href="#DejaVuSans-64" transform="translate(223.876953 0.765625)"/>
      <use xlink:href="#DejaVuSans-20" transform="translate(287.353516 0.765625)"/>
      <use xlink:href="#DejaVuSans-43" transform="translate(319.140625 0.765625)"/>
      <use xlink:href="#DejaVuSans-56" transform="translate(388.964844 0.765625)"/>
      <use xlink:href="#DejaVuSans-20" transform="translate(457.373047 0.765625)"/>
      <use xlink:href="#DejaVuSans-Oblique-52" transform="translate(489.160156 0.765625)"/>
      <use xlink:href="#DejaVuSans-32" transform="translate(565.659349 39.046875) scale(0.7)"/>
     </g>
    </g>
   </g>
   <g id="line2d_88">
    <path d="M 49.976047 256.949104 
L 70.597792 197.01613 
L 91.219536 204.814902 
L 111.841281 195.731084 
L 132.463026 195.838872 
L 153.084771 195.75983 
L 173.706516 196.369328 
L 194.32826 195.754925 
L 214.950005 195.891745 
L 235.57175 196.499906 
L 256.193495 197.381664 
" clip-path="url(#p17f45b6f05)" style="fill: none; stroke: #d97706; stroke-width: 2.5; stroke-linecap: square"/>
   </g>
   <g id="line2d_89">
    <path d="M 49.976047 326.296747 
L 70.597792 202.0676 
L 91.219536 200.943879 
L 111.841281 200.885445 
L 132.463026 202.259712 
L 153.084771 202.983835 
L 173.706516 204.210166 
L 194.32826 205.769253 
L 214.950005 207.367353 
L 235.57175 208.771676 
L 256.193495 210.129689 
" clip-path="url(#p17f45b6f05)" style="fill: none; stroke: #7c3aed; stroke-width: 2.2; stroke-linecap: square"/>
   </g>
   <g id="line2d_90">
    <path d="M 49.976047 320.49369 
L 70.597792 207.807788 
L 91.219536 201.551608 
L 111.841281 203.69302 
L 132.463026 206.614688 
L 153.084771 208.044026 
L 173.706516 209.631189 
L 194.32826 210.991169 
L 214.950005 212.609986 
L 235.57175 214.236784 
L 256.193495 215.941566 
" clip-path="url(#p17f45b6f05)" style="fill: none; stroke: #db2777; stroke-width: 2.2; stroke-linecap: square"/>
   </g>
   <g id="line2d_91">
    <path d="M 49.976047 326.646595 
L 70.597792 309.61313 
L 91.219536 315.840418 
L 111.841281 315.821865 
L 132.463026 312.166422 
L 153.084771 316.253769 
L 173.706516 320.353216 
L 194.32826 311.658601 
L 214.950005 316.469379 
L 235.57175 316.142976 
L 256.193495 311.698635 
" clip-path="url(#p17f45b6f05)" style="fill: none; stroke: #2f6bff; stroke-opacity: 0.28; stroke-width: 1.35; stroke-linecap: square"/>
   </g>
   <g id="line2d_92">
    <path d="M 49.976047 326.346787 
L 70.597792 312.575289 
L 91.219536 313.632927 
L 111.841281 311.962661 
L 132.463026 311.766647 
L 153.084771 312.0272 
L 173.706516 312.148697 
L 194.32826 312.367386 
L 214.950005 312.052876 
L 235.57175 311.958178 
L 256.193495 312.193067 
" clip-path="url(#p17f45b6f05)" style="fill: none; stroke: #169b62; stroke-opacity: 0.28; stroke-width: 1.35; stroke-linecap: square"/>
   </g>
   <g id="line2d_93">
    <path d="M 47.501438 295.374724 
L 258.668104 295.374724 
" clip-path="url(#p17f45b6f05)" style="fill: none; stroke-dasharray: 2.96,1.28; stroke-dashoffset: 0; stroke: #6b7280; stroke-opacity: 0.65; stroke-width: 0.8"/>
   </g>
   <g id="patch_9">
    <path d="M 47.501438 316.132105 
L 47.501438 188.474211 
" style="fill: none; stroke: #1f2937; stroke-width: 0.8; stroke-linejoin: miter; stroke-linecap: square"/>
   </g>
   <g id="patch_10">
    <path d="M 47.501438 316.132105 
L 258.668104 316.132105 
" style="fill: none; stroke: #1f2937; stroke-width: 0.8; stroke-linejoin: miter; stroke-linecap: square"/>
   </g>
   <g id="text_33">
    <!-- C -->
    <g style="fill: #1f2937" transform="translate(20.049771 180.480074) scale(0.13 -0.13)">
     <defs>
      <path id="DejaVuSans-Bold-43" d="M 4288 256 
Q 3956 84 3597 -3 
Q 3238 -91 2847 -91 
Q 1681 -91 1000 561 
Q 319 1213 319 2328 
Q 319 3447 1000 4098 
Q 1681 4750 2847 4750 
Q 3238 4750 3597 4662 
Q 3956 4575 4288 4403 
L 4288 3438 
Q 3953 3666 3628 3772 
Q 3303 3878 2944 3878 
Q 2300 3878 1931 3465 
Q 1563 3053 1563 2328 
Q 1563 1606 1931 1193 
Q 2300 781 2944 781 
Q 3303 781 3628 887 
Q 3953 994 4288 1222 
L 4288 256 
z
" transform="scale(0.015625)"/>
     </defs>
     <use xlink:href="#DejaVuSans-Bold-43"/>
    </g>
   </g>
   <g id="text_34">
    <!-- $\lfloor N / B^D \rfloor$ -->
    <g style="fill: #1f2937" transform="translate(136.815771 183.474211) scale(0.102 -0.102)">
     <defs>
      <path id="DejaVuSans-230a" d="M 550 -844 
L 550 4863 
L 1125 4863 
L 1125 -397 
L 1875 -397 
L 1875 -844 
L 550 -844 
z
" transform="scale(0.015625)"/>
      <path id="DejaVuSans-230b" d="M 1947 -844 
L 622 -844 
L 622 -397 
L 1372 -397 
L 1372 4863 
L 1947 4863 
L 1947 -844 
z
" transform="scale(0.015625)"/>
     </defs>
     <use xlink:href="#DejaVuSans-230a" transform="translate(0 0.684375)"/>
     <use xlink:href="#DejaVuSans-Oblique-4e" transform="translate(39.013672 0.684375)"/>
     <use xlink:href="#DejaVuSans-2f" transform="translate(113.818359 0.684375)"/>
     <use xlink:href="#DejaVuSans-Oblique-42" transform="translate(147.509766 0.684375)"/>
     <use xlink:href="#DejaVuSans-Oblique-44" transform="translate(223.130052 38.965625) scale(0.7)"/>
     <use xlink:href="#DejaVuSans-230b" transform="translate(279.765794 0.684375)"/>
    </g>
   </g>
  </g>
  <g id="axes_4">
   <g id="patch_11">
    <path d="M 292.454771 316.132105 
L 503.621438 316.132105 
L 503.621438 188.474211 
L 292.454771 188.474211 
L 292.454771 316.132105 
z
" style="fill: none"/>
   </g>
   <g id="FillBetweenPolyCollection_16">
    <defs>
     <path id="m2053f59352" d="M 294.92938 -76.210665 
L 294.92938 -63.454254 
L 315.551125 -148.964689 
L 336.17287 -148.984249 
L 356.794615 -148.410535 
L 377.416359 -148.123228 
L 398.038104 -148.944494 
L 418.659849 -148.514316 
L 439.281594 -147.59738 
L 459.903339 -147.778617 
L 480.525083 -147.188074 
L 501.146828 -147.373752 
L 501.146828 -149.305972 
L 501.146828 -149.305972 
L 480.525083 -148.941761 
L 459.903339 -148.950562 
L 439.281594 -149.815231 
L 418.659849 -150.154546 
L 398.038104 -150.589582 
L 377.416359 -151.457379 
L 356.794615 -152.090901 
L 336.17287 -151.26328 
L 315.551125 -151.118569 
L 294.92938 -76.210665 
z
"/>
    </defs>
    <g clip-path="url(#p637b66f8a4)">
     <use xlink:href="#m2053f59352" x="0" y="387.172105" style="fill: #d97706; fill-opacity: 0.13"/>
    </g>
   </g>
   <g id="FillBetweenPolyCollection_17">
    <defs>
     <path id="m594c98e627" d="M 294.92938 -49.241346 
L 294.92938 -25.597842 
L 315.551125 -141.963339 
L 336.17287 -145.380382 
L 356.794615 -146.984542 
L 377.416359 -148.920401 
L 398.038104 -151.762621 
L 418.659849 -155.981768 
L 439.281594 -162.740877 
L 459.903339 -170.065016 
L 480.525083 -181.209933 
L 501.146828 -185.431286 
L 501.146828 -188.052116 
L 501.146828 -188.052116 
L 480.525083 -183.593465 
L 459.903339 -170.89806 
L 439.281594 -164.001135 
L 418.659849 -158.407238 
L 398.038104 -155.046871 
L 377.416359 -153.447972 
L 356.794615 -154.034477 
L 336.17287 -151.511195 
L 315.551125 -148.005157 
L 294.92938 -49.241346 
z
"/>
    </defs>
    <g clip-path="url(#p637b66f8a4)">
     <use xlink:href="#m594c98e627" x="0" y="387.172105" style="fill: #7c3aed; fill-opacity: 0.13"/>
    </g>
   </g>
   <g id="FillBetweenPolyCollection_18">
    <defs>
     <path id="m551744f34d" d="M 294.92938 -130.807632 
L 294.92938 -110.485376 
L 315.551125 -178.603856 
L 336.17287 -182.680838 
L 356.794615 -182.556239 
L 377.416359 -182.722619 
L 398.038104 -182.992913 
L 418.659849 -182.630168 
L 439.281594 -183.166221 
L 459.903339 -185.041518 
L 480.525083 -185.788016 
L 501.146828 -188.428499 
L 501.146828 -190.045559 
L 501.146828 -190.045559 
L 480.525083 -187.382309 
L 459.903339 -186.101278 
L 439.281594 -184.656063 
L 418.659849 -183.690482 
L 398.038104 -183.85535 
L 377.416359 -183.821593 
L 356.794615 -183.996576 
L 336.17287 -183.822825 
L 315.551125 -181.789361 
L 294.92938 -130.807632 
z
"/>
    </defs>
    <g clip-path="url(#p637b66f8a4)">
     <use xlink:href="#m551744f34d" x="0" y="387.172105" style="fill: #db2777; fill-opacity: 0.13"/>
    </g>
   </g>
   <g id="FillBetweenPolyCollection_19">
    <defs>
     <path id="m321d45f688" d="M 294.92938 -49.120779 
L 294.92938 -25.103971 
L 315.551125 -53.820021 
L 336.17287 -47.670913 
L 356.794615 -48.925521 
L 377.416359 -56.461061 
L 398.038104 -27.002683 
L 418.659849 -41.973742 
L 439.281594 -53.82001 
L 459.903339 -27.002683 
L 480.525083 -45.829655 
L 501.146828 -53.82001 
L 501.146828 -65.116315 
L 501.146828 -65.116315 
L 480.525083 -58.139816 
L 459.903339 -69.79247 
L 439.281594 -70.402116 
L 418.659849 -48.925521 
L 398.038104 -70.972228 
L 377.416359 -66.17279 
L 356.794615 -58.931815 
L 336.17287 -57.155876 
L 315.551125 -70.972226 
L 294.92938 -49.120779 
z
"/>
    </defs>
    <g clip-path="url(#p637b66f8a4)">
     <use xlink:href="#m321d45f688" x="0" y="387.172105" style="fill: #2f6bff; fill-opacity: 0.025"/>
    </g>
   </g>
   <g id="FillBetweenPolyCollection_20">
    <defs>
     <path id="mad41897703" d="M 294.92938 -62.042081 
L 294.92938 -33.904094 
L 315.551125 -88.030227 
L 336.17287 -86.217478 
L 356.794615 -88.859454 
L 377.416359 -87.191796 
L 398.038104 -87.067011 
L 418.659849 -88.016547 
L 439.281594 -87.178487 
L 459.903339 -86.27732 
L 480.525083 -86.865441 
L 501.146828 -86.52268 
L 501.146828 -104.905824 
L 501.146828 -104.905824 
L 480.525083 -105.743836 
L 459.903339 -105.153208 
L 439.281594 -104.341691 
L 418.659849 -104.031519 
L 398.038104 -104.362144 
L 377.416359 -104.916456 
L 356.794615 -103.174812 
L 336.17287 -101.981316 
L 315.551125 -101.826568 
L 294.92938 -62.042081 
z
"/>
    </defs>
    <g clip-path="url(#p637b66f8a4)">
     <use xlink:href="#mad41897703" x="0" y="387.172105" style="fill: #169b62; fill-opacity: 0.025"/>
    </g>
   </g>
   <g id="matplotlib.axis_7">
    <g id="xtick_34">
     <g id="line2d_94">
      <g>
       <use xlink:href="#mde7925be5e" x="294.92938" y="316.132105" style="fill: #1f2937; stroke: #1f2937; stroke-width: 0.8"/>
      </g>
     </g>
     <g id="text_35">
      <!-- input -->
      <g style="fill: #1f2937" transform="translate(284.126193 329.514793) scale(0.084 -0.084)">
       <use xlink:href="#DejaVuSans-69"/>
       <use xlink:href="#DejaVuSans-6e" transform="translate(27.783203 0)"/>
       <use xlink:href="#DejaVuSans-70" transform="translate(91.162109 0)"/>
       <use xlink:href="#DejaVuSans-75" transform="translate(154.638672 0)"/>
       <use xlink:href="#DejaVuSans-74" transform="translate(218.017578 0)"/>
      </g>
     </g>
    </g>
    <g id="xtick_35">
     <g id="line2d_95">
      <g>
       <use xlink:href="#mde7925be5e" x="315.551125" y="316.132105" style="fill: #1f2937; stroke: #1f2937; stroke-width: 0.8"/>
      </g>
     </g>
     <g id="text_36">
      <!-- L0 -->
      <g style="fill: #1f2937" transform="translate(310.538688 329.514793) scale(0.084 -0.084)">
       <use xlink:href="#DejaVuSans-4c"/>
       <use xlink:href="#DejaVuSans-30" transform="translate(55.712891 0)"/>
      </g>
     </g>
    </g>
    <g id="xtick_36">
     <g id="line2d_96">
      <g>
       <use xlink:href="#mde7925be5e" x="336.17287" y="316.132105" style="fill: #1f2937; stroke: #1f2937; stroke-width: 0.8"/>
      </g>
     </g>
     <g id="text_37">
      <!-- L1 -->
      <g style="fill: #1f2937" transform="translate(331.160432 329.514793) scale(0.084 -0.084)">
       <use xlink:href="#DejaVuSans-4c"/>
       <use xlink:href="#DejaVuSans-31" transform="translate(55.712891 0)"/>
      </g>
     </g>
    </g>
    <g id="xtick_37">
     <g id="line2d_97">
      <g>
       <use xlink:href="#mde7925be5e" x="356.794615" y="316.132105" style="fill: #1f2937; stroke: #1f2937; stroke-width: 0.8"/>
      </g>
     </g>
     <g id="text_38">
      <!-- L2 -->
      <g style="fill: #1f2937" transform="translate(351.782177 329.514793) scale(0.084 -0.084)">
       <use xlink:href="#DejaVuSans-4c"/>
       <use xlink:href="#DejaVuSans-32" transform="translate(55.712891 0)"/>
      </g>
     </g>
    </g>
    <g id="xtick_38">
     <g id="line2d_98">
      <g>
       <use xlink:href="#mde7925be5e" x="377.416359" y="316.132105" style="fill: #1f2937; stroke: #1f2937; stroke-width: 0.8"/>
      </g>
     </g>
     <g id="text_39">
      <!-- L3 -->
      <g style="fill: #1f2937" transform="translate(372.403922 329.514793) scale(0.084 -0.084)">
       <use xlink:href="#DejaVuSans-4c"/>
       <use xlink:href="#DejaVuSans-33" transform="translate(55.712891 0)"/>
      </g>
     </g>
    </g>
    <g id="xtick_39">
     <g id="line2d_99">
      <g>
       <use xlink:href="#mde7925be5e" x="398.038104" y="316.132105" style="fill: #1f2937; stroke: #1f2937; stroke-width: 0.8"/>
      </g>
     </g>
     <g id="text_40">
      <!-- L4 -->
      <g style="fill: #1f2937" transform="translate(393.025667 329.514793) scale(0.084 -0.084)">
       <use xlink:href="#DejaVuSans-4c"/>
       <use xlink:href="#DejaVuSans-34" transform="translate(55.712891 0)"/>
      </g>
     </g>
    </g>
    <g id="xtick_40">
     <g id="line2d_100">
      <g>
       <use xlink:href="#mde7925be5e" x="418.659849" y="316.132105" style="fill: #1f2937; stroke: #1f2937; stroke-width: 0.8"/>
      </g>
     </g>
     <g id="text_41">
      <!-- L5 -->
      <g style="fill: #1f2937" transform="translate(413.647411 329.514793) scale(0.084 -0.084)">
       <use xlink:href="#DejaVuSans-4c"/>
       <use xlink:href="#DejaVuSans-35" transform="translate(55.712891 0)"/>
      </g>
     </g>
    </g>
    <g id="xtick_41">
     <g id="line2d_101">
      <g>
       <use xlink:href="#mde7925be5e" x="439.281594" y="316.132105" style="fill: #1f2937; stroke: #1f2937; stroke-width: 0.8"/>
      </g>
     </g>
     <g id="text_42">
      <!-- L6 -->
      <g style="fill: #1f2937" transform="translate(434.269156 329.514793) scale(0.084 -0.084)">
       <use xlink:href="#DejaVuSans-4c"/>
       <use xlink:href="#DejaVuSans-36" transform="translate(55.712891 0)"/>
      </g>
     </g>
    </g>
    <g id="xtick_42">
     <g id="line2d_102">
      <g>
       <use xlink:href="#mde7925be5e" x="459.903339" y="316.132105" style="fill: #1f2937; stroke: #1f2937; stroke-width: 0.8"/>
      </g>
     </g>
     <g id="text_43">
      <!-- L7 -->
      <g style="fill: #1f2937" transform="translate(454.890901 329.514793) scale(0.084 -0.084)">
       <use xlink:href="#DejaVuSans-4c"/>
       <use xlink:href="#DejaVuSans-37" transform="translate(55.712891 0)"/>
      </g>
     </g>
    </g>
    <g id="xtick_43">
     <g id="line2d_103">
      <g>
       <use xlink:href="#mde7925be5e" x="480.525083" y="316.132105" style="fill: #1f2937; stroke: #1f2937; stroke-width: 0.8"/>
      </g>
     </g>
     <g id="text_44">
      <!-- L8 -->
      <g style="fill: #1f2937" transform="translate(475.512646 329.514793) scale(0.084 -0.084)">
       <use xlink:href="#DejaVuSans-4c"/>
       <use xlink:href="#DejaVuSans-38" transform="translate(55.712891 0)"/>
      </g>
     </g>
    </g>
    <g id="xtick_44">
     <g id="line2d_104">
      <g>
       <use xlink:href="#mde7925be5e" x="501.146828" y="316.132105" style="fill: #1f2937; stroke: #1f2937; stroke-width: 0.8"/>
      </g>
     </g>
     <g id="text_45">
      <!-- L9 -->
      <g style="fill: #1f2937" transform="translate(496.134391 329.514793) scale(0.084 -0.084)">
       <use xlink:href="#DejaVuSans-4c"/>
       <use xlink:href="#DejaVuSans-39" transform="translate(55.712891 0)"/>
      </g>
     </g>
    </g>
    <g id="text_46">
     <!-- Representation -->
     <g style="fill: #1f2937" transform="translate(363.104698 342.252293) scale(0.092 -0.092)">
      <use xlink:href="#DejaVuSans-52"/>
      <use xlink:href="#DejaVuSans-65" transform="translate(64.982422 0)"/>
      <use xlink:href="#DejaVuSans-70" transform="translate(126.505859 0)"/>
      <use xlink:href="#DejaVuSans-72" transform="translate(189.982422 0)"/>
      <use xlink:href="#DejaVuSans-65" transform="translate(228.845703 0)"/>
      <use xlink:href="#DejaVuSans-73" transform="translate(290.369141 0)"/>
      <use xlink:href="#DejaVuSans-65" transform="translate(342.46875 0)"/>
      <use xlink:href="#DejaVuSans-6e" transform="translate(403.992188 0)"/>
      <use xlink:href="#DejaVuSans-74" transform="translate(467.371094 0)"/>
      <use xlink:href="#DejaVuSans-61" transform="translate(506.580078 0)"/>
      <use xlink:href="#DejaVuSans-74" transform="translate(567.859375 0)"/>
      <use xlink:href="#DejaVuSans-69" transform="translate(607.068359 0)"/>
      <use xlink:href="#DejaVuSans-6f" transform="translate(634.851562 0)"/>
      <use xlink:href="#DejaVuSans-6e" transform="translate(696.033203 0)"/>
     </g>
    </g>
   </g>
   <g id="matplotlib.axis_8">
    <g id="ytick_22">
     <g id="line2d_105">
      <path d="M 292.454771 316.132105 
L 503.621438 316.132105 
" clip-path="url(#p637b66f8a4)" style="fill: none; stroke: #d1d5db; stroke-opacity: 0.55; stroke-width: 0.7; stroke-linecap: square"/>
     </g>
     <g id="line2d_106">
      <g>
       <use xlink:href="#m2152fbca68" x="292.454771" y="316.132105" style="fill: #1f2937; stroke: #1f2937; stroke-width: 0.8"/>
      </g>
     </g>
    </g>
    <g id="ytick_23">
     <g id="line2d_107">
      <path d="M 292.454771 295.374724 
L 503.621438 295.374724 
" clip-path="url(#p637b66f8a4)" style="fill: none; stroke: #d1d5db; stroke-opacity: 0.55; stroke-width: 0.7; stroke-linecap: square"/>
     </g>
     <g id="line2d_108">
      <g>
       <use xlink:href="#m2152fbca68" x="292.454771" y="295.374724" style="fill: #1f2937; stroke: #1f2937; stroke-width: 0.8"/>
      </g>
     </g>
    </g>
    <g id="ytick_24">
     <g id="line2d_109">
      <path d="M 292.454771 274.617343 
L 503.621438 274.617343 
" clip-path="url(#p637b66f8a4)" style="fill: none; stroke: #d1d5db; stroke-opacity: 0.55; stroke-width: 0.7; stroke-linecap: square"/>
     </g>
     <g id="line2d_110">
      <g>
       <use xlink:href="#m2152fbca68" x="292.454771" y="274.617343" style="fill: #1f2937; stroke: #1f2937; stroke-width: 0.8"/>
      </g>
     </g>
    </g>
    <g id="ytick_25">
     <g id="line2d_111">
      <path d="M 292.454771 253.859961 
L 503.621438 253.859961 
" clip-path="url(#p637b66f8a4)" style="fill: none; stroke: #d1d5db; stroke-opacity: 0.55; stroke-width: 0.7; stroke-linecap: square"/>
     </g>
     <g id="line2d_112">
      <g>
       <use xlink:href="#m2152fbca68" x="292.454771" y="253.859961" style="fill: #1f2937; stroke: #1f2937; stroke-width: 0.8"/>
      </g>
     </g>
    </g>
    <g id="ytick_26">
     <g id="line2d_113">
      <path d="M 292.454771 233.10258 
L 503.621438 233.10258 
" clip-path="url(#p637b66f8a4)" style="fill: none; stroke: #d1d5db; stroke-opacity: 0.55; stroke-width: 0.7; stroke-linecap: square"/>
     </g>
     <g id="line2d_114">
      <g>
       <use xlink:href="#m2152fbca68" x="292.454771" y="233.10258" style="fill: #1f2937; stroke: #1f2937; stroke-width: 0.8"/>
      </g>
     </g>
    </g>
    <g id="ytick_27">
     <g id="line2d_115">
      <path d="M 292.454771 212.345199 
L 503.621438 212.345199 
" clip-path="url(#p637b66f8a4)" style="fill: none; stroke: #d1d5db; stroke-opacity: 0.55; stroke-width: 0.7; stroke-linecap: square"/>
     </g>
     <g id="line2d_116">
      <g>
       <use xlink:href="#m2152fbca68" x="292.454771" y="212.345199" style="fill: #1f2937; stroke: #1f2937; stroke-width: 0.8"/>
      </g>
     </g>
    </g>
    <g id="ytick_28">
     <g id="line2d_117">
      <path d="M 292.454771 191.587818 
L 503.621438 191.587818 
" clip-path="url(#p637b66f8a4)" style="fill: none; stroke: #d1d5db; stroke-opacity: 0.55; stroke-width: 0.7; stroke-linecap: square"/>
     </g>
     <g id="line2d_118">
      <g>
       <use xlink:href="#m2152fbca68" x="292.454771" y="191.587818" style="fill: #1f2937; stroke: #1f2937; stroke-width: 0.8"/>
      </g>
     </g>
    </g>
   </g>
   <g id="line2d_119">
    <path d="M 294.92938 319.072915 
L 315.551125 236.811289 
L 336.17287 237.276118 
L 356.794615 236.857909 
L 377.416359 237.19003 
L 398.038104 237.308462 
L 418.659849 237.718526 
L 439.281594 238.25567 
L 459.903339 238.658393 
L 480.525083 238.884144 
L 501.146828 238.746157 
" clip-path="url(#p637b66f8a4)" style="fill: none; stroke: #d97706; stroke-width: 2.5; stroke-linecap: square"/>
   </g>
   <g id="line2d_120">
    <path d="M 294.92938 351.289585 
L 315.551125 242.943114 
L 336.17287 238.477643 
L 356.794615 236.997468 
L 377.416359 235.859934 
L 398.038104 233.725951 
L 418.659849 230.255658 
L 439.281594 223.633137 
L 459.903339 216.812511 
L 480.525083 204.410805 
L 501.146828 200.119314 
" clip-path="url(#p637b66f8a4)" style="fill: none; stroke: #7c3aed; stroke-width: 2.2; stroke-linecap: square"/>
   </g>
   <g id="line2d_121">
    <path d="M 294.92938 268.73336 
L 315.551125 206.781993 
L 336.17287 203.91564 
L 356.794615 203.927078 
L 377.416359 203.986937 
L 398.038104 203.841818 
L 418.659849 203.923251 
L 439.281594 203.186758 
L 459.903339 201.53865 
L 480.525083 200.639875 
L 501.146828 197.804007 
" clip-path="url(#p637b66f8a4)" style="fill: none; stroke: #db2777; stroke-width: 2.2; stroke-linecap: square"/>
   </g>
   <g id="line2d_122">
    <path d="M 294.92938 351.710456 
L 315.551125 323.868908 
L 336.17287 334.289839 
L 356.794615 332.477489 
L 377.416359 326.54108 
L 398.038104 335.365468 
L 418.659849 341.405762 
L 439.281594 326.944038 
L 459.903339 335.855096 
L 480.525083 334.989568 
L 501.146828 328.033425 
" clip-path="url(#p637b66f8a4)" style="fill: none; stroke: #2f6bff; stroke-opacity: 0.28; stroke-width: 1.35; stroke-linecap: square"/>
   </g>
   <g id="line2d_123">
    <path d="M 294.92938 340.906876 
L 315.551125 293.337163 
L 336.17287 294.567493 
L 356.794615 292.191608 
L 377.416359 292.143344 
L 398.038104 292.418863 
L 418.659849 292.033097 
L 439.281594 291.99223 
L 459.903339 292.098404 
L 480.525083 291.89324 
L 501.146828 292.364313 
" clip-path="url(#p637b66f8a4)" style="fill: none; stroke: #169b62; stroke-opacity: 0.28; stroke-width: 1.35; stroke-linecap: square"/>
   </g>
   <g id="line2d_124">
    <path d="M 292.454771 295.374724 
L 503.621438 295.374724 
" clip-path="url(#p637b66f8a4)" style="fill: none; stroke-dasharray: 2.96,1.28; stroke-dashoffset: 0; stroke: #6b7280; stroke-opacity: 0.65; stroke-width: 0.8"/>
   </g>
   <g id="patch_12">
    <path d="M 292.454771 316.132105 
L 292.454771 188.474211 
" style="fill: none; stroke: #1f2937; stroke-width: 0.8; stroke-linejoin: miter; stroke-linecap: square"/>
   </g>
   <g id="patch_13">
    <path d="M 292.454771 316.132105 
L 503.621438 316.132105 
" style="fill: none; stroke: #1f2937; stroke-width: 0.8; stroke-linejoin: miter; stroke-linecap: square"/>
   </g>
   <g id="text_47">
    <!-- D -->
    <g style="fill: #1f2937" transform="translate(265.003104 180.480074) scale(0.13 -0.13)">
     <defs>
      <path id="DejaVuSans-Bold-44" d="M 1791 3756 
L 1791 909 
L 2222 909 
Q 2959 909 3348 1275 
Q 3738 1641 3738 2338 
Q 3738 3031 3350 3393 
Q 2963 3756 2222 3756 
L 1791 3756 
z
M 588 4666 
L 1856 4666 
Q 2919 4666 3439 4514 
Q 3959 4363 4331 4000 
Q 4659 3684 4818 3271 
Q 4978 2859 4978 2338 
Q 4978 1809 4818 1395 
Q 4659 981 4331 666 
Q 3956 303 3431 151 
Q 2906 0 1856 0 
L 588 0 
L 588 4666 
z
" transform="scale(0.015625)"/>
     </defs>
     <use xlink:href="#DejaVuSans-Bold-44"/>
    </g>
   </g>
   <g id="text_48">
    <!-- $\lfloor N / B^D \rfloor\ \mathrm{mod}\ B$ -->
    <g style="fill: #1f2937" transform="translate(363.613104 183.474211) scale(0.102 -0.102)">
     <defs>
      <path id="DejaVuSans-6d" d="M 3328 2828 
Q 3544 3216 3844 3400 
Q 4144 3584 4550 3584 
Q 5097 3584 5394 3201 
Q 5691 2819 5691 2113 
L 5691 0 
L 5113 0 
L 5113 2094 
Q 5113 2597 4934 2840 
Q 4756 3084 4391 3084 
Q 3944 3084 3684 2787 
Q 3425 2491 3425 1978 
L 3425 0 
L 2847 0 
L 2847 2094 
Q 2847 2600 2669 2842 
Q 2491 3084 2119 3084 
Q 1678 3084 1418 2786 
Q 1159 2488 1159 1978 
L 1159 0 
L 581 0 
L 581 3500 
L 1159 3500 
L 1159 2956 
Q 1356 3278 1631 3431 
Q 1906 3584 2284 3584 
Q 2666 3584 2933 3390 
Q 3200 3197 3328 2828 
z
" transform="scale(0.015625)"/>
     </defs>
     <use xlink:href="#DejaVuSans-230a" transform="translate(0 0.684375)"/>
     <use xlink:href="#DejaVuSans-Oblique-4e" transform="translate(39.013672 0.684375)"/>
     <use xlink:href="#DejaVuSans-2f" transform="translate(113.818359 0.684375)"/>
     <use xlink:href="#DejaVuSans-Oblique-42" transform="translate(147.509766 0.684375)"/>
     <use xlink:href="#DejaVuSans-Oblique-44" transform="translate(223.130052 38.965625) scale(0.7)"/>
     <use xlink:href="#DejaVuSans-230b" transform="translate(279.765794 0.684375)"/>
     <use xlink:href="#DejaVuSans-6d" transform="translate(351.249845 0.684375)"/>
     <use xlink:href="#DejaVuSans-6f" transform="translate(448.661954 0.684375)"/>
     <use xlink:href="#DejaVuSans-64" transform="translate(509.843595 0.684375)"/>
     <use xlink:href="#DejaVuSans-Oblique-42" transform="translate(605.790535 0.684375)"/>
    </g>
   </g>
  </g>
  <g id="legend_1">
   <g id="line2d_125">
    <path d="M 108.275437 371.925168 
L 117.515437 371.925168 
L 126.755437 371.925168 
" style="fill: none; stroke: #d97706; stroke-width: 2.5; stroke-linecap: square"/>
   </g>
   <g id="text_49">
    <!-- $D_{\mathrm{ones}}$ -->
    <g style="fill: #1f2937" transform="translate(133.475437 374.865168) scale(0.084 -0.084)">
     <use xlink:href="#DejaVuSans-Oblique-44" transform="translate(0 0.09375)"/>
     <use xlink:href="#DejaVuSans-6f" transform="translate(77.001953 -16.3125) scale(0.7)"/>
     <use xlink:href="#DejaVuSans-6e" transform="translate(119.829102 -16.3125) scale(0.7)"/>
     <use xlink:href="#DejaVuSans-65" transform="translate(164.194336 -16.3125) scale(0.7)"/>
     <use xlink:href="#DejaVuSans-73" transform="translate(207.260742 -16.3125) scale(0.7)"/>
    </g>
   </g>
   <g id="line2d_126">
    <path d="M 171.023437 371.925168 
L 180.263437 371.925168 
L 189.503437 371.925168 
" style="fill: none; stroke: #7c3aed; stroke-width: 2.2; stroke-linecap: square"/>
   </g>
   <g id="text_50">
    <!-- $O[0]$ -->
    <g style="fill: #1f2937" transform="translate(196.223437 374.865168) scale(0.084 -0.084)">
     <defs>
      <path id="DejaVuSans-Oblique-4f" d="M 2919 4238 
Q 2400 4238 2003 3986 
Q 1606 3734 1313 3219 
Q 1125 2891 1026 2522 
Q 928 2153 928 1778 
Q 928 1128 1239 775 
Q 1550 422 2119 422 
Q 2631 422 3032 676 
Q 3434 931 3719 1434 
Q 3909 1772 4009 2142 
Q 4109 2513 4109 2881 
Q 4109 3528 3796 3883 
Q 3484 4238 2919 4238 
z
M 2100 -91 
Q 1241 -91 748 418 
Q 256 928 256 1813 
Q 256 2319 448 2847 
Q 641 3375 978 3788 
Q 1375 4272 1862 4511 
Q 2350 4750 2938 4750 
Q 3794 4750 4287 4245 
Q 4781 3741 4781 2869 
Q 4781 2331 4593 1812 
Q 4406 1294 4056 872 
Q 3656 384 3173 146 
Q 2691 -91 2100 -91 
z
" transform="scale(0.015625)"/>
      <path id="DejaVuSans-5b" d="M 550 4863 
L 1875 4863 
L 1875 4416 
L 1125 4416 
L 1125 -397 
L 1875 -397 
L 1875 -844 
L 550 -844 
L 550 4863 
z
" transform="scale(0.015625)"/>
      <path id="DejaVuSans-5d" d="M 1947 4863 
L 1947 -844 
L 622 -844 
L 622 -397 
L 1369 -397 
L 1369 4416 
L 622 4416 
L 622 4863 
L 1947 4863 
z
" transform="scale(0.015625)"/>
     </defs>
     <use xlink:href="#DejaVuSans-Oblique-4f" transform="translate(0 0.015625)"/>
     <use xlink:href="#DejaVuSans-5b" transform="translate(78.710938 0.015625)"/>
     <use xlink:href="#DejaVuSans-30" transform="translate(117.724609 0.015625)"/>
     <use xlink:href="#DejaVuSans-5d" transform="translate(181.347656 0.015625)"/>
    </g>
   </g>
   <g id="line2d_127">
    <path d="M 231.587437 371.925168 
L 240.827437 371.925168 
L 250.067437 371.925168 
" style="fill: none; stroke: #db2777; stroke-width: 2.2; stroke-linecap: square"/>
   </g>
   <g id="text_51">
    <!-- $O[1]$ -->
    <g style="fill: #1f2937" transform="translate(256.787437 374.865168) scale(0.084 -0.084)">
     <use xlink:href="#DejaVuSans-Oblique-4f" transform="translate(0 0.015625)"/>
     <use xlink:href="#DejaVuSans-5b" transform="translate(78.710938 0.015625)"/>
     <use xlink:href="#DejaVuSans-31" transform="translate(117.724609 0.015625)"/>
     <use xlink:href="#DejaVuSans-5d" transform="translate(181.347656 0.015625)"/>
    </g>
   </g>
   <g id="line2d_128">
    <path d="M 292.151437 371.925168 
L 301.391437 371.925168 
L 310.631438 371.925168 
" style="fill: none; stroke: #2f6bff; stroke-opacity: 0.28; stroke-width: 1.35; stroke-linecap: square"/>
   </g>
   <g id="text_52">
    <!-- $N_{\mathrm{ones}}$ -->
    <g style="fill: #1f2937" transform="translate(317.351437 374.865168) scale(0.084 -0.084)">
     <use xlink:href="#DejaVuSans-Oblique-4e" transform="translate(0 0.09375)"/>
     <use xlink:href="#DejaVuSans-6f" transform="translate(74.804688 -16.3125) scale(0.7)"/>
     <use xlink:href="#DejaVuSans-6e" transform="translate(117.631836 -16.3125) scale(0.7)"/>
     <use xlink:href="#DejaVuSans-65" transform="translate(161.99707 -16.3125) scale(0.7)"/>
     <use xlink:href="#DejaVuSans-73" transform="translate(205.063477 -16.3125) scale(0.7)"/>
    </g>
   </g>
   <g id="line2d_129">
    <path d="M 354.731438 371.925168 
L 363.971438 371.925168 
L 373.211438 371.925168 
" style="fill: none; stroke: #169b62; stroke-opacity: 0.28; stroke-width: 1.35; stroke-linecap: square"/>
   </g>
   <g id="text_53">
    <!-- $B_{\mathrm{ones}}$ -->
    <g style="fill: #1f2937" transform="translate(379.931438 374.865168) scale(0.084 -0.084)">
     <use xlink:href="#DejaVuSans-Oblique-42" transform="translate(0 0.09375)"/>
     <use xlink:href="#DejaVuSans-6f" transform="translate(68.603516 -16.3125) scale(0.7)"/>
     <use xlink:href="#DejaVuSans-6e" transform="translate(111.430664 -16.3125) scale(0.7)"/>
     <use xlink:href="#DejaVuSans-65" transform="translate(155.795898 -16.3125) scale(0.7)"/>
     <use xlink:href="#DejaVuSans-73" transform="translate(198.862305 -16.3125) scale(0.7)"/>
    </g>
   </g>
  </g>
 </g>
 <defs>
  <clipPath id="p82fb321716">
   <rect x="47.501438" y="25.072105" width="211.166667" height="127.657895"/>
  </clipPath>
  <clipPath id="p7caca5cba3">
   <rect x="292.454771" y="25.072105" width="211.166667" height="127.657895"/>
  </clipPath>
  <clipPath id="p17f45b6f05">
   <rect x="47.501438" y="188.474211" width="211.166667" height="127.657895"/>
  </clipPath>
  <clipPath id="p637b66f8a4">
   <rect x="292.454771" y="188.474211" width="211.166667" height="127.657895"/>
  </clipPath>
 </defs>
</svg>
