<?xml version="1.0" encoding="utf-8" standalone="no"?>
<!DOCTYPE svg PUBLIC "-//W3C//DTD SVG 1.1//EN"
  "http://www.w3.org/Graphics/SVG/1.1/DTD/svg11.dtd">
<svg xmlns:xlink="http://www.w3.org/1999/xlink" width="506.878688pt" height="371.770902pt" viewBox="0 0 506.878688 371.770902" xmlns="http://www.w3.org/2000/svg" version="1.1">
 <metadata>
  <rdf:RDF xmlns:dc="http://purl.org/dc/elements/1.1/" xmlns:cc="http://creativecommons.org/ns#" xmlns:rdf="http://www.w3.org/1999/02/22-rdf-syntax-ns#">
   <cc:Work>
    <dc:type rdf:resource="http://purl.org/dc/dcmitype/StillImage"/>
    <dc:date>2026-05-21T14:04:29.355788</dc:date>
    <dc:format>image/svg+xml</dc:format>
    <dc:creator>
     <cc:Agent>
      <dc:title>Matplotlib v3.10.9, https://matplotlib.org/</dc:title>
     </cc:Agent>
    </dc:creator>
   </cc:Work>
  </rdf:RDF>
 </metadata>
 <defs>
  <style type="text/css">*{stroke-linejoin: round; stroke-linecap: butt}</style>
 </defs>
 <g id="figure_1">
  <g id="patch_1">
   <path d="M 0 371.770902 
L 506.878688 371.770902 
L 506.878688 0 
L 0 0 
z
" style="fill: #ffffff"/>
  </g>
  <g id="axes_1">
   <g id="patch_2">
    <path d="M 51.118688 148.573098 
L 252.26667 148.573098 
L 252.26667 39.942 
L 51.118688 39.942 
z
" style="fill: #ffffff"/>
   </g>
   <g id="FillBetweenPolyCollection_1">
    <defs>
     <path id="meb828413d9" d="M 60.261778 -328.66489 
L 60.261778 -328.141999 
L 78.547958 -328.141999 
L 96.834138 -296.352192 
L 115.120318 -278.416939 
L 133.406498 -266.525087 
L 151.692679 -261.505166 
L 169.978859 -260.335475 
L 188.265039 -258.23978 
L 206.551219 -257.07009 
L 224.837399 -257.07009 
L 243.123579 -256.64967 
L 243.123579 -257.604023 
L 243.123579 -257.604023 
L 224.837399 -258.33607 
L 206.551219 -260.568479 
L 188.265039 -263.351402 
L 169.978859 -266.418296 
L 151.692679 -270.961843 
L 133.406498 -276.130128 
L 115.120318 -284.898926 
L 96.834138 -305.549594 
L 78.547958 -328.66489 
L 60.261778 -328.66489 
z
"/>
    </defs>
    <g clip-path="url(#p97ce087253)">
     <use xlink:href="#meb828413d9" x="0" y="371.770902" style="fill: #d97706; fill-opacity: 0.16"/>
    </g>
   </g>
   <g id="matplotlib.axis_1">
    <g id="xtick_1">
     <g id="line2d_1">
      <defs>
       <path id="m6a7e05e051" d="M 0 0 
L 0 3.5 
" style="stroke: #1f2937; stroke-width: 0.8"/>
      </defs>
      <g>
       <use xlink:href="#m6a7e05e051" x="60.261778" y="148.573098" style="fill: #1f2937; stroke: #1f2937; stroke-width: 0.8"/>
      </g>
     </g>
     <g id="text_1">
      <!-- clean -->
      <g style="fill: #1f2937" transform="translate(41.383467 174.511786) rotate(-38) scale(0.084 -0.084)">
       <defs>
        <path id="DejaVuSans-63" d="M 3122 3366 
L 3122 2828 
Q 2878 2963 2633 3030 
Q 2388 3097 2138 3097 
Q 1578 3097 1268 2742 
Q 959 2388 959 1747 
Q 959 1106 1268 751 
Q 1578 397 2138 397 
Q 2388 397 2633 464 
Q 2878 531 3122 666 
L 3122 134 
Q 2881 22 2623 -34 
Q 2366 -91 2075 -91 
Q 1284 -91 818 406 
Q 353 903 353 1747 
Q 353 2603 823 3093 
Q 1294 3584 2113 3584 
Q 2378 3584 2631 3529 
Q 2884 3475 3122 3366 
z
" transform="scale(0.015625)"/>
        <path id="DejaVuSans-6c" d="M 603 4863 
L 1178 4863 
L 1178 0 
L 603 0 
L 603 4863 
z
" transform="scale(0.015625)"/>
        <path id="DejaVuSans-65" d="M 3597 1894 
L 3597 1613 
L 953 1613 
Q 991 1019 1311 708 
Q 1631 397 2203 397 
Q 2534 397 2845 478 
Q 3156 559 3463 722 
L 3463 178 
Q 3153 47 2828 -22 
Q 2503 -91 2169 -91 
Q 1331 -91 842 396 
Q 353 884 353 1716 
Q 353 2575 817 3079 
Q 1281 3584 2069 3584 
Q 2775 3584 3186 3129 
Q 3597 2675 3597 1894 
z
M 3022 2063 
Q 3016 2534 2758 2815 
Q 2500 3097 2075 3097 
Q 1594 3097 1305 2825 
Q 1016 2553 972 2059 
L 3022 2063 
z
" transform="scale(0.015625)"/>
        <path id="DejaVuSans-61" d="M 2194 1759 
Q 1497 1759 1228 1600 
Q 959 1441 959 1056 
Q 959 750 1161 570 
Q 1363 391 1709 391 
Q 2188 391 2477 730 
Q 2766 1069 2766 1631 
L 2766 1759 
L 2194 1759 
z
M 3341 1997 
L 3341 0 
L 2766 0 
L 2766 531 
Q 2569 213 2275 61 
Q 1981 -91 1556 -91 
Q 1019 -91 701 211 
Q 384 513 384 1019 
Q 384 1609 779 1909 
Q 1175 2209 1959 2209 
L 2766 2209 
L 2766 2266 
Q 2766 2663 2505 2880 
Q 2244 3097 1772 3097 
Q 1472 3097 1187 3025 
Q 903 2953 641 2809 
L 641 3341 
Q 956 3463 1253 3523 
Q 1550 3584 1831 3584 
Q 2591 3584 2966 3190 
Q 3341 2797 3341 1997 
z
" transform="scale(0.015625)"/>
        <path id="DejaVuSans-6e" d="M 3513 2113 
L 3513 0 
L 2938 0 
L 2938 2094 
Q 2938 2591 2744 2837 
Q 2550 3084 2163 3084 
Q 1697 3084 1428 2787 
Q 1159 2491 1159 1978 
L 1159 0 
L 581 0 
L 581 3500 
L 1159 3500 
L 1159 2956 
Q 1366 3272 1645 3428 
Q 1925 3584 2291 3584 
Q 2894 3584 3203 3211 
Q 3513 2838 3513 2113 
z
" transform="scale(0.015625)"/>
       </defs>
       <use xlink:href="#DejaVuSans-63"/>
       <use xlink:href="#DejaVuSans-6c" transform="translate(54.980469 0)"/>
       <use xlink:href="#DejaVuSans-65" transform="translate(82.763672 0)"/>
       <use xlink:href="#DejaVuSans-61" transform="translate(144.287109 0)"/>
       <use xlink:href="#DejaVuSans-6e" transform="translate(205.566406 0)"/>
      </g>
     </g>
    </g>
    <g id="xtick_2">
     <g id="line2d_2">
      <g>
       <use xlink:href="#m6a7e05e051" x="78.547958" y="148.573098" style="fill: #1f2937; stroke: #1f2937; stroke-width: 0.8"/>
      </g>
     </g>
     <g id="text_2">
      <!-- L0 -->
      <g style="fill: #1f2937" transform="translate(69.572726 166.774653) rotate(-38) scale(0.084 -0.084)">
       <defs>
        <path id="DejaVuSans-4c" d="M 628 4666 
L 1259 4666 
L 1259 531 
L 3531 531 
L 3531 0 
L 628 0 
L 628 4666 
z
" transform="scale(0.015625)"/>
        <path id="DejaVuSans-30" d="M 2034 4250 
Q 1547 4250 1301 3770 
Q 1056 3291 1056 2328 
Q 1056 1369 1301 889 
Q 1547 409 2034 409 
Q 2525 409 2770 889 
Q 3016 1369 3016 2328 
Q 3016 3291 2770 3770 
Q 2525 4250 2034 4250 
z
M 2034 4750 
Q 2819 4750 3233 4129 
Q 3647 3509 3647 2328 
Q 3647 1150 3233 529 
Q 2819 -91 2034 -91 
Q 1250 -91 836 529 
Q 422 1150 422 2328 
Q 422 3509 836 4129 
Q 1250 4750 2034 4750 
z
" transform="scale(0.015625)"/>
       </defs>
       <use xlink:href="#DejaVuSans-4c"/>
       <use xlink:href="#DejaVuSans-30" transform="translate(55.712891 0)"/>
      </g>
     </g>
    </g>
    <g id="xtick_3">
     <g id="line2d_3">
      <g>
       <use xlink:href="#m6a7e05e051" x="96.834138" y="148.573098" style="fill: #1f2937; stroke: #1f2937; stroke-width: 0.8"/>
      </g>
     </g>
     <g id="text_3">
      <!-- L0-1 -->
      <g style="fill: #1f2937" transform="translate(81.259267 171.930857) rotate(-38) scale(0.084 -0.084)">
       <defs>
        <path id="DejaVuSans-2d" d="M 313 2009 
L 1997 2009 
L 1997 1497 
L 313 1497 
L 313 2009 
z
" transform="scale(0.015625)"/>
        <path id="DejaVuSans-31" d="M 794 531 
L 1825 531 
L 1825 4091 
L 703 3866 
L 703 4441 
L 1819 4666 
L 2450 4666 
L 2450 531 
L 3481 531 
L 3481 0 
L 794 0 
L 794 531 
z
" transform="scale(0.015625)"/>
       </defs>
       <use xlink:href="#DejaVuSans-4c"/>
       <use xlink:href="#DejaVuSans-30" transform="translate(55.712891 0)"/>
       <use xlink:href="#DejaVuSans-2d" transform="translate(119.335938 0)"/>
       <use xlink:href="#DejaVuSans-31" transform="translate(155.419922 0)"/>
      </g>
     </g>
    </g>
    <g id="xtick_4">
     <g id="line2d_4">
      <g>
       <use xlink:href="#m6a7e05e051" x="115.120318" y="148.573098" style="fill: #1f2937; stroke: #1f2937; stroke-width: 0.8"/>
      </g>
     </g>
     <g id="text_4">
      <!-- L0-2 -->
      <g style="fill: #1f2937" transform="translate(99.545447 171.930857) rotate(-38) scale(0.084 -0.084)">
       <defs>
        <path id="DejaVuSans-32" d="M 1228 531 
L 3431 531 
L 3431 0 
L 469 0 
L 469 531 
Q 828 903 1448 1529 
Q 2069 2156 2228 2338 
Q 2531 2678 2651 2914 
Q 2772 3150 2772 3378 
Q 2772 3750 2511 3984 
Q 2250 4219 1831 4219 
Q 1534 4219 1204 4116 
Q 875 4013 500 3803 
L 500 4441 
Q 881 4594 1212 4672 
Q 1544 4750 1819 4750 
Q 2544 4750 2975 4387 
Q 3406 4025 3406 3419 
Q 3406 3131 3298 2873 
Q 3191 2616 2906 2266 
Q 2828 2175 2409 1742 
Q 1991 1309 1228 531 
z
" transform="scale(0.015625)"/>
       </defs>
       <use xlink:href="#DejaVuSans-4c"/>
       <use xlink:href="#DejaVuSans-30" transform="translate(55.712891 0)"/>
       <use xlink:href="#DejaVuSans-2d" transform="translate(119.335938 0)"/>
       <use xlink:href="#DejaVuSans-32" transform="translate(155.419922 0)"/>
      </g>
     </g>
    </g>
    <g id="xtick_5">
     <g id="line2d_5">
      <g>
       <use xlink:href="#m6a7e05e051" x="133.406498" y="148.573098" style="fill: #1f2937; stroke: #1f2937; stroke-width: 0.8"/>
      </g>
     </g>
     <g id="text_5">
      <!-- L0-3 -->
      <g style="fill: #1f2937" transform="translate(117.831628 171.930857) rotate(-38) scale(0.084 -0.084)">
       <defs>
        <path id="DejaVuSans-33" d="M 2597 2516 
Q 3050 2419 3304 2112 
Q 3559 1806 3559 1356 
Q 3559 666 3084 287 
Q 2609 -91 1734 -91 
Q 1441 -91 1130 -33 
Q 819 25 488 141 
L 488 750 
Q 750 597 1062 519 
Q 1375 441 1716 441 
Q 2309 441 2620 675 
Q 2931 909 2931 1356 
Q 2931 1769 2642 2001 
Q 2353 2234 1838 2234 
L 1294 2234 
L 1294 2753 
L 1863 2753 
Q 2328 2753 2575 2939 
Q 2822 3125 2822 3475 
Q 2822 3834 2567 4026 
Q 2313 4219 1838 4219 
Q 1578 4219 1281 4162 
Q 984 4106 628 3988 
L 628 4550 
Q 988 4650 1302 4700 
Q 1616 4750 1894 4750 
Q 2613 4750 3031 4423 
Q 3450 4097 3450 3541 
Q 3450 3153 3228 2886 
Q 3006 2619 2597 2516 
z
" transform="scale(0.015625)"/>
       </defs>
       <use xlink:href="#DejaVuSans-4c"/>
       <use xlink:href="#DejaVuSans-30" transform="translate(55.712891 0)"/>
       <use xlink:href="#DejaVuSans-2d" transform="translate(119.335938 0)"/>
       <use xlink:href="#DejaVuSans-33" transform="translate(155.419922 0)"/>
      </g>
     </g>
    </g>
    <g id="xtick_6">
     <g id="line2d_6">
      <g>
       <use xlink:href="#m6a7e05e051" x="151.692679" y="148.573098" style="fill: #1f2937; stroke: #1f2937; stroke-width: 0.8"/>
      </g>
     </g>
     <g id="text_6">
      <!-- L0-4 -->
      <g style="fill: #1f2937" transform="translate(136.117808 171.930857) rotate(-38) scale(0.084 -0.084)">
       <defs>
        <path id="DejaVuSans-34" d="M 2419 4116 
L 825 1625 
L 2419 1625 
L 2419 4116 
z
M 2253 4666 
L 3047 4666 
L 3047 1625 
L 3713 1625 
L 3713 1100 
L 3047 1100 
L 3047 0 
L 2419 0 
L 2419 1100 
L 313 1100 
L 313 1709 
L 2253 4666 
z
" transform="scale(0.015625)"/>
       </defs>
       <use xlink:href="#DejaVuSans-4c"/>
       <use xlink:href="#DejaVuSans-30" transform="translate(55.712891 0)"/>
       <use xlink:href="#DejaVuSans-2d" transform="translate(119.335938 0)"/>
       <use xlink:href="#DejaVuSans-34" transform="translate(155.419922 0)"/>
      </g>
     </g>
    </g>
    <g id="xtick_7">
     <g id="line2d_7">
      <g>
       <use xlink:href="#m6a7e05e051" x="169.978859" y="148.573098" style="fill: #1f2937; stroke: #1f2937; stroke-width: 0.8"/>
      </g>
     </g>
     <g id="text_7">
      <!-- L0-5 -->
      <g style="fill: #1f2937" transform="translate(154.403988 171.930857) rotate(-38) scale(0.084 -0.084)">
       <defs>
        <path id="DejaVuSans-35" d="M 691 4666 
L 3169 4666 
L 3169 4134 
L 1269 4134 
L 1269 2991 
Q 1406 3038 1543 3061 
Q 1681 3084 1819 3084 
Q 2600 3084 3056 2656 
Q 3513 2228 3513 1497 
Q 3513 744 3044 326 
Q 2575 -91 1722 -91 
Q 1428 -91 1123 -41 
Q 819 9 494 109 
L 494 744 
Q 775 591 1075 516 
Q 1375 441 1709 441 
Q 2250 441 2565 725 
Q 2881 1009 2881 1497 
Q 2881 1984 2565 2268 
Q 2250 2553 1709 2553 
Q 1456 2553 1204 2497 
Q 953 2441 691 2322 
L 691 4666 
z
" transform="scale(0.015625)"/>
       </defs>
       <use xlink:href="#DejaVuSans-4c"/>
       <use xlink:href="#DejaVuSans-30" transform="translate(55.712891 0)"/>
       <use xlink:href="#DejaVuSans-2d" transform="translate(119.335938 0)"/>
       <use xlink:href="#DejaVuSans-35" transform="translate(155.419922 0)"/>
      </g>
     </g>
    </g>
    <g id="xtick_8">
     <g id="line2d_8">
      <g>
       <use xlink:href="#m6a7e05e051" x="188.265039" y="148.573098" style="fill: #1f2937; stroke: #1f2937; stroke-width: 0.8"/>
      </g>
     </g>
     <g id="text_8">
      <!-- L0-6 -->
      <g style="fill: #1f2937" transform="translate(172.690168 171.930857) rotate(-38) scale(0.084 -0.084)">
       <defs>
        <path id="DejaVuSans-36" d="M 2113 2584 
Q 1688 2584 1439 2293 
Q 1191 2003 1191 1497 
Q 1191 994 1439 701 
Q 1688 409 2113 409 
Q 2538 409 2786 701 
Q 3034 994 3034 1497 
Q 3034 2003 2786 2293 
Q 2538 2584 2113 2584 
z
M 3366 4563 
L 3366 3988 
Q 3128 4100 2886 4159 
Q 2644 4219 2406 4219 
Q 1781 4219 1451 3797 
Q 1122 3375 1075 2522 
Q 1259 2794 1537 2939 
Q 1816 3084 2150 3084 
Q 2853 3084 3261 2657 
Q 3669 2231 3669 1497 
Q 3669 778 3244 343 
Q 2819 -91 2113 -91 
Q 1303 -91 875 529 
Q 447 1150 447 2328 
Q 447 3434 972 4092 
Q 1497 4750 2381 4750 
Q 2619 4750 2861 4703 
Q 3103 4656 3366 4563 
z
" transform="scale(0.015625)"/>
       </defs>
       <use xlink:href="#DejaVuSans-4c"/>
       <use xlink:href="#DejaVuSans-30" transform="translate(55.712891 0)"/>
       <use xlink:href="#DejaVuSans-2d" transform="translate(119.335938 0)"/>
       <use xlink:href="#DejaVuSans-36" transform="translate(155.419922 0)"/>
      </g>
     </g>
    </g>
    <g id="xtick_9">
     <g id="line2d_9">
      <g>
       <use xlink:href="#m6a7e05e051" x="206.551219" y="148.573098" style="fill: #1f2937; stroke: #1f2937; stroke-width: 0.8"/>
      </g>
     </g>
     <g id="text_9">
      <!-- L0-7 -->
      <g style="fill: #1f2937" transform="translate(190.976348 171.930857) rotate(-38) scale(0.084 -0.084)">
       <defs>
        <path id="DejaVuSans-37" d="M 525 4666 
L 3525 4666 
L 3525 4397 
L 1831 0 
L 1172 0 
L 2766 4134 
L 525 4134 
L 525 4666 
z
" transform="scale(0.015625)"/>
       </defs>
       <use xlink:href="#DejaVuSans-4c"/>
       <use xlink:href="#DejaVuSans-30" transform="translate(55.712891 0)"/>
       <use xlink:href="#DejaVuSans-2d" transform="translate(119.335938 0)"/>
       <use xlink:href="#DejaVuSans-37" transform="translate(155.419922 0)"/>
      </g>
     </g>
    </g>
    <g id="xtick_10">
     <g id="line2d_10">
      <g>
       <use xlink:href="#m6a7e05e051" x="224.837399" y="148.573098" style="fill: #1f2937; stroke: #1f2937; stroke-width: 0.8"/>
      </g>
     </g>
     <g id="text_10">
      <!-- L0-8 -->
      <g style="fill: #1f2937" transform="translate(209.262529 171.930857) rotate(-38) scale(0.084 -0.084)">
       <defs>
        <path id="DejaVuSans-38" d="M 2034 2216 
Q 1584 2216 1326 1975 
Q 1069 1734 1069 1313 
Q 1069 891 1326 650 
Q 1584 409 2034 409 
Q 2484 409 2743 651 
Q 3003 894 3003 1313 
Q 3003 1734 2745 1975 
Q 2488 2216 2034 2216 
z
M 1403 2484 
Q 997 2584 770 2862 
Q 544 3141 544 3541 
Q 544 4100 942 4425 
Q 1341 4750 2034 4750 
Q 2731 4750 3128 4425 
Q 3525 4100 3525 3541 
Q 3525 3141 3298 2862 
Q 3072 2584 2669 2484 
Q 3125 2378 3379 2068 
Q 3634 1759 3634 1313 
Q 3634 634 3220 271 
Q 2806 -91 2034 -91 
Q 1263 -91 848 271 
Q 434 634 434 1313 
Q 434 1759 690 2068 
Q 947 2378 1403 2484 
z
M 1172 3481 
Q 1172 3119 1398 2916 
Q 1625 2713 2034 2713 
Q 2441 2713 2670 2916 
Q 2900 3119 2900 3481 
Q 2900 3844 2670 4047 
Q 2441 4250 2034 4250 
Q 1625 4250 1398 4047 
Q 1172 3844 1172 3481 
z
" transform="scale(0.015625)"/>
       </defs>
       <use xlink:href="#DejaVuSans-4c"/>
       <use xlink:href="#DejaVuSans-30" transform="translate(55.712891 0)"/>
       <use xlink:href="#DejaVuSans-2d" transform="translate(119.335938 0)"/>
       <use xlink:href="#DejaVuSans-38" transform="translate(155.419922 0)"/>
      </g>
     </g>
    </g>
    <g id="xtick_11">
     <g id="line2d_11">
      <g>
       <use xlink:href="#m6a7e05e051" x="243.123579" y="148.573098" style="fill: #1f2937; stroke: #1f2937; stroke-width: 0.8"/>
      </g>
     </g>
     <g id="text_11">
      <!-- L0-9 -->
      <g style="fill: #1f2937" transform="translate(227.548709 171.930857) rotate(-38) scale(0.084 -0.084)">
       <defs>
        <path id="DejaVuSans-39" d="M 703 97 
L 703 672 
Q 941 559 1184 500 
Q 1428 441 1663 441 
Q 2288 441 2617 861 
Q 2947 1281 2994 2138 
Q 2813 1869 2534 1725 
Q 2256 1581 1919 1581 
Q 1219 1581 811 2004 
Q 403 2428 403 3163 
Q 403 3881 828 4315 
Q 1253 4750 1959 4750 
Q 2769 4750 3195 4129 
Q 3622 3509 3622 2328 
Q 3622 1225 3098 567 
Q 2575 -91 1691 -91 
Q 1453 -91 1209 -44 
Q 966 3 703 97 
z
M 1959 2075 
Q 2384 2075 2632 2365 
Q 2881 2656 2881 3163 
Q 2881 3666 2632 3958 
Q 2384 4250 1959 4250 
Q 1534 4250 1286 3958 
Q 1038 3666 1038 3163 
Q 1038 2656 1286 2365 
Q 1534 2075 1959 2075 
z
" transform="scale(0.015625)"/>
       </defs>
       <use xlink:href="#DejaVuSans-4c"/>
       <use xlink:href="#DejaVuSans-30" transform="translate(55.712891 0)"/>
       <use xlink:href="#DejaVuSans-2d" transform="translate(119.335938 0)"/>
       <use xlink:href="#DejaVuSans-39" transform="translate(155.419922 0)"/>
      </g>
     </g>
    </g>
    <g id="text_12">
     <!-- Masked $D_{ones} \rightarrow O$ layers -->
     <g style="fill: #1f2937" transform="translate(96.584679 186.880392) scale(0.092 -0.092)">
      <defs>
       <path id="DejaVuSans-4d" d="M 628 4666 
L 1569 4666 
L 2759 1491 
L 3956 4666 
L 4897 4666 
L 4897 0 
L 4281 0 
L 4281 4097 
L 3078 897 
L 2444 897 
L 1241 4097 
L 1241 0 
L 628 0 
L 628 4666 
z
" transform="scale(0.015625)"/>
       <path id="DejaVuSans-73" d="M 2834 3397 
L 2834 2853 
Q 2591 2978 2328 3040 
Q 2066 3103 1784 3103 
Q 1356 3103 1142 2972 
Q 928 2841 928 2578 
Q 928 2378 1081 2264 
Q 1234 2150 1697 2047 
L 1894 2003 
Q 2506 1872 2764 1633 
Q 3022 1394 3022 966 
Q 3022 478 2636 193 
Q 2250 -91 1575 -91 
Q 1294 -91 989 -36 
Q 684 19 347 128 
L 347 722 
Q 666 556 975 473 
Q 1284 391 1588 391 
Q 1994 391 2212 530 
Q 2431 669 2431 922 
Q 2431 1156 2273 1281 
Q 2116 1406 1581 1522 
L 1381 1569 
Q 847 1681 609 1914 
Q 372 2147 372 2553 
Q 372 3047 722 3315 
Q 1072 3584 1716 3584 
Q 2034 3584 2315 3537 
Q 2597 3491 2834 3397 
z
" transform="scale(0.015625)"/>
       <path id="DejaVuSans-6b" d="M 581 4863 
L 1159 4863 
L 1159 1991 
L 2875 3500 
L 3609 3500 
L 1753 1863 
L 3688 0 
L 2938 0 
L 1159 1709 
L 1159 0 
L 581 0 
L 581 4863 
z
" transform="scale(0.015625)"/>
       <path id="DejaVuSans-64" d="M 2906 2969 
L 2906 4863 
L 3481 4863 
L 3481 0 
L 2906 0 
L 2906 525 
Q 2725 213 2448 61 
Q 2172 -91 1784 -91 
Q 1150 -91 751 415 
Q 353 922 353 1747 
Q 353 2572 751 3078 
Q 1150 3584 1784 3584 
Q 2172 3584 2448 3432 
Q 2725 3281 2906 2969 
z
M 947 1747 
Q 947 1113 1208 752 
Q 1469 391 1925 391 
Q 2381 391 2643 752 
Q 2906 1113 2906 1747 
Q 2906 2381 2643 2742 
Q 2381 3103 1925 3103 
Q 1469 3103 1208 2742 
Q 947 2381 947 1747 
z
" transform="scale(0.015625)"/>
       <path id="DejaVuSans-20" transform="scale(0.015625)"/>
       <path id="DejaVuSans-Oblique-44" d="M 1081 4666 
L 2438 4666 
Q 3519 4666 4070 4208 
Q 4622 3750 4622 2847 
Q 4622 2250 4412 1698 
Q 4203 1147 3834 769 
Q 3463 381 2891 190 
Q 2319 0 1538 0 
L 172 0 
L 1081 4666 
z
M 1613 4147 
L 909 519 
L 1734 519 
Q 2794 519 3375 1128 
Q 3956 1738 3956 2847 
Q 3956 3519 3581 3833 
Q 3206 4147 2406 4147 
L 1613 4147 
z
" transform="scale(0.015625)"/>
       <path id="DejaVuSans-Oblique-6f" d="M 1625 -91 
Q 1009 -91 651 289 
Q 294 669 294 1325 
Q 294 1706 417 2101 
Q 541 2497 738 2766 
Q 1047 3184 1428 3384 
Q 1809 3584 2291 3584 
Q 2888 3584 3255 3212 
Q 3622 2841 3622 2241 
Q 3622 1825 3500 1412 
Q 3378 1000 3181 728 
Q 2875 309 2494 109 
Q 2113 -91 1625 -91 
z
M 891 1344 
Q 891 869 1089 633 
Q 1288 397 1691 397 
Q 2269 397 2648 901 
Q 3028 1406 3028 2181 
Q 3028 2634 2825 2865 
Q 2622 3097 2228 3097 
Q 1903 3097 1650 2945 
Q 1397 2794 1197 2484 
Q 1050 2253 970 1956 
Q 891 1659 891 1344 
z
" transform="scale(0.015625)"/>
       <path id="DejaVuSans-Oblique-6e" d="M 3566 2113 
L 3156 0 
L 2578 0 
L 2988 2091 
Q 3016 2238 3031 2350 
Q 3047 2463 3047 2528 
Q 3047 2791 2881 2937 
Q 2716 3084 2419 3084 
Q 1956 3084 1622 2776 
Q 1288 2469 1184 1941 
L 800 0 
L 225 0 
L 903 3500 
L 1478 3500 
L 1363 2950 
Q 1603 3253 1940 3418 
Q 2278 3584 2650 3584 
Q 3113 3584 3367 3334 
Q 3622 3084 3622 2631 
Q 3622 2519 3608 2391 
Q 3594 2263 3566 2113 
z
" transform="scale(0.015625)"/>
       <path id="DejaVuSans-Oblique-65" d="M 3078 2063 
Q 3088 2113 3092 2166 
Q 3097 2219 3097 2272 
Q 3097 2653 2873 2875 
Q 2650 3097 2266 3097 
Q 1838 3097 1509 2826 
Q 1181 2556 1013 2059 
L 3078 2063 
z
M 3578 1613 
L 903 1613 
Q 884 1494 878 1425 
Q 872 1356 872 1306 
Q 872 872 1139 634 
Q 1406 397 1894 397 
Q 2269 397 2603 481 
Q 2938 566 3225 728 
L 3116 159 
Q 2806 34 2476 -28 
Q 2147 -91 1806 -91 
Q 1078 -91 686 257 
Q 294 606 294 1247 
Q 294 1794 489 2264 
Q 684 2734 1063 3103 
Q 1306 3334 1642 3459 
Q 1978 3584 2356 3584 
Q 2950 3584 3301 3228 
Q 3653 2872 3653 2272 
Q 3653 2128 3634 1964 
Q 3616 1800 3578 1613 
z
" transform="scale(0.015625)"/>
       <path id="DejaVuSans-Oblique-73" d="M 3200 3397 
L 3091 2853 
Q 2863 2978 2609 3040 
Q 2356 3103 2088 3103 
Q 1634 3103 1373 2948 
Q 1113 2794 1113 2528 
Q 1113 2219 1719 2053 
Q 1766 2041 1788 2034 
L 1972 1978 
Q 2547 1819 2739 1644 
Q 2931 1469 2931 1166 
Q 2931 609 2489 259 
Q 2047 -91 1331 -91 
Q 1053 -91 747 -37 
Q 441 16 72 128 
L 184 722 
Q 500 559 806 475 
Q 1113 391 1394 391 
Q 1816 391 2080 572 
Q 2344 753 2344 1031 
Q 2344 1331 1650 1516 
L 1591 1531 
L 1394 1581 
Q 956 1697 753 1886 
Q 550 2075 550 2369 
Q 550 2928 970 3256 
Q 1391 3584 2113 3584 
Q 2397 3584 2667 3537 
Q 2938 3491 3200 3397 
z
" transform="scale(0.015625)"/>
       <path id="DejaVuSans-2192" d="M 5050 2147 
L 5050 1866 
L 3822 638 
L 3447 1013 
L 4175 1741 
L 366 1741 
L 366 2272 
L 4175 2272 
L 3447 3000 
L 3822 3375 
L 5050 2147 
z
" transform="scale(0.015625)"/>
       <path id="DejaVuSans-Oblique-4f" d="M 2919 4238 
Q 2400 4238 2003 3986 
Q 1606 3734 1313 3219 
Q 1125 2891 1026 2522 
Q 928 2153 928 1778 
Q 928 1128 1239 775 
Q 1550 422 2119 422 
Q 2631 422 3032 676 
Q 3434 931 3719 1434 
Q 3909 1772 4009 2142 
Q 4109 2513 4109 2881 
Q 4109 3528 3796 3883 
Q 3484 4238 2919 4238 
z
M 2100 -91 
Q 1241 -91 748 418 
Q 256 928 256 1813 
Q 256 2319 448 2847 
Q 641 3375 978 3788 
Q 1375 4272 1862 4511 
Q 2350 4750 2938 4750 
Q 3794 4750 4287 4245 
Q 4781 3741 4781 2869 
Q 4781 2331 4593 1812 
Q 4406 1294 4056 872 
Q 3656 384 3173 146 
Q 2691 -91 2100 -91 
z
" transform="scale(0.015625)"/>
       <path id="DejaVuSans-79" d="M 2059 -325 
Q 1816 -950 1584 -1140 
Q 1353 -1331 966 -1331 
L 506 -1331 
L 506 -850 
L 844 -850 
Q 1081 -850 1212 -737 
Q 1344 -625 1503 -206 
L 1606 56 
L 191 3500 
L 800 3500 
L 1894 763 
L 2988 3500 
L 3597 3500 
L 2059 -325 
z
" transform="scale(0.015625)"/>
       <path id="DejaVuSans-72" d="M 2631 2963 
Q 2534 3019 2420 3045 
Q 2306 3072 2169 3072 
Q 1681 3072 1420 2755 
Q 1159 2438 1159 1844 
L 1159 0 
L 581 0 
L 581 3500 
L 1159 3500 
L 1159 2956 
Q 1341 3275 1631 3429 
Q 1922 3584 2338 3584 
Q 2397 3584 2469 3576 
Q 2541 3569 2628 3553 
L 2631 2963 
z
" transform="scale(0.015625)"/>
      </defs>
      <use xlink:href="#DejaVuSans-4d" transform="translate(0 0.015625)"/>
      <use xlink:href="#DejaVuSans-61" transform="translate(86.279297 0.015625)"/>
      <use xlink:href="#DejaVuSans-73" transform="translate(147.558594 0.015625)"/>
      <use xlink:href="#DejaVuSans-6b" transform="translate(199.658203 0.015625)"/>
      <use xlink:href="#DejaVuSans-65" transform="translate(257.568359 0.015625)"/>
      <use xlink:href="#DejaVuSans-64" transform="translate(319.091797 0.015625)"/>
      <use xlink:href="#DejaVuSans-20" transform="translate(382.568359 0.015625)"/>
      <use xlink:href="#DejaVuSans-Oblique-44" transform="translate(414.355469 0.015625)"/>
      <use xlink:href="#DejaVuSans-Oblique-6f" transform="translate(491.357422 -16.390625) scale(0.7)"/>
      <use xlink:href="#DejaVuSans-Oblique-6e" transform="translate(534.18457 -16.390625) scale(0.7)"/>
      <use xlink:href="#DejaVuSans-Oblique-65" transform="translate(578.549805 -16.390625) scale(0.7)"/>
      <use xlink:href="#DejaVuSans-Oblique-73" transform="translate(621.616211 -16.390625) scale(0.7)"/>
      <use xlink:href="#DejaVuSans-2192" transform="translate(680.302734 0.015625)"/>
      <use xlink:href="#DejaVuSans-Oblique-4f" transform="translate(783.574219 0.015625)"/>
      <use xlink:href="#DejaVuSans-20" transform="translate(862.285156 0.015625)"/>
      <use xlink:href="#DejaVuSans-6c" transform="translate(894.072266 0.015625)"/>
      <use xlink:href="#DejaVuSans-61" transform="translate(921.855469 0.015625)"/>
      <use xlink:href="#DejaVuSans-79" transform="translate(983.134766 0.015625)"/>
      <use xlink:href="#DejaVuSans-65" transform="translate(1042.314453 0.015625)"/>
      <use xlink:href="#DejaVuSans-72" transform="translate(1103.837891 0.015625)"/>
      <use xlink:href="#DejaVuSans-73" transform="translate(1144.951172 0.015625)"/>
     </g>
    </g>
   </g>
   <g id="matplotlib.axis_2">
    <g id="ytick_1">
     <g id="line2d_12">
      <path d="M 51.118688 148.573098 
L 252.26667 148.573098 
" clip-path="url(#p97ce087253)" style="fill: none; stroke: #d1d5db; stroke-opacity: 0.58; stroke-width: 0.7; stroke-linecap: square"/>
     </g>
     <g id="line2d_13">
      <defs>
       <path id="m9138eea982" d="M 0 0 
L -3.5 0 
" style="stroke: #1f2937; stroke-width: 0.8"/>
      </defs>
      <g>
       <use xlink:href="#m9138eea982" x="51.118688" y="148.573098" style="fill: #1f2937; stroke: #1f2937; stroke-width: 0.8"/>
      </g>
     </g>
     <g id="text_13">
      <!-- 0% -->
      <g style="fill: #1f2937" transform="translate(30.792875 151.764441) scale(0.084 -0.084)">
       <defs>
        <path id="DejaVuSans-25" d="M 4653 2053 
Q 4381 2053 4226 1822 
Q 4072 1591 4072 1178 
Q 4072 772 4226 539 
Q 4381 306 4653 306 
Q 4919 306 5073 539 
Q 5228 772 5228 1178 
Q 5228 1588 5073 1820 
Q 4919 2053 4653 2053 
z
M 4653 2450 
Q 5147 2450 5437 2106 
Q 5728 1763 5728 1178 
Q 5728 594 5436 251 
Q 5144 -91 4653 -91 
Q 4153 -91 3862 251 
Q 3572 594 3572 1178 
Q 3572 1766 3864 2108 
Q 4156 2450 4653 2450 
z
M 1428 4353 
Q 1159 4353 1004 4120 
Q 850 3888 850 3481 
Q 850 3069 1003 2837 
Q 1156 2606 1428 2606 
Q 1700 2606 1854 2837 
Q 2009 3069 2009 3481 
Q 2009 3884 1853 4118 
Q 1697 4353 1428 4353 
z
M 4250 4750 
L 4750 4750 
L 1831 -91 
L 1331 -91 
L 4250 4750 
z
M 1428 4750 
Q 1922 4750 2215 4408 
Q 2509 4066 2509 3481 
Q 2509 2891 2217 2550 
Q 1925 2209 1428 2209 
Q 931 2209 642 2551 
Q 353 2894 353 3481 
Q 353 4063 643 4406 
Q 934 4750 1428 4750 
z
" transform="scale(0.015625)"/>
       </defs>
       <use xlink:href="#DejaVuSans-30"/>
       <use xlink:href="#DejaVuSans-25" transform="translate(63.623047 0)"/>
      </g>
     </g>
    </g>
    <g id="ytick_2">
     <g id="line2d_14">
      <path d="M 51.118688 127.479681 
L 252.26667 127.479681 
" clip-path="url(#p97ce087253)" style="fill: none; stroke: #d1d5db; stroke-opacity: 0.58; stroke-width: 0.7; stroke-linecap: square"/>
     </g>
     <g id="line2d_15">
      <g>
       <use xlink:href="#m9138eea982" x="51.118688" y="127.479681" style="fill: #1f2937; stroke: #1f2937; stroke-width: 0.8"/>
      </g>
     </g>
     <g id="text_14">
      <!-- 20% -->
      <g style="fill: #1f2937" transform="translate(25.448375 130.671024) scale(0.084 -0.084)">
       <use xlink:href="#DejaVuSans-32"/>
       <use xlink:href="#DejaVuSans-30" transform="translate(63.623047 0)"/>
       <use xlink:href="#DejaVuSans-25" transform="translate(127.246094 0)"/>
      </g>
     </g>
    </g>
    <g id="ytick_3">
     <g id="line2d_16">
      <path d="M 51.118688 106.386264 
L 252.26667 106.386264 
" clip-path="url(#p97ce087253)" style="fill: none; stroke: #d1d5db; stroke-opacity: 0.58; stroke-width: 0.7; stroke-linecap: square"/>
     </g>
     <g id="line2d_17">
      <g>
       <use xlink:href="#m9138eea982" x="51.118688" y="106.386264" style="fill: #1f2937; stroke: #1f2937; stroke-width: 0.8"/>
      </g>
     </g>
     <g id="text_15">
      <!-- 40% -->
      <g style="fill: #1f2937" transform="translate(25.448375 109.577607) scale(0.084 -0.084)">
       <use xlink:href="#DejaVuSans-34"/>
       <use xlink:href="#DejaVuSans-30" transform="translate(63.623047 0)"/>
       <use xlink:href="#DejaVuSans-25" transform="translate(127.246094 0)"/>
      </g>
     </g>
    </g>
    <g id="ytick_4">
     <g id="line2d_18">
      <path d="M 51.118688 85.292847 
L 252.26667 85.292847 
" clip-path="url(#p97ce087253)" style="fill: none; stroke: #d1d5db; stroke-opacity: 0.58; stroke-width: 0.7; stroke-linecap: square"/>
     </g>
     <g id="line2d_19">
      <g>
       <use xlink:href="#m9138eea982" x="51.118688" y="85.292847" style="fill: #1f2937; stroke: #1f2937; stroke-width: 0.8"/>
      </g>
     </g>
     <g id="text_16">
      <!-- 60% -->
      <g style="fill: #1f2937" transform="translate(25.448375 88.48419) scale(0.084 -0.084)">
       <use xlink:href="#DejaVuSans-36"/>
       <use xlink:href="#DejaVuSans-30" transform="translate(63.623047 0)"/>
       <use xlink:href="#DejaVuSans-25" transform="translate(127.246094 0)"/>
      </g>
     </g>
    </g>
    <g id="ytick_5">
     <g id="line2d_20">
      <path d="M 51.118688 64.19943 
L 252.26667 64.19943 
" clip-path="url(#p97ce087253)" style="fill: none; stroke: #d1d5db; stroke-opacity: 0.58; stroke-width: 0.7; stroke-linecap: square"/>
     </g>
     <g id="line2d_21">
      <g>
       <use xlink:href="#m9138eea982" x="51.118688" y="64.19943" style="fill: #1f2937; stroke: #1f2937; stroke-width: 0.8"/>
      </g>
     </g>
     <g id="text_17">
      <!-- 80% -->
      <g style="fill: #1f2937" transform="translate(25.448375 67.390773) scale(0.084 -0.084)">
       <use xlink:href="#DejaVuSans-38"/>
       <use xlink:href="#DejaVuSans-30" transform="translate(63.623047 0)"/>
       <use xlink:href="#DejaVuSans-25" transform="translate(127.246094 0)"/>
      </g>
     </g>
    </g>
    <g id="ytick_6">
     <g id="line2d_22">
      <path d="M 51.118688 43.106013 
L 252.26667 43.106013 
" clip-path="url(#p97ce087253)" style="fill: none; stroke: #d1d5db; stroke-opacity: 0.58; stroke-width: 0.7; stroke-linecap: square"/>
     </g>
     <g id="line2d_23">
      <g>
       <use xlink:href="#m9138eea982" x="51.118688" y="43.106013" style="fill: #1f2937; stroke: #1f2937; stroke-width: 0.8"/>
      </g>
     </g>
     <g id="text_18">
      <!-- 100% -->
      <g style="fill: #1f2937" transform="translate(20.103875 46.297356) scale(0.084 -0.084)">
       <use xlink:href="#DejaVuSans-31"/>
       <use xlink:href="#DejaVuSans-30" transform="translate(63.623047 0)"/>
       <use xlink:href="#DejaVuSans-30" transform="translate(127.246094 0)"/>
       <use xlink:href="#DejaVuSans-25" transform="translate(190.869141 0)"/>
      </g>
     </g>
    </g>
    <g id="text_19">
     <!-- Exact answer accuracy -->
     <g style="fill: #1f2937" transform="translate(14.190563 147.330768) rotate(-90) scale(0.092 -0.092)">
      <defs>
       <path id="DejaVuSans-45" d="M 628 4666 
L 3578 4666 
L 3578 4134 
L 1259 4134 
L 1259 2753 
L 3481 2753 
L 3481 2222 
L 1259 2222 
L 1259 531 
L 3634 531 
L 3634 0 
L 628 0 
L 628 4666 
z
" transform="scale(0.015625)"/>
       <path id="DejaVuSans-78" d="M 3513 3500 
L 2247 1797 
L 3578 0 
L 2900 0 
L 1881 1375 
L 863 0 
L 184 0 
L 1544 1831 
L 300 3500 
L 978 3500 
L 1906 2253 
L 2834 3500 
L 3513 3500 
z
" transform="scale(0.015625)"/>
       <path id="DejaVuSans-74" d="M 1172 4494 
L 1172 3500 
L 2356 3500 
L 2356 3053 
L 1172 3053 
L 1172 1153 
Q 1172 725 1289 603 
Q 1406 481 1766 481 
L 2356 481 
L 2356 0 
L 1766 0 
Q 1100 0 847 248 
Q 594 497 594 1153 
L 594 3053 
L 172 3053 
L 172 3500 
L 594 3500 
L 594 4494 
L 1172 4494 
z
" transform="scale(0.015625)"/>
       <path id="DejaVuSans-77" d="M 269 3500 
L 844 3500 
L 1563 769 
L 2278 3500 
L 2956 3500 
L 3675 769 
L 4391 3500 
L 4966 3500 
L 4050 0 
L 3372 0 
L 2619 2869 
L 1863 0 
L 1184 0 
L 269 3500 
z
" transform="scale(0.015625)"/>
       <path id="DejaVuSans-75" d="M 544 1381 
L 544 3500 
L 1119 3500 
L 1119 1403 
Q 1119 906 1312 657 
Q 1506 409 1894 409 
Q 2359 409 2629 706 
Q 2900 1003 2900 1516 
L 2900 3500 
L 3475 3500 
L 3475 0 
L 2900 0 
L 2900 538 
Q 2691 219 2414 64 
Q 2138 -91 1772 -91 
Q 1169 -91 856 284 
Q 544 659 544 1381 
z
M 1991 3584 
L 1991 3584 
z
" transform="scale(0.015625)"/>
      </defs>
      <use xlink:href="#DejaVuSans-45"/>
      <use xlink:href="#DejaVuSans-78" transform="translate(63.183594 0)"/>
      <use xlink:href="#DejaVuSans-61" transform="translate(122.363281 0)"/>
      <use xlink:href="#DejaVuSans-63" transform="translate(183.642578 0)"/>
      <use xlink:href="#DejaVuSans-74" transform="translate(238.623047 0)"/>
      <use xlink:href="#DejaVuSans-20" transform="translate(277.832031 0)"/>
      <use xlink:href="#DejaVuSans-61" transform="translate(309.619141 0)"/>
      <use xlink:href="#DejaVuSans-6e" transform="translate(370.898438 0)"/>
      <use xlink:href="#DejaVuSans-73" transform="translate(434.277344 0)"/>
      <use xlink:href="#DejaVuSans-77" transform="translate(486.376953 0)"/>
      <use xlink:href="#DejaVuSans-65" transform="translate(568.164062 0)"/>
      <use xlink:href="#DejaVuSans-72" transform="translate(629.6875 0)"/>
      <use xlink:href="#DejaVuSans-20" transform="translate(670.800781 0)"/>
      <use xlink:href="#DejaVuSans-61" transform="translate(702.587891 0)"/>
      <use xlink:href="#DejaVuSans-63" transform="translate(763.867188 0)"/>
      <use xlink:href="#DejaVuSans-63" transform="translate(818.847656 0)"/>
      <use xlink:href="#DejaVuSans-75" transform="translate(873.828125 0)"/>
      <use xlink:href="#DejaVuSans-72" transform="translate(937.207031 0)"/>
      <use xlink:href="#DejaVuSans-61" transform="translate(978.320312 0)"/>
      <use xlink:href="#DejaVuSans-63" transform="translate(1039.599609 0)"/>
      <use xlink:href="#DejaVuSans-79" transform="translate(1094.580078 0)"/>
     </g>
    </g>
   </g>
   <g id="line2d_24">
    <path d="M 60.261778 43.28031 
L 78.547958 43.28031 
L 96.834138 71.499507 
L 115.120318 89.664867 
L 133.406498 100.364095 
L 151.692679 104.405062 
L 169.978859 107.930436 
L 188.265039 110.453065 
L 206.551219 112.450361 
L 224.837399 113.90781 
L 243.123579 114.760449 
" clip-path="url(#p97ce087253)" style="fill: none; stroke: #d97706; stroke-width: 2.4; stroke-linecap: square"/>
    <defs>
     <path id="m8340f59764" d="M 0 2.1 
C 0.556927 2.1 1.091118 1.878731 1.484924 1.484924 
C 1.878731 1.091118 2.1 0.556927 2.1 0 
C 2.1 -0.556927 1.878731 -1.091118 1.484924 -1.484924 
C 1.091118 -1.878731 0.556927 -2.1 0 -2.1 
C -0.556927 -2.1 -1.091118 -1.878731 -1.484924 -1.484924 
C -1.878731 -1.091118 -2.1 -0.556927 -2.1 0 
C -2.1 0.556927 -1.878731 1.091118 -1.484924 1.484924 
C -1.091118 1.878731 -0.556927 2.1 0 2.1 
z
" style="stroke: #d97706"/>
    </defs>
    <g clip-path="url(#p97ce087253)">
     <use xlink:href="#m8340f59764" x="60.261778" y="43.28031" style="fill: #d97706; stroke: #d97706"/>
     <use xlink:href="#m8340f59764" x="78.547958" y="43.28031" style="fill: #d97706; stroke: #d97706"/>
     <use xlink:href="#m8340f59764" x="96.834138" y="71.499507" style="fill: #d97706; stroke: #d97706"/>
     <use xlink:href="#m8340f59764" x="115.120318" y="89.664867" style="fill: #d97706; stroke: #d97706"/>
     <use xlink:href="#m8340f59764" x="133.406498" y="100.364095" style="fill: #d97706; stroke: #d97706"/>
     <use xlink:href="#m8340f59764" x="151.692679" y="104.405062" style="fill: #d97706; stroke: #d97706"/>
     <use xlink:href="#m8340f59764" x="169.978859" y="107.930436" style="fill: #d97706; stroke: #d97706"/>
     <use xlink:href="#m8340f59764" x="188.265039" y="110.453065" style="fill: #d97706; stroke: #d97706"/>
     <use xlink:href="#m8340f59764" x="206.551219" y="112.450361" style="fill: #d97706; stroke: #d97706"/>
     <use xlink:href="#m8340f59764" x="224.837399" y="113.90781" style="fill: #d97706; stroke: #d97706"/>
     <use xlink:href="#m8340f59764" x="243.123579" y="114.760449" style="fill: #d97706; stroke: #d97706"/>
    </g>
   </g>
   <g id="patch_3">
    <path d="M 51.118688 148.573098 
L 51.118688 39.942 
" style="fill: none; stroke: #1f2937; stroke-width: 0.8; stroke-linejoin: miter; stroke-linecap: square"/>
   </g>
   <g id="patch_4">
    <path d="M 51.118688 148.573098 
L 252.26667 148.573098 
" style="fill: none; stroke: #1f2937; stroke-width: 0.8; stroke-linejoin: miter; stroke-linecap: square"/>
   </g>
   <g id="text_20">
    <!-- Forward sweep -->
    <g style="fill: #1f2937" transform="translate(113.223538 34.942) scale(0.102 -0.102)">
     <defs>
      <path id="DejaVuSans-46" d="M 628 4666 
L 3309 4666 
L 3309 4134 
L 1259 4134 
L 1259 2759 
L 3109 2759 
L 3109 2228 
L 1259 2228 
L 1259 0 
L 628 0 
L 628 4666 
z
" transform="scale(0.015625)"/>
      <path id="DejaVuSans-6f" d="M 1959 3097 
Q 1497 3097 1228 2736 
Q 959 2375 959 1747 
Q 959 1119 1226 758 
Q 1494 397 1959 397 
Q 2419 397 2687 759 
Q 2956 1122 2956 1747 
Q 2956 2369 2687 2733 
Q 2419 3097 1959 3097 
z
M 1959 3584 
Q 2709 3584 3137 3096 
Q 3566 2609 3566 1747 
Q 3566 888 3137 398 
Q 2709 -91 1959 -91 
Q 1206 -91 779 398 
Q 353 888 353 1747 
Q 353 2609 779 3096 
Q 1206 3584 1959 3584 
z
" transform="scale(0.015625)"/>
      <path id="DejaVuSans-70" d="M 1159 525 
L 1159 -1331 
L 581 -1331 
L 581 3500 
L 1159 3500 
L 1159 2969 
Q 1341 3281 1617 3432 
Q 1894 3584 2278 3584 
Q 2916 3584 3314 3078 
Q 3713 2572 3713 1747 
Q 3713 922 3314 415 
Q 2916 -91 2278 -91 
Q 1894 -91 1617 61 
Q 1341 213 1159 525 
z
M 3116 1747 
Q 3116 2381 2855 2742 
Q 2594 3103 2138 3103 
Q 1681 3103 1420 2742 
Q 1159 2381 1159 1747 
Q 1159 1113 1420 752 
Q 1681 391 2138 391 
Q 2594 391 2855 752 
Q 3116 1113 3116 1747 
z
" transform="scale(0.015625)"/>
     </defs>
     <use xlink:href="#DejaVuSans-46"/>
     <use xlink:href="#DejaVuSans-6f" transform="translate(53.894531 0)"/>
     <use xlink:href="#DejaVuSans-72" transform="translate(115.076172 0)"/>
     <use xlink:href="#DejaVuSans-77" transform="translate(156.189453 0)"/>
     <use xlink:href="#DejaVuSans-61" transform="translate(237.976562 0)"/>
     <use xlink:href="#DejaVuSans-72" transform="translate(299.255859 0)"/>
     <use xlink:href="#DejaVuSans-64" transform="translate(338.619141 0)"/>
     <use xlink:href="#DejaVuSans-20" transform="translate(402.095703 0)"/>
     <use xlink:href="#DejaVuSans-73" transform="translate(433.882812 0)"/>
     <use xlink:href="#DejaVuSans-77" transform="translate(485.982422 0)"/>
     <use xlink:href="#DejaVuSans-65" transform="translate(567.769531 0)"/>
     <use xlink:href="#DejaVuSans-65" transform="translate(629.292969 0)"/>
     <use xlink:href="#DejaVuSans-70" transform="translate(690.816406 0)"/>
    </g>
   </g>
  </g>
  <g id="axes_2">
   <g id="patch_5">
    <path d="M 298.530705 148.573098 
L 499.678687 148.573098 
L 499.678687 39.942 
L 298.530705 39.942 
z
" style="fill: #ffffff"/>
   </g>
   <g id="FillBetweenPolyCollection_2">
    <defs>
     <path id="m2fdf5026ea" d="M 307.673796 -328.66489 
L 307.673796 -328.141999 
L 325.959976 -328.141999 
L 344.246156 -328.141999 
L 362.532336 -328.141999 
L 380.818516 -328.08971 
L 399.104696 -328.08971 
L 417.390877 -328.08971 
L 435.677057 -324.462109 
L 453.963237 -310.20673 
L 472.249417 -257.331202 
L 490.535597 -256.64967 
L 490.535597 -257.604023 
L 490.535597 -257.604023 
L 472.249417 -263.774135 
L 453.963237 -324.220318 
L 435.677057 -328.031308 
L 417.390877 -328.66489 
L 399.104696 -328.66489 
L 380.818516 -328.66489 
L 362.532336 -328.66489 
L 344.246156 -328.66489 
L 325.959976 -328.66489 
L 307.673796 -328.66489 
z
"/>
    </defs>
    <g clip-path="url(#pb3be0124a2)">
     <use xlink:href="#m2fdf5026ea" x="0" y="371.770902" style="fill: #d97706; fill-opacity: 0.16"/>
    </g>
   </g>
   <g id="matplotlib.axis_3">
    <g id="xtick_12">
     <g id="line2d_25">
      <g>
       <use xlink:href="#m6a7e05e051" x="307.673796" y="148.573098" style="fill: #1f2937; stroke: #1f2937; stroke-width: 0.8"/>
      </g>
     </g>
     <g id="text_21">
      <!-- clean -->
      <g style="fill: #1f2937" transform="translate(288.795485 174.511786) rotate(-38) scale(0.084 -0.084)">
       <use xlink:href="#DejaVuSans-63"/>
       <use xlink:href="#DejaVuSans-6c" transform="translate(54.980469 0)"/>
       <use xlink:href="#DejaVuSans-65" transform="translate(82.763672 0)"/>
       <use xlink:href="#DejaVuSans-61" transform="translate(144.287109 0)"/>
       <use xlink:href="#DejaVuSans-6e" transform="translate(205.566406 0)"/>
      </g>
     </g>
    </g>
    <g id="xtick_13">
     <g id="line2d_26">
      <g>
       <use xlink:href="#m6a7e05e051" x="325.959976" y="148.573098" style="fill: #1f2937; stroke: #1f2937; stroke-width: 0.8"/>
      </g>
     </g>
     <g id="text_22">
      <!-- L9 -->
      <g style="fill: #1f2937" transform="translate(316.984744 166.774653) rotate(-38) scale(0.084 -0.084)">
       <use xlink:href="#DejaVuSans-4c"/>
       <use xlink:href="#DejaVuSans-39" transform="translate(55.712891 0)"/>
      </g>
     </g>
    </g>
    <g id="xtick_14">
     <g id="line2d_27">
      <g>
       <use xlink:href="#m6a7e05e051" x="344.246156" y="148.573098" style="fill: #1f2937; stroke: #1f2937; stroke-width: 0.8"/>
      </g>
     </g>
     <g id="text_23">
      <!-- L8-9 -->
      <g style="fill: #1f2937" transform="translate(328.671285 171.930857) rotate(-38) scale(0.084 -0.084)">
       <use xlink:href="#DejaVuSans-4c"/>
       <use xlink:href="#DejaVuSans-38" transform="translate(55.712891 0)"/>
       <use xlink:href="#DejaVuSans-2d" transform="translate(119.335938 0)"/>
       <use xlink:href="#DejaVuSans-39" transform="translate(155.419922 0)"/>
      </g>
     </g>
    </g>
    <g id="xtick_15">
     <g id="line2d_28">
      <g>
       <use xlink:href="#m6a7e05e051" x="362.532336" y="148.573098" style="fill: #1f2937; stroke: #1f2937; stroke-width: 0.8"/>
      </g>
     </g>
     <g id="text_24">
      <!-- L7-9 -->
      <g style="fill: #1f2937" transform="translate(346.957465 171.930857) rotate(-38) scale(0.084 -0.084)">
       <use xlink:href="#DejaVuSans-4c"/>
       <use xlink:href="#DejaVuSans-37" transform="translate(55.712891 0)"/>
       <use xlink:href="#DejaVuSans-2d" transform="translate(119.335938 0)"/>
       <use xlink:href="#DejaVuSans-39" transform="translate(155.419922 0)"/>
      </g>
     </g>
    </g>
    <g id="xtick_16">
     <g id="line2d_29">
      <g>
       <use xlink:href="#m6a7e05e051" x="380.818516" y="148.573098" style="fill: #1f2937; stroke: #1f2937; stroke-width: 0.8"/>
      </g>
     </g>
     <g id="text_25">
      <!-- L6-9 -->
      <g style="fill: #1f2937" transform="translate(365.243646 171.930857) rotate(-38) scale(0.084 -0.084)">
       <use xlink:href="#DejaVuSans-4c"/>
       <use xlink:href="#DejaVuSans-36" transform="translate(55.712891 0)"/>
       <use xlink:href="#DejaVuSans-2d" transform="translate(119.335938 0)"/>
       <use xlink:href="#DejaVuSans-39" transform="translate(155.419922 0)"/>
      </g>
     </g>
    </g>
    <g id="xtick_17">
     <g id="line2d_30">
      <g>
       <use xlink:href="#m6a7e05e051" x="399.104696" y="148.573098" style="fill: #1f2937; stroke: #1f2937; stroke-width: 0.8"/>
      </g>
     </g>
     <g id="text_26">
      <!-- L5-9 -->
      <g style="fill: #1f2937" transform="translate(383.529826 171.930857) rotate(-38) scale(0.084 -0.084)">
       <use xlink:href="#DejaVuSans-4c"/>
       <use xlink:href="#DejaVuSans-35" transform="translate(55.712891 0)"/>
       <use xlink:href="#DejaVuSans-2d" transform="translate(119.335938 0)"/>
       <use xlink:href="#DejaVuSans-39" transform="translate(155.419922 0)"/>
      </g>
     </g>
    </g>
    <g id="xtick_18">
     <g id="line2d_31">
      <g>
       <use xlink:href="#m6a7e05e051" x="417.390877" y="148.573098" style="fill: #1f2937; stroke: #1f2937; stroke-width: 0.8"/>
      </g>
     </g>
     <g id="text_27">
      <!-- L4-9 -->
      <g style="fill: #1f2937" transform="translate(401.816006 171.930857) rotate(-38) scale(0.084 -0.084)">
       <use xlink:href="#DejaVuSans-4c"/>
       <use xlink:href="#DejaVuSans-34" transform="translate(55.712891 0)"/>
       <use xlink:href="#DejaVuSans-2d" transform="translate(119.335938 0)"/>
       <use xlink:href="#DejaVuSans-39" transform="translate(155.419922 0)"/>
      </g>
     </g>
    </g>
    <g id="xtick_19">
     <g id="line2d_32">
      <g>
       <use xlink:href="#m6a7e05e051" x="435.677057" y="148.573098" style="fill: #1f2937; stroke: #1f2937; stroke-width: 0.8"/>
      </g>
     </g>
     <g id="text_28">
      <!-- L3-9 -->
      <g style="fill: #1f2937" transform="translate(420.102186 171.930857) rotate(-38) scale(0.084 -0.084)">
       <use xlink:href="#DejaVuSans-4c"/>
       <use xlink:href="#DejaVuSans-33" transform="translate(55.712891 0)"/>
       <use xlink:href="#DejaVuSans-2d" transform="translate(119.335938 0)"/>
       <use xlink:href="#DejaVuSans-39" transform="translate(155.419922 0)"/>
      </g>
     </g>
    </g>
    <g id="xtick_20">
     <g id="line2d_33">
      <g>
       <use xlink:href="#m6a7e05e051" x="453.963237" y="148.573098" style="fill: #1f2937; stroke: #1f2937; stroke-width: 0.8"/>
      </g>
     </g>
     <g id="text_29">
      <!-- L2-9 -->
      <g style="fill: #1f2937" transform="translate(438.388366 171.930857) rotate(-38) scale(0.084 -0.084)">
       <use xlink:href="#DejaVuSans-4c"/>
       <use xlink:href="#DejaVuSans-32" transform="translate(55.712891 0)"/>
       <use xlink:href="#DejaVuSans-2d" transform="translate(119.335938 0)"/>
       <use xlink:href="#DejaVuSans-39" transform="translate(155.419922 0)"/>
      </g>
     </g>
    </g>
    <g id="xtick_21">
     <g id="line2d_34">
      <g>
       <use xlink:href="#m6a7e05e051" x="472.249417" y="148.573098" style="fill: #1f2937; stroke: #1f2937; stroke-width: 0.8"/>
      </g>
     </g>
     <g id="text_30">
      <!-- L1-9 -->
      <g style="fill: #1f2937" transform="translate(456.674546 171.930857) rotate(-38) scale(0.084 -0.084)">
       <use xlink:href="#DejaVuSans-4c"/>
       <use xlink:href="#DejaVuSans-31" transform="translate(55.712891 0)"/>
       <use xlink:href="#DejaVuSans-2d" transform="translate(119.335938 0)"/>
       <use xlink:href="#DejaVuSans-39" transform="translate(155.419922 0)"/>
      </g>
     </g>
    </g>
    <g id="xtick_22">
     <g id="line2d_35">
      <g>
       <use xlink:href="#m6a7e05e051" x="490.535597" y="148.573098" style="fill: #1f2937; stroke: #1f2937; stroke-width: 0.8"/>
      </g>
     </g>
     <g id="text_31">
      <!-- L0-9 -->
      <g style="fill: #1f2937" transform="translate(474.960727 171.930857) rotate(-38) scale(0.084 -0.084)">
       <use xlink:href="#DejaVuSans-4c"/>
       <use xlink:href="#DejaVuSans-30" transform="translate(55.712891 0)"/>
       <use xlink:href="#DejaVuSans-2d" transform="translate(119.335938 0)"/>
       <use xlink:href="#DejaVuSans-39" transform="translate(155.419922 0)"/>
      </g>
     </g>
    </g>
    <g id="text_32">
     <!-- Masked $D_{ones} \rightarrow O$ layers -->
     <g style="fill: #1f2937" transform="translate(343.996696 186.880392) scale(0.092 -0.092)">
      <use xlink:href="#DejaVuSans-4d" transform="translate(0 0.015625)"/>
      <use xlink:href="#DejaVuSans-61" transform="translate(86.279297 0.015625)"/>
      <use xlink:href="#DejaVuSans-73" transform="translate(147.558594 0.015625)"/>
      <use xlink:href="#DejaVuSans-6b" transform="translate(199.658203 0.015625)"/>
      <use xlink:href="#DejaVuSans-65" transform="translate(257.568359 0.015625)"/>
      <use xlink:href="#DejaVuSans-64" transform="translate(319.091797 0.015625)"/>
      <use xlink:href="#DejaVuSans-20" transform="translate(382.568359 0.015625)"/>
      <use xlink:href="#DejaVuSans-Oblique-44" transform="translate(414.355469 0.015625)"/>
      <use xlink:href="#DejaVuSans-Oblique-6f" transform="translate(491.357422 -16.390625) scale(0.7)"/>
      <use xlink:href="#DejaVuSans-Oblique-6e" transform="translate(534.18457 -16.390625) scale(0.7)"/>
      <use xlink:href="#DejaVuSans-Oblique-65" transform="translate(578.549805 -16.390625) scale(0.7)"/>
      <use xlink:href="#DejaVuSans-Oblique-73" transform="translate(621.616211 -16.390625) scale(0.7)"/>
      <use xlink:href="#DejaVuSans-2192" transform="translate(680.302734 0.015625)"/>
      <use xlink:href="#DejaVuSans-Oblique-4f" transform="translate(783.574219 0.015625)"/>
      <use xlink:href="#DejaVuSans-20" transform="translate(862.285156 0.015625)"/>
      <use xlink:href="#DejaVuSans-6c" transform="translate(894.072266 0.015625)"/>
      <use xlink:href="#DejaVuSans-61" transform="translate(921.855469 0.015625)"/>
      <use xlink:href="#DejaVuSans-79" transform="translate(983.134766 0.015625)"/>
      <use xlink:href="#DejaVuSans-65" transform="translate(1042.314453 0.015625)"/>
      <use xlink:href="#DejaVuSans-72" transform="translate(1103.837891 0.015625)"/>
      <use xlink:href="#DejaVuSans-73" transform="translate(1144.951172 0.015625)"/>
     </g>
    </g>
   </g>
   <g id="matplotlib.axis_4">
    <g id="ytick_7">
     <g id="line2d_36">
      <path d="M 298.530705 148.573098 
L 499.678687 148.573098 
" clip-path="url(#pb3be0124a2)" style="fill: none; stroke: #d1d5db; stroke-opacity: 0.58; stroke-width: 0.7; stroke-linecap: square"/>
     </g>
     <g id="line2d_37">
      <g>
       <use xlink:href="#m9138eea982" x="298.530705" y="148.573098" style="fill: #1f2937; stroke: #1f2937; stroke-width: 0.8"/>
      </g>
     </g>
    </g>
    <g id="ytick_8">
     <g id="line2d_38">
      <path d="M 298.530705 127.479681 
L 499.678687 127.479681 
" clip-path="url(#pb3be0124a2)" style="fill: none; stroke: #d1d5db; stroke-opacity: 0.58; stroke-width: 0.7; stroke-linecap: square"/>
     </g>
     <g id="line2d_39">
      <g>
       <use xlink:href="#m9138eea982" x="298.530705" y="127.479681" style="fill: #1f2937; stroke: #1f2937; stroke-width: 0.8"/>
      </g>
     </g>
    </g>
    <g id="ytick_9">
     <g id="line2d_40">
      <path d="M 298.530705 106.386264 
L 499.678687 106.386264 
" clip-path="url(#pb3be0124a2)" style="fill: none; stroke: #d1d5db; stroke-opacity: 0.58; stroke-width: 0.7; stroke-linecap: square"/>
     </g>
     <g id="line2d_41">
      <g>
       <use xlink:href="#m9138eea982" x="298.530705" y="106.386264" style="fill: #1f2937; stroke: #1f2937; stroke-width: 0.8"/>
      </g>
     </g>
    </g>
    <g id="ytick_10">
     <g id="line2d_42">
      <path d="M 298.530705 85.292847 
L 499.678687 85.292847 
" clip-path="url(#pb3be0124a2)" style="fill: none; stroke: #d1d5db; stroke-opacity: 0.58; stroke-width: 0.7; stroke-linecap: square"/>
     </g>
     <g id="line2d_43">
      <g>
       <use xlink:href="#m9138eea982" x="298.530705" y="85.292847" style="fill: #1f2937; stroke: #1f2937; stroke-width: 0.8"/>
      </g>
     </g>
    </g>
    <g id="ytick_11">
     <g id="line2d_44">
      <path d="M 298.530705 64.19943 
L 499.678687 64.19943 
" clip-path="url(#pb3be0124a2)" style="fill: none; stroke: #d1d5db; stroke-opacity: 0.58; stroke-width: 0.7; stroke-linecap: square"/>
     </g>
     <g id="line2d_45">
      <g>
       <use xlink:href="#m9138eea982" x="298.530705" y="64.19943" style="fill: #1f2937; stroke: #1f2937; stroke-width: 0.8"/>
      </g>
     </g>
    </g>
    <g id="ytick_12">
     <g id="line2d_46">
      <path d="M 298.530705 43.106013 
L 499.678687 43.106013 
" clip-path="url(#pb3be0124a2)" style="fill: none; stroke: #d1d5db; stroke-opacity: 0.58; stroke-width: 0.7; stroke-linecap: square"/>
     </g>
     <g id="line2d_47">
      <g>
       <use xlink:href="#m9138eea982" x="298.530705" y="43.106013" style="fill: #1f2937; stroke: #1f2937; stroke-width: 0.8"/>
      </g>
     </g>
    </g>
   </g>
   <g id="line2d_48">
    <path d="M 307.673796 43.28031 
L 325.959976 43.28031 
L 344.246156 43.28031 
L 362.532336 43.28031 
L 380.818516 43.297739 
L 399.104696 43.316671 
L 417.390877 43.373465 
L 435.677057 45.275884 
L 453.963237 52.559775 
L 472.249417 111.5993 
L 490.535597 114.760449 
" clip-path="url(#pb3be0124a2)" style="fill: none; stroke: #d97706; stroke-width: 2.4; stroke-linecap: square"/>
    <g clip-path="url(#pb3be0124a2)">
     <use xlink:href="#m8340f59764" x="307.673796" y="43.28031" style="fill: #d97706; stroke: #d97706"/>
     <use xlink:href="#m8340f59764" x="325.959976" y="43.28031" style="fill: #d97706; stroke: #d97706"/>
     <use xlink:href="#m8340f59764" x="344.246156" y="43.28031" style="fill: #d97706; stroke: #d97706"/>
     <use xlink:href="#m8340f59764" x="362.532336" y="43.28031" style="fill: #d97706; stroke: #d97706"/>
     <use xlink:href="#m8340f59764" x="380.818516" y="43.297739" style="fill: #d97706; stroke: #d97706"/>
     <use xlink:href="#m8340f59764" x="399.104696" y="43.316671" style="fill: #d97706; stroke: #d97706"/>
     <use xlink:href="#m8340f59764" x="417.390877" y="43.373465" style="fill: #d97706; stroke: #d97706"/>
     <use xlink:href="#m8340f59764" x="435.677057" y="45.275884" style="fill: #d97706; stroke: #d97706"/>
     <use xlink:href="#m8340f59764" x="453.963237" y="52.559775" style="fill: #d97706; stroke: #d97706"/>
     <use xlink:href="#m8340f59764" x="472.249417" y="111.5993" style="fill: #d97706; stroke: #d97706"/>
     <use xlink:href="#m8340f59764" x="490.535597" y="114.760449" style="fill: #d97706; stroke: #d97706"/>
    </g>
   </g>
   <g id="patch_6">
    <path d="M 298.530705 148.573098 
L 298.530705 39.942 
" style="fill: none; stroke: #1f2937; stroke-width: 0.8; stroke-linejoin: miter; stroke-linecap: square"/>
   </g>
   <g id="patch_7">
    <path d="M 298.530705 148.573098 
L 499.678688 148.573098 
" style="fill: none; stroke: #1f2937; stroke-width: 0.8; stroke-linejoin: miter; stroke-linecap: square"/>
   </g>
   <g id="text_33">
    <!-- Reverse sweep -->
    <g style="fill: #1f2937" transform="translate(360.641931 34.942) scale(0.102 -0.102)">
     <defs>
      <path id="DejaVuSans-52" d="M 2841 2188 
Q 3044 2119 3236 1894 
Q 3428 1669 3622 1275 
L 4263 0 
L 3584 0 
L 2988 1197 
Q 2756 1666 2539 1819 
Q 2322 1972 1947 1972 
L 1259 1972 
L 1259 0 
L 628 0 
L 628 4666 
L 2053 4666 
Q 2853 4666 3247 4331 
Q 3641 3997 3641 3322 
Q 3641 2881 3436 2590 
Q 3231 2300 2841 2188 
z
M 1259 4147 
L 1259 2491 
L 2053 2491 
Q 2509 2491 2742 2702 
Q 2975 2913 2975 3322 
Q 2975 3731 2742 3939 
Q 2509 4147 2053 4147 
L 1259 4147 
z
" transform="scale(0.015625)"/>
      <path id="DejaVuSans-76" d="M 191 3500 
L 800 3500 
L 1894 563 
L 2988 3500 
L 3597 3500 
L 2284 0 
L 1503 0 
L 191 3500 
z
" transform="scale(0.015625)"/>
     </defs>
     <use xlink:href="#DejaVuSans-52"/>
     <use xlink:href="#DejaVuSans-65" transform="translate(64.982422 0)"/>
     <use xlink:href="#DejaVuSans-76" transform="translate(126.505859 0)"/>
     <use xlink:href="#DejaVuSans-65" transform="translate(185.685547 0)"/>
     <use xlink:href="#DejaVuSans-72" transform="translate(247.208984 0)"/>
     <use xlink:href="#DejaVuSans-73" transform="translate(288.322266 0)"/>
     <use xlink:href="#DejaVuSans-65" transform="translate(340.421875 0)"/>
     <use xlink:href="#DejaVuSans-20" transform="translate(401.945312 0)"/>
     <use xlink:href="#DejaVuSans-73" transform="translate(433.732422 0)"/>
     <use xlink:href="#DejaVuSans-77" transform="translate(485.832031 0)"/>
     <use xlink:href="#DejaVuSans-65" transform="translate(567.619141 0)"/>
     <use xlink:href="#DejaVuSans-65" transform="translate(629.142578 0)"/>
     <use xlink:href="#DejaVuSans-70" transform="translate(690.666016 0)"/>
    </g>
   </g>
  </g>
  <g id="axes_3">
   <g id="patch_8">
    <path d="M 51.118688 324.99 
L 499.678687 324.99 
L 499.678687 210.927348 
L 51.118688 210.927348 
z
" style="fill: #ffffff"/>
   </g>
   <g id="patch_9">
    <path d="M 71.507778 324.99 
L 119.756772 324.99 
L 119.756772 219.298918 
L 71.507778 219.298918 
z
" clip-path="url(#p89f9e3246f)" style="fill: #1f2937; opacity: 0.86"/>
   </g>
   <g id="patch_10">
    <path d="M 227.149694 324.99 
L 275.398687 324.99 
L 275.398687 219.298918 
L 227.149694 219.298918 
z
" clip-path="url(#p89f9e3246f)" style="fill: #1f2937; opacity: 0.86"/>
   </g>
   <g id="patch_11">
    <path d="M 382.791609 324.99 
L 431.040603 324.99 
L 431.040603 323.943554 
L 382.791609 323.943554 
z
" clip-path="url(#p89f9e3246f)" style="fill: #1f2937; opacity: 0.86"/>
   </g>
   <g id="patch_12">
    <path d="M 119.756772 324.99 
L 168.005766 324.99 
L 168.005766 323.943554 
L 119.756772 323.943554 
z
" clip-path="url(#p89f9e3246f)" style="fill: #d97706; opacity: 0.92"/>
   </g>
   <g id="patch_13">
    <path d="M 275.398687 324.99 
L 323.647681 324.99 
L 323.647681 323.943554 
L 275.398687 323.943554 
z
" clip-path="url(#p89f9e3246f)" style="fill: #d97706; opacity: 0.92"/>
   </g>
   <g id="patch_14">
    <path d="M 431.040603 324.99 
L 479.289597 324.99 
L 479.289597 219.46443 
L 431.040603 219.46443 
z
" clip-path="url(#p89f9e3246f)" style="fill: #d97706; opacity: 0.92"/>
   </g>
   <g id="matplotlib.axis_5">
    <g id="xtick_23">
     <g id="line2d_49">
      <g>
       <use xlink:href="#m6a7e05e051" x="119.756772" y="324.99" style="fill: #1f2937; stroke: #1f2937; stroke-width: 0.8"/>
      </g>
     </g>
     <g id="text_34">
      <!-- $N$ changed -->
      <g style="fill: #1f2937" transform="translate(97.118772 338.374) scale(0.084 -0.084)">
       <defs>
        <path id="DejaVuSans-Oblique-4e" d="M 1081 4666 
L 1931 4666 
L 3219 666 
L 4000 4666 
L 4616 4666 
L 3706 0 
L 2853 0 
L 1569 4025 
L 788 0 
L 172 0 
L 1081 4666 
z
" transform="scale(0.015625)"/>
        <path id="DejaVuSans-68" d="M 3513 2113 
L 3513 0 
L 2938 0 
L 2938 2094 
Q 2938 2591 2744 2837 
Q 2550 3084 2163 3084 
Q 1697 3084 1428 2787 
Q 1159 2491 1159 1978 
L 1159 0 
L 581 0 
L 581 4863 
L 1159 4863 
L 1159 2956 
Q 1366 3272 1645 3428 
Q 1925 3584 2291 3584 
Q 2894 3584 3203 3211 
Q 3513 2838 3513 2113 
z
" transform="scale(0.015625)"/>
        <path id="DejaVuSans-67" d="M 2906 1791 
Q 2906 2416 2648 2759 
Q 2391 3103 1925 3103 
Q 1463 3103 1205 2759 
Q 947 2416 947 1791 
Q 947 1169 1205 825 
Q 1463 481 1925 481 
Q 2391 481 2648 825 
Q 2906 1169 2906 1791 
z
M 3481 434 
Q 3481 -459 3084 -895 
Q 2688 -1331 1869 -1331 
Q 1566 -1331 1297 -1286 
Q 1028 -1241 775 -1147 
L 775 -588 
Q 1028 -725 1275 -790 
Q 1522 -856 1778 -856 
Q 2344 -856 2625 -561 
Q 2906 -266 2906 331 
L 2906 616 
Q 2728 306 2450 153 
Q 2172 0 1784 0 
Q 1141 0 747 490 
Q 353 981 353 1791 
Q 353 2603 747 3093 
Q 1141 3584 1784 3584 
Q 2172 3584 2450 3431 
Q 2728 3278 2906 2969 
L 2906 3500 
L 3481 3500 
L 3481 434 
z
" transform="scale(0.015625)"/>
       </defs>
       <use xlink:href="#DejaVuSans-Oblique-4e" transform="translate(0 0.015625)"/>
       <use xlink:href="#DejaVuSans-20" transform="translate(74.804688 0.015625)"/>
       <use xlink:href="#DejaVuSans-63" transform="translate(106.591797 0.015625)"/>
       <use xlink:href="#DejaVuSans-68" transform="translate(161.572266 0.015625)"/>
       <use xlink:href="#DejaVuSans-61" transform="translate(224.951172 0.015625)"/>
       <use xlink:href="#DejaVuSans-6e" transform="translate(286.230469 0.015625)"/>
       <use xlink:href="#DejaVuSans-67" transform="translate(349.609375 0.015625)"/>
       <use xlink:href="#DejaVuSans-65" transform="translate(413.085938 0.015625)"/>
       <use xlink:href="#DejaVuSans-64" transform="translate(474.609375 0.015625)"/>
      </g>
     </g>
    </g>
    <g id="xtick_24">
     <g id="line2d_50">
      <g>
       <use xlink:href="#m6a7e05e051" x="275.398687" y="324.99" style="fill: #1f2937; stroke: #1f2937; stroke-width: 0.8"/>
      </g>
     </g>
     <g id="text_35">
      <!-- $B$ changed -->
      <g style="fill: #1f2937" transform="translate(253.054688 338.374) scale(0.084 -0.084)">
       <defs>
        <path id="DejaVuSans-Oblique-42" d="M 1081 4666 
L 2694 4666 
Q 3350 4666 3675 4422 
Q 4000 4178 4000 3688 
Q 4000 3238 3720 2911 
Q 3441 2584 2988 2516 
Q 3375 2428 3569 2181 
Q 3763 1934 3763 1522 
Q 3763 819 3242 409 
Q 2722 0 1819 0 
L 172 0 
L 1081 4666 
z
M 1234 2228 
L 903 519 
L 1919 519 
Q 2491 519 2800 781 
Q 3109 1044 3109 1522 
Q 3109 1891 2904 2059 
Q 2700 2228 2247 2228 
L 1234 2228 
z
M 1606 4147 
L 1331 2741 
L 2272 2741 
Q 2775 2741 3058 2959 
Q 3341 3178 3341 3566 
Q 3341 3869 3150 4008 
Q 2959 4147 2541 4147 
L 1606 4147 
z
" transform="scale(0.015625)"/>
       </defs>
       <use xlink:href="#DejaVuSans-Oblique-42" transform="translate(0 0.015625)"/>
       <use xlink:href="#DejaVuSans-20" transform="translate(68.603516 0.015625)"/>
       <use xlink:href="#DejaVuSans-63" transform="translate(100.390625 0.015625)"/>
       <use xlink:href="#DejaVuSans-68" transform="translate(155.371094 0.015625)"/>
       <use xlink:href="#DejaVuSans-61" transform="translate(218.75 0.015625)"/>
       <use xlink:href="#DejaVuSans-6e" transform="translate(280.029297 0.015625)"/>
       <use xlink:href="#DejaVuSans-67" transform="translate(343.408203 0.015625)"/>
       <use xlink:href="#DejaVuSans-65" transform="translate(406.884766 0.015625)"/>
       <use xlink:href="#DejaVuSans-64" transform="translate(468.408203 0.015625)"/>
      </g>
     </g>
    </g>
    <g id="xtick_25">
     <g id="line2d_51">
      <g>
       <use xlink:href="#m6a7e05e051" x="431.040603" y="324.99" style="fill: #1f2937; stroke: #1f2937; stroke-width: 0.8"/>
      </g>
     </g>
     <g id="text_36">
      <!-- $D$ changed -->
      <g style="fill: #1f2937" transform="translate(408.318603 338.374) scale(0.084 -0.084)">
       <use xlink:href="#DejaVuSans-Oblique-44" transform="translate(0 0.015625)"/>
       <use xlink:href="#DejaVuSans-20" transform="translate(77.001953 0.015625)"/>
       <use xlink:href="#DejaVuSans-63" transform="translate(108.789062 0.015625)"/>
       <use xlink:href="#DejaVuSans-68" transform="translate(163.769531 0.015625)"/>
       <use xlink:href="#DejaVuSans-61" transform="translate(227.148438 0.015625)"/>
       <use xlink:href="#DejaVuSans-6e" transform="translate(288.427734 0.015625)"/>
       <use xlink:href="#DejaVuSans-67" transform="translate(351.806641 0.015625)"/>
       <use xlink:href="#DejaVuSans-65" transform="translate(415.283203 0.015625)"/>
       <use xlink:href="#DejaVuSans-64" transform="translate(476.806641 0.015625)"/>
      </g>
     </g>
    </g>
   </g>
   <g id="matplotlib.axis_6">
    <g id="ytick_13">
     <g id="line2d_52">
      <g>
       <use xlink:href="#m9138eea982" x="51.118688" y="323.943554" style="fill: #1f2937; stroke: #1f2937; stroke-width: 0.8"/>
      </g>
     </g>
     <g id="text_37">
      <!-- 0% -->
      <g style="fill: #1f2937" transform="translate(30.792875 327.134897) scale(0.084 -0.084)">
       <use xlink:href="#DejaVuSans-30"/>
       <use xlink:href="#DejaVuSans-25" transform="translate(63.623047 0)"/>
      </g>
     </g>
    </g>
    <g id="ytick_14">
     <g id="line2d_53">
      <g>
       <use xlink:href="#m9138eea982" x="51.118688" y="303.014627" style="fill: #1f2937; stroke: #1f2937; stroke-width: 0.8"/>
      </g>
     </g>
     <g id="text_38">
      <!-- 20% -->
      <g style="fill: #1f2937" transform="translate(25.448375 306.20597) scale(0.084 -0.084)">
       <use xlink:href="#DejaVuSans-32"/>
       <use xlink:href="#DejaVuSans-30" transform="translate(63.623047 0)"/>
       <use xlink:href="#DejaVuSans-25" transform="translate(127.246094 0)"/>
      </g>
     </g>
    </g>
    <g id="ytick_15">
     <g id="line2d_54">
      <g>
       <use xlink:href="#m9138eea982" x="51.118688" y="282.0857" style="fill: #1f2937; stroke: #1f2937; stroke-width: 0.8"/>
      </g>
     </g>
     <g id="text_39">
      <!-- 40% -->
      <g style="fill: #1f2937" transform="translate(25.448375 285.277043) scale(0.084 -0.084)">
       <use xlink:href="#DejaVuSans-34"/>
       <use xlink:href="#DejaVuSans-30" transform="translate(63.623047 0)"/>
       <use xlink:href="#DejaVuSans-25" transform="translate(127.246094 0)"/>
      </g>
     </g>
    </g>
    <g id="ytick_16">
     <g id="line2d_55">
      <g>
       <use xlink:href="#m9138eea982" x="51.118688" y="261.156772" style="fill: #1f2937; stroke: #1f2937; stroke-width: 0.8"/>
      </g>
     </g>
     <g id="text_40">
      <!-- 60% -->
      <g style="fill: #1f2937" transform="translate(25.448375 264.348116) scale(0.084 -0.084)">
       <use xlink:href="#DejaVuSans-36"/>
       <use xlink:href="#DejaVuSans-30" transform="translate(63.623047 0)"/>
       <use xlink:href="#DejaVuSans-25" transform="translate(127.246094 0)"/>
      </g>
     </g>
    </g>
    <g id="ytick_17">
     <g id="line2d_56">
      <g>
       <use xlink:href="#m9138eea982" x="51.118688" y="240.227845" style="fill: #1f2937; stroke: #1f2937; stroke-width: 0.8"/>
      </g>
     </g>
     <g id="text_41">
      <!-- 80% -->
      <g style="fill: #1f2937" transform="translate(25.448375 243.419189) scale(0.084 -0.084)">
       <use xlink:href="#DejaVuSans-38"/>
       <use xlink:href="#DejaVuSans-30" transform="translate(63.623047 0)"/>
       <use xlink:href="#DejaVuSans-25" transform="translate(127.246094 0)"/>
      </g>
     </g>
    </g>
    <g id="ytick_18">
     <g id="line2d_57">
      <g>
       <use xlink:href="#m9138eea982" x="51.118688" y="219.298918" style="fill: #1f2937; stroke: #1f2937; stroke-width: 0.8"/>
      </g>
     </g>
     <g id="text_42">
      <!-- 100% -->
      <g style="fill: #1f2937" transform="translate(20.103875 222.490262) scale(0.084 -0.084)">
       <use xlink:href="#DejaVuSans-31"/>
       <use xlink:href="#DejaVuSans-30" transform="translate(63.623047 0)"/>
       <use xlink:href="#DejaVuSans-30" transform="translate(127.246094 0)"/>
       <use xlink:href="#DejaVuSans-25" transform="translate(190.869141 0)"/>
      </g>
     </g>
    </g>
    <g id="text_43">
     <!-- Exact answer accuracy -->
     <g style="fill: #1f2937" transform="translate(14.190563 321.031893) rotate(-90) scale(0.092 -0.092)">
      <use xlink:href="#DejaVuSans-45"/>
      <use xlink:href="#DejaVuSans-78" transform="translate(63.183594 0)"/>
      <use xlink:href="#DejaVuSans-61" transform="translate(122.363281 0)"/>
      <use xlink:href="#DejaVuSans-63" transform="translate(183.642578 0)"/>
      <use xlink:href="#DejaVuSans-74" transform="translate(238.623047 0)"/>
      <use xlink:href="#DejaVuSans-20" transform="translate(277.832031 0)"/>
      <use xlink:href="#DejaVuSans-61" transform="translate(309.619141 0)"/>
      <use xlink:href="#DejaVuSans-6e" transform="translate(370.898438 0)"/>
      <use xlink:href="#DejaVuSans-73" transform="translate(434.277344 0)"/>
      <use xlink:href="#DejaVuSans-77" transform="translate(486.376953 0)"/>
      <use xlink:href="#DejaVuSans-65" transform="translate(568.164062 0)"/>
      <use xlink:href="#DejaVuSans-72" transform="translate(629.6875 0)"/>
      <use xlink:href="#DejaVuSans-20" transform="translate(670.800781 0)"/>
      <use xlink:href="#DejaVuSans-61" transform="translate(702.587891 0)"/>
      <use xlink:href="#DejaVuSans-63" transform="translate(763.867188 0)"/>
      <use xlink:href="#DejaVuSans-63" transform="translate(818.847656 0)"/>
      <use xlink:href="#DejaVuSans-75" transform="translate(873.828125 0)"/>
      <use xlink:href="#DejaVuSans-72" transform="translate(937.207031 0)"/>
      <use xlink:href="#DejaVuSans-61" transform="translate(978.320312 0)"/>
      <use xlink:href="#DejaVuSans-63" transform="translate(1039.599609 0)"/>
      <use xlink:href="#DejaVuSans-79" transform="translate(1094.580078 0)"/>
     </g>
    </g>
   </g>
   <g id="LineCollection_1">
    <path d="M 95.632275 219.298918 
L 95.632275 219.298918 
" clip-path="url(#p89f9e3246f)" style="fill: none; stroke: #000000; stroke-width: 1.5"/>
    <path d="M 251.274191 219.298918 
L 251.274191 219.298918 
" clip-path="url(#p89f9e3246f)" style="fill: none; stroke: #000000; stroke-width: 1.5"/>
    <path d="M 406.916106 323.943554 
L 406.916106 323.943554 
" clip-path="url(#p89f9e3246f)" style="fill: none; stroke: #000000; stroke-width: 1.5"/>
   </g>
   <g id="line2d_58">
    <defs>
     <path id="m261dd5c11f" d="M 3 0 
L -3 -0 
" style="stroke: #000000"/>
    </defs>
    <g clip-path="url(#p89f9e3246f)">
     <use xlink:href="#m261dd5c11f" x="95.632275" y="219.298918" style="fill: #1f77b4; stroke: #000000"/>
     <use xlink:href="#m261dd5c11f" x="251.274191" y="219.298918" style="fill: #1f77b4; stroke: #000000"/>
     <use xlink:href="#m261dd5c11f" x="406.916106" y="323.943554" style="fill: #1f77b4; stroke: #000000"/>
    </g>
   </g>
   <g id="line2d_59">
    <g clip-path="url(#p89f9e3246f)">
     <use xlink:href="#m261dd5c11f" x="95.632275" y="219.298918" style="fill: #1f77b4; stroke: #000000"/>
     <use xlink:href="#m261dd5c11f" x="251.274191" y="219.298918" style="fill: #1f77b4; stroke: #000000"/>
     <use xlink:href="#m261dd5c11f" x="406.916106" y="323.943554" style="fill: #1f77b4; stroke: #000000"/>
    </g>
   </g>
   <g id="LineCollection_2">
    <path d="M 143.881269 323.943554 
L 143.881269 323.943554 
" clip-path="url(#p89f9e3246f)" style="fill: none; stroke: #000000; stroke-width: 1.5"/>
    <path d="M 299.523184 323.943554 
L 299.523184 323.943554 
" clip-path="url(#p89f9e3246f)" style="fill: none; stroke: #000000; stroke-width: 1.5"/>
    <path d="M 455.1651 219.795453 
L 455.1651 219.298918 
" clip-path="url(#p89f9e3246f)" style="fill: none; stroke: #000000; stroke-width: 1.5"/>
   </g>
   <g id="line2d_60">
    <g clip-path="url(#p89f9e3246f)">
     <use xlink:href="#m261dd5c11f" x="143.881269" y="323.943554" style="fill: #1f77b4; stroke: #000000"/>
     <use xlink:href="#m261dd5c11f" x="299.523184" y="323.943554" style="fill: #1f77b4; stroke: #000000"/>
     <use xlink:href="#m261dd5c11f" x="455.1651" y="219.795453" style="fill: #1f77b4; stroke: #000000"/>
    </g>
   </g>
   <g id="line2d_61">
    <g clip-path="url(#p89f9e3246f)">
     <use xlink:href="#m261dd5c11f" x="143.881269" y="323.943554" style="fill: #1f77b4; stroke: #000000"/>
     <use xlink:href="#m261dd5c11f" x="299.523184" y="323.943554" style="fill: #1f77b4; stroke: #000000"/>
     <use xlink:href="#m261dd5c11f" x="455.1651" y="219.298918" style="fill: #1f77b4; stroke: #000000"/>
    </g>
   </g>
   <g id="patch_15">
    <path d="M 51.118688 324.99 
L 51.118688 210.927348 
" style="fill: none; stroke: #1f2937; stroke-width: 0.8; stroke-linejoin: miter; stroke-linecap: square"/>
   </g>
   <g id="patch_16">
    <path d="M 51.118688 324.99 
L 499.678687 324.99 
" style="fill: none; stroke: #1f2937; stroke-width: 0.8; stroke-linejoin: miter; stroke-linecap: square"/>
   </g>
   <g id="text_44">
    <!-- B -->
    <g style="fill: #1f2937" transform="translate(10.748288 202.555292) scale(0.13 -0.13)">
     <defs>
      <path id="DejaVuSans-Bold-42" d="M 2456 2859 
Q 2741 2859 2887 2984 
Q 3034 3109 3034 3353 
Q 3034 3594 2887 3720 
Q 2741 3847 2456 3847 
L 1791 3847 
L 1791 2859 
L 2456 2859 
z
M 2497 819 
Q 2859 819 3042 972 
Q 3225 1125 3225 1434 
Q 3225 1738 3044 1889 
Q 2863 2041 2497 2041 
L 1791 2041 
L 1791 819 
L 2497 819 
z
M 3616 2497 
Q 4003 2384 4215 2081 
Q 4428 1778 4428 1338 
Q 4428 663 3972 331 
Q 3516 0 2584 0 
L 588 0 
L 588 4666 
L 2394 4666 
Q 3366 4666 3802 4372 
Q 4238 4078 4238 3431 
Q 4238 3091 4078 2852 
Q 3919 2613 3616 2497 
z
" transform="scale(0.015625)"/>
     </defs>
     <use xlink:href="#DejaVuSans-Bold-42"/>
    </g>
   </g>
   <g id="text_45">
    <!-- Full $D_{\mathrm{ones}} \rightarrow O$ K/V patching -->
    <g style="fill: #1f2937" transform="translate(207.823688 205.927348) scale(0.102 -0.102)">
     <defs>
      <path id="DejaVuSans-4b" d="M 628 4666 
L 1259 4666 
L 1259 2694 
L 3353 4666 
L 4166 4666 
L 1850 2491 
L 4331 0 
L 3500 0 
L 1259 2247 
L 1259 0 
L 628 0 
L 628 4666 
z
" transform="scale(0.015625)"/>
      <path id="DejaVuSans-2f" d="M 1625 4666 
L 2156 4666 
L 531 -594 
L 0 -594 
L 1625 4666 
z
" transform="scale(0.015625)"/>
      <path id="DejaVuSans-56" d="M 1831 0 
L 50 4666 
L 709 4666 
L 2188 738 
L 3669 4666 
L 4325 4666 
L 2547 0 
L 1831 0 
z
" transform="scale(0.015625)"/>
      <path id="DejaVuSans-69" d="M 603 3500 
L 1178 3500 
L 1178 0 
L 603 0 
L 603 3500 
z
M 603 4863 
L 1178 4863 
L 1178 4134 
L 603 4134 
L 603 4863 
z
" transform="scale(0.015625)"/>
     </defs>
     <use xlink:href="#DejaVuSans-46" transform="translate(0 0.015625)"/>
     <use xlink:href="#DejaVuSans-75" transform="translate(57.519531 0.015625)"/>
     <use xlink:href="#DejaVuSans-6c" transform="translate(120.898438 0.015625)"/>
     <use xlink:href="#DejaVuSans-6c" transform="translate(148.681641 0.015625)"/>
     <use xlink:href="#DejaVuSans-20" transform="translate(176.464844 0.015625)"/>
     <use xlink:href="#DejaVuSans-Oblique-44" transform="translate(208.251953 0.015625)"/>
     <use xlink:href="#DejaVuSans-6f" transform="translate(285.253906 -16.390625) scale(0.7)"/>
     <use xlink:href="#DejaVuSans-6e" transform="translate(328.081055 -16.390625) scale(0.7)"/>
     <use xlink:href="#DejaVuSans-65" transform="translate(372.446289 -16.390625) scale(0.7)"/>
     <use xlink:href="#DejaVuSans-73" transform="translate(415.512695 -16.390625) scale(0.7)"/>
     <use xlink:href="#DejaVuSans-2192" transform="translate(474.199219 0.015625)"/>
     <use xlink:href="#DejaVuSans-Oblique-4f" transform="translate(577.470703 0.015625)"/>
     <use xlink:href="#DejaVuSans-20" transform="translate(656.181641 0.015625)"/>
     <use xlink:href="#DejaVuSans-4b" transform="translate(687.96875 0.015625)"/>
     <use xlink:href="#DejaVuSans-2f" transform="translate(753.544922 0.015625)"/>
     <use xlink:href="#DejaVuSans-56" transform="translate(787.236328 0.015625)"/>
     <use xlink:href="#DejaVuSans-20" transform="translate(855.644531 0.015625)"/>
     <use xlink:href="#DejaVuSans-70" transform="translate(887.431641 0.015625)"/>
     <use xlink:href="#DejaVuSans-61" transform="translate(950.908203 0.015625)"/>
     <use xlink:href="#DejaVuSans-74" transform="translate(1012.1875 0.015625)"/>
     <use xlink:href="#DejaVuSans-63" transform="translate(1051.396484 0.015625)"/>
     <use xlink:href="#DejaVuSans-68" transform="translate(1106.376953 0.015625)"/>
     <use xlink:href="#DejaVuSans-69" transform="translate(1169.755859 0.015625)"/>
     <use xlink:href="#DejaVuSans-6e" transform="translate(1197.539062 0.015625)"/>
     <use xlink:href="#DejaVuSans-67" transform="translate(1260.917969 0.015625)"/>
    </g>
   </g>
   <g id="legend_1">
    <g id="patch_17">
     <path d="M 146.48625 359.463965 
L 163.28625 359.463965 
L 163.28625 353.583965 
L 146.48625 353.583965 
z
" style="fill: #1f2937; opacity: 0.86"/>
    </g>
    <g id="text_46">
     <!-- Matches source answer -->
     <g style="fill: #1f2937" transform="translate(170.00625 359.463965) scale(0.084 -0.084)">
      <use xlink:href="#DejaVuSans-4d"/>
      <use xlink:href="#DejaVuSans-61" transform="translate(86.279297 0)"/>
      <use xlink:href="#DejaVuSans-74" transform="translate(147.558594 0)"/>
      <use xlink:href="#DejaVuSans-63" transform="translate(186.767578 0)"/>
      <use xlink:href="#DejaVuSans-68" transform="translate(241.748047 0)"/>
      <use xlink:href="#DejaVuSans-65" transform="translate(305.126953 0)"/>
      <use xlink:href="#DejaVuSans-73" transform="translate(366.650391 0)"/>
      <use xlink:href="#DejaVuSans-20" transform="translate(418.75 0)"/>
      <use xlink:href="#DejaVuSans-73" transform="translate(450.537109 0)"/>
      <use xlink:href="#DejaVuSans-6f" transform="translate(502.636719 0)"/>
      <use xlink:href="#DejaVuSans-75" transform="translate(563.818359 0)"/>
      <use xlink:href="#DejaVuSans-72" transform="translate(627.197266 0)"/>
      <use xlink:href="#DejaVuSans-63" transform="translate(666.060547 0)"/>
      <use xlink:href="#DejaVuSans-65" transform="translate(721.041016 0)"/>
      <use xlink:href="#DejaVuSans-20" transform="translate(782.564453 0)"/>
      <use xlink:href="#DejaVuSans-61" transform="translate(814.351562 0)"/>
      <use xlink:href="#DejaVuSans-6e" transform="translate(875.630859 0)"/>
      <use xlink:href="#DejaVuSans-73" transform="translate(939.009766 0)"/>
      <use xlink:href="#DejaVuSans-77" transform="translate(991.109375 0)"/>
      <use xlink:href="#DejaVuSans-65" transform="translate(1072.896484 0)"/>
      <use xlink:href="#DejaVuSans-72" transform="translate(1134.419922 0)"/>
     </g>
    </g>
    <g id="patch_18">
     <path d="M 285.549562 359.463965 
L 302.349562 359.463965 
L 302.349562 353.583965 
L 285.549562 353.583965 
z
" style="fill: #d97706; opacity: 0.92"/>
    </g>
    <g id="text_47">
     <!-- Matches donor answer -->
     <g style="fill: #1f2937" transform="translate(309.069562 359.463965) scale(0.084 -0.084)">
      <use xlink:href="#DejaVuSans-4d"/>
      <use xlink:href="#DejaVuSans-61" transform="translate(86.279297 0)"/>
      <use xlink:href="#DejaVuSans-74" transform="translate(147.558594 0)"/>
      <use xlink:href="#DejaVuSans-63" transform="translate(186.767578 0)"/>
      <use xlink:href="#DejaVuSans-68" transform="translate(241.748047 0)"/>
      <use xlink:href="#DejaVuSans-65" transform="translate(305.126953 0)"/>
      <use xlink:href="#DejaVuSans-73" transform="translate(366.650391 0)"/>
      <use xlink:href="#DejaVuSans-20" transform="translate(418.75 0)"/>
      <use xlink:href="#DejaVuSans-64" transform="translate(450.537109 0)"/>
      <use xlink:href="#DejaVuSans-6f" transform="translate(514.013672 0)"/>
      <use xlink:href="#DejaVuSans-6e" transform="translate(575.195312 0)"/>
      <use xlink:href="#DejaVuSans-6f" transform="translate(638.574219 0)"/>
      <use xlink:href="#DejaVuSans-72" transform="translate(699.755859 0)"/>
      <use xlink:href="#DejaVuSans-20" transform="translate(740.869141 0)"/>
      <use xlink:href="#DejaVuSans-61" transform="translate(772.65625 0)"/>
      <use xlink:href="#DejaVuSans-6e" transform="translate(833.935547 0)"/>
      <use xlink:href="#DejaVuSans-73" transform="translate(897.314453 0)"/>
      <use xlink:href="#DejaVuSans-77" transform="translate(949.414062 0)"/>
      <use xlink:href="#DejaVuSans-65" transform="translate(1031.201172 0)"/>
      <use xlink:href="#DejaVuSans-72" transform="translate(1092.724609 0)"/>
     </g>
    </g>
   </g>
  </g>
  <g id="text_48">
   <!-- A -->
   <g style="fill: #1f2937" transform="translate(13.318688 17.077969) scale(0.13 -0.13)">
    <defs>
     <path id="DejaVuSans-Bold-41" d="M 3419 850 
L 1538 850 
L 1241 0 
L 31 0 
L 1759 4666 
L 3194 4666 
L 4922 0 
L 3713 0 
L 3419 850 
z
M 1838 1716 
L 3116 1716 
L 2478 3572 
L 1838 1716 
z
" transform="scale(0.015625)"/>
    </defs>
    <use xlink:href="#DejaVuSans-Bold-41"/>
   </g>
  </g>
  <g id="text_49">
   <!-- Cumulative $D_{\mathrm{ones}} \rightarrow O$ attention ablations -->
   <g style="fill: #1f2937" transform="translate(146.770688 14.950406) scale(0.102 -0.102)">
    <defs>
     <path id="DejaVuSans-43" d="M 4122 4306 
L 4122 3641 
Q 3803 3938 3442 4084 
Q 3081 4231 2675 4231 
Q 1875 4231 1450 3742 
Q 1025 3253 1025 2328 
Q 1025 1406 1450 917 
Q 1875 428 2675 428 
Q 3081 428 3442 575 
Q 3803 722 4122 1019 
L 4122 359 
Q 3791 134 3420 21 
Q 3050 -91 2638 -91 
Q 1578 -91 968 557 
Q 359 1206 359 2328 
Q 359 3453 968 4101 
Q 1578 4750 2638 4750 
Q 3056 4750 3426 4639 
Q 3797 4528 4122 4306 
z
" transform="scale(0.015625)"/>
     <path id="DejaVuSans-6d" d="M 3328 2828 
Q 3544 3216 3844 3400 
Q 4144 3584 4550 3584 
Q 5097 3584 5394 3201 
Q 5691 2819 5691 2113 
L 5691 0 
L 5113 0 
L 5113 2094 
Q 5113 2597 4934 2840 
Q 4756 3084 4391 3084 
Q 3944 3084 3684 2787 
Q 3425 2491 3425 1978 
L 3425 0 
L 2847 0 
L 2847 2094 
Q 2847 2600 2669 2842 
Q 2491 3084 2119 3084 
Q 1678 3084 1418 2786 
Q 1159 2488 1159 1978 
L 1159 0 
L 581 0 
L 581 3500 
L 1159 3500 
L 1159 2956 
Q 1356 3278 1631 3431 
Q 1906 3584 2284 3584 
Q 2666 3584 2933 3390 
Q 3200 3197 3328 2828 
z
" transform="scale(0.015625)"/>
     <path id="DejaVuSans-62" d="M 3116 1747 
Q 3116 2381 2855 2742 
Q 2594 3103 2138 3103 
Q 1681 3103 1420 2742 
Q 1159 2381 1159 1747 
Q 1159 1113 1420 752 
Q 1681 391 2138 391 
Q 2594 391 2855 752 
Q 3116 1113 3116 1747 
z
M 1159 2969 
Q 1341 3281 1617 3432 
Q 1894 3584 2278 3584 
Q 2916 3584 3314 3078 
Q 3713 2572 3713 1747 
Q 3713 922 3314 415 
Q 2916 -91 2278 -91 
Q 1894 -91 1617 61 
Q 1341 213 1159 525 
L 1159 0 
L 581 0 
L 581 4863 
L 1159 4863 
L 1159 2969 
z
" transform="scale(0.015625)"/>
    </defs>
    <use xlink:href="#DejaVuSans-43" transform="translate(0 0.015625)"/>
    <use xlink:href="#DejaVuSans-75" transform="translate(69.824219 0.015625)"/>
    <use xlink:href="#DejaVuSans-6d" transform="translate(133.203125 0.015625)"/>
    <use xlink:href="#DejaVuSans-75" transform="translate(230.615234 0.015625)"/>
    <use xlink:href="#DejaVuSans-6c" transform="translate(293.994141 0.015625)"/>
    <use xlink:href="#DejaVuSans-61" transform="translate(321.777344 0.015625)"/>
    <use xlink:href="#DejaVuSans-74" transform="translate(383.056641 0.015625)"/>
    <use xlink:href="#DejaVuSans-69" transform="translate(422.265625 0.015625)"/>
    <use xlink:href="#DejaVuSans-76" transform="translate(450.048828 0.015625)"/>
    <use xlink:href="#DejaVuSans-65" transform="translate(509.228516 0.015625)"/>
    <use xlink:href="#DejaVuSans-20" transform="translate(570.751953 0.015625)"/>
    <use xlink:href="#DejaVuSans-Oblique-44" transform="translate(602.539062 0.015625)"/>
    <use xlink:href="#DejaVuSans-6f" transform="translate(679.541016 -16.390625) scale(0.7)"/>
    <use xlink:href="#DejaVuSans-6e" transform="translate(722.368164 -16.390625) scale(0.7)"/>
    <use xlink:href="#DejaVuSans-65" transform="translate(766.733398 -16.390625) scale(0.7)"/>
    <use xlink:href="#DejaVuSans-73" transform="translate(809.799805 -16.390625) scale(0.7)"/>
    <use xlink:href="#DejaVuSans-2192" transform="translate(868.486328 0.015625)"/>
    <use xlink:href="#DejaVuSans-Oblique-4f" transform="translate(971.757812 0.015625)"/>
    <use xlink:href="#DejaVuSans-20" transform="translate(1050.46875 0.015625)"/>
    <use xlink:href="#DejaVuSans-61" transform="translate(1082.255859 0.015625)"/>
    <use xlink:href="#DejaVuSans-74" transform="translate(1143.535156 0.015625)"/>
    <use xlink:href="#DejaVuSans-74" transform="translate(1182.744141 0.015625)"/>
    <use xlink:href="#DejaVuSans-65" transform="translate(1221.953125 0.015625)"/>
    <use xlink:href="#DejaVuSans-6e" transform="translate(1283.476562 0.015625)"/>
    <use xlink:href="#DejaVuSans-74" transform="translate(1346.855469 0.015625)"/>
    <use xlink:href="#DejaVuSans-69" transform="translate(1386.064453 0.015625)"/>
    <use xlink:href="#DejaVuSans-6f" transform="translate(1413.847656 0.015625)"/>
    <use xlink:href="#DejaVuSans-6e" transform="translate(1475.029297 0.015625)"/>
    <use xlink:href="#DejaVuSans-20" transform="translate(1538.408203 0.015625)"/>
    <use xlink:href="#DejaVuSans-61" transform="translate(1570.195312 0.015625)"/>
    <use xlink:href="#DejaVuSans-62" transform="translate(1631.474609 0.015625)"/>
    <use xlink:href="#DejaVuSans-6c" transform="translate(1694.951172 0.015625)"/>
    <use xlink:href="#DejaVuSans-61" transform="translate(1722.734375 0.015625)"/>
    <use xlink:href="#DejaVuSans-74" transform="translate(1784.013672 0.015625)"/>
    <use xlink:href="#DejaVuSans-69" transform="translate(1823.222656 0.015625)"/>
    <use xlink:href="#DejaVuSans-6f" transform="translate(1851.005859 0.015625)"/>
    <use xlink:href="#DejaVuSans-6e" transform="translate(1912.1875 0.015625)"/>
    <use xlink:href="#DejaVuSans-73" transform="translate(1975.566406 0.015625)"/>
   </g>
  </g>
 </g>
 <defs>
  <clipPath id="p97ce087253">
   <rect x="51.118688" y="39.942" width="201.147982" height="108.631098"/>
  </clipPath>
  <clipPath id="pb3be0124a2">
   <rect x="298.530705" y="39.942" width="201.147982" height="108.631098"/>
  </clipPath>
  <clipPath id="p89f9e3246f">
   <rect x="51.118688" y="210.927348" width="448.56" height="114.062652"/>
  </clipPath>
 </defs>
</svg>
